<?xml version="1.0" encoding="utf-8"?>
<!-- Generator: Adobe Illustrator 23.0.2, SVG Export Plug-In . SVG Version: 6.00 Build 0)  -->
<svg version="1.1" id="Layer_1" xmlns="http://www.w3.org/2000/svg" xmlns:xlink="http://www.w3.org/1999/xlink" x="0px" y="0px"
	 viewBox="0 0 692 2259" style="enable-background:new 0 0 692 2259;" xml:space="preserve">
<style type="text/css">
	.st0{fill:#FEFEFE;}
	.st1{fill:#C9C8C8;}
	.st2{fill:#676666;}
	.st3{fill:#018D5B;}
	.st4{fill:#00593B;}
	.st5{fill:#010101;}
	.st6{fill:#00663D;}
	.st7{fill:#03373A;}
	.st8{fill:#B9805A;}
	.st9{fill:#050505;}
	.st10{fill:#C28D66;}
	.st11{fill:#DBB086;}
	.st12{fill:#F2D6B4;}
	.st13{fill:#363636;}
	.st14{fill:#0D0D0D;}
	.st15{fill:#C8966E;}
	.st16{fill:#CF9F77;}
	.st17{fill:#00844C;}
	.st18{fill:#424242;}
	.st19{fill:#AE6F4B;}
	.st20{fill:#5E5E5E;}
	.st21{fill:#242424;}
	.st22{fill:#00703F;}
	.st23{fill:#2C2C2B;}
	.st24{fill:#4B4B4B;}
	.st25{fill:#1B1B1B;}
	.st26{fill:#ADACAC;}
	.st27{fill:#1D98CF;}
	.st28{fill:#007842;}
	.st29{fill:#007F46;}
</style>
<g>
	<path class="st0" d="M1,2181C1,1454.3,1,727.7,1,1c230.7,0,461.3,0,692,0c0,709,0,1418,0,2127c-1-1-2.4-1.7-2.8-2.9
		c-4.8-12.2-11.6-23.3-20.1-33.1c-4.4-5-9.6-10.3-15.6-12.7c-35.4-14.3-71.2-27.7-106.8-41.4c0-0.3,0.2-0.7,0.1-1
		c-8.5-37.5-14.3-75.5-18.6-113.7c-3-26.5-5.3-53.2-7.2-79.9c-2.3-32-3.9-64-5.5-96c-0.8-14.9-1.1-29.9-1.2-44.9
		c-0.2-21.5-0.2-42.9,0-64.4c0.2-17.4,0.9-34.9,1.4-52.3c0.2-4.6,0.4-9.1,0.6-13.7c16-14.6,25.5-32.4,28-54
		c0.6-4.9,0.6-10.1,2.3-14.5c4-10,9.3-19.4,13.4-29.4c24.6-59.6,39.7-122.1,53.9-184.7c2.8-12.4,5.7-24.8,8.5-37.3
		c6.6-5.4,13.2-10.7,19.8-16.1c1.3-1.7,2.6-3.3,3.9-5c1.7-2,3.5-4,5.2-5.9c2.3-2.7,4.6-5.4,6.9-8.1c2.2-3.4,4.4-6.7,6.6-10.1
		c1.9-3.4,4.3-6.6,5.7-10.2c1.2-3.1,1.8-6.6,1.5-9.8c-0.4-4.8-2.1-9.5-2.9-14.4c-1.1-7.1-1.7-14.3-2.5-21.5c-0.2-0.7-0.5-1.3-0.7-2
		c-0.5-3.7-1.1-7.4-1.6-11.2c-2-13-4.1-26-6.1-38.9c-0.1-3-0.2-6-0.2-8.9c1.3-8,3.1-16,3.8-24.1c2.3-25,5.1-49.9,5.9-74.9
		c0.8-25.3,1.6-50.6-2.3-75.9c-2.6-16.5-3.6-33.3-5.4-50c-0.4-4.1-1.1-8.1-1.6-12.2c-1.1-13.5-2.2-27.1-3.4-40.6
		c-1-12.1-2.1-24.2-3.1-36.3c-0.4-9-0.8-18-1.2-26.9c12.3-31.6,16.6-64.7,17.2-98.4c0.4-20.1,1.5-40.2,2.3-60.3
		c0.8-20.4,1.8-40.8,2.4-61.3c0.1-2-1.2-5-2.9-6.1c-7.4-5-15.2-9.5-22.8-14.2c-28.6-17.9-57.1-35.8-85.7-53.7
		c-7.8-4.8-15.5-9.6-23.3-14.3c-6.7-4.2-13.4-8.5-20.1-12.7c-5.6-3.5-11.2-7-16.8-10.4c-2-1.4-4.3-2.6-6-4.3c-1.4-1.4-2.9-3.4-3-5.1
		c-0.1-19.8,0-39.5,0.1-59.3c4.9-1.1,9.9-2.2,14.8-3.3c5.8-1.4,11.7-2.4,17.3-4.4c2-0.7,4.2-3.3,4.7-5.4c3.2-13.7,5.8-27.6,8.8-41.4
		c3.9-18.2,7.6-36.4,12.1-54.4c5.3-21.4,6.2-42.6-0.9-63.8c-0.6-1.7-0.5-3.9,0-5.7c1.7-6.4,3.7-12.7,5.4-19.1
		c2.7-10.2,1.6-20.4-0.8-30.5c3.4-15.5,6.8-31.1,10.3-46.6c0.3-1.1,1.5-2.2,2.5-2.9c9.4-6.8,16.1-15.8,21.2-26
		c5.5-10.9,5.5-10.9-2.4-20.2c-0.3-0.4-0.6-0.8-0.9-1.2c-6.6-7.2-13.2-14.4-20.2-22.1c-3.1,6.2-5.8,11.6-8.2,16.3
		c-20.1-3.7-39.5-7.4-59-11c-22-3.4-44-3.5-66-0.9c-14.8,1.7-29.2,4.9-43,10.8c-2.5,0.9-5,1.7-7.4,2.7
		c-15.7,6.3-29.5,15.9-42.8,26.1c-5.8,4.5-11.6,9.7-15.6,15.7c-12.2,18.6-12.9,39.9-10.7,61.1c1.7,16.1,5.1,32.1,7.8,48.1
		c-4.2,4.3-5.8,9.5-5.4,15.5c0.4,5.3,0.1,10.7,1.2,15.8c2,9.9,4.2,19.8,7.3,29.3c3.1,9.7,10.4,13.7,19.6,11.6
		c3.5-0.8,6.8-3,10.9-4.8c0,6.2,0.4,11.9-0.1,17.4c-0.5,6.3,1.1,11.2,6.2,15.2c2.1,1.7,3.5,4.3,5.2,6.4c-0.3,2.1-0.5,4.3-0.8,6.4
		c-4.8,26.6-9.7,53.1-14.2,79.7c-0.9,5.3-2.9,8.4-7.7,10.8c-11.3,5.5-22.3,11.7-33.4,17.7c-9.8,5-19.5,10.1-29.3,15.1
		c-0.5,0.1-1,0.1-1.4,0.3C228.1,433.2,178,459.3,128,485.5c-1.8,0.9-3.5,2.6-4.5,4.4c-17.7,30.5-30.3,63-38.7,97.2
		c-6.4,25.9-10.3,52.2-11.7,78.7C72.2,682.9,73,700,73,717.1c0.6,10.3,1.3,20.6,1.9,30.9c-0.2,0.3-0.2,0.6,0.1,0.8
		c1.5,14.6,2.7,29.3,4.6,43.9c1.2,9.2,2.3,18-0.5,27.3c-3.3,11-4.9,22.6-7.2,33.9c-0.3,0.4-0.7,0.8-0.8,1.2
		c-1.7,17.1-4,34.2-4.9,51.4c-1.2,23.1,1,46.1,4.9,68.8c1.9,11,5.1,21.8,7.7,32.7c0.2,1,0.4,2,0.6,2.9c8.5,31.8,21.9,61.6,37.7,90.4
		c1.3,2.4,2,5.8,1.5,8.4c-2.1,11.4-4.8,22.7-7.1,34.1c-4.8,23.3-11.5,46.4-9.7,70.7c0.4,4.7,1.4,7.5,6.1,8.6c1.6,1,3.3,2,4.9,3.1
		c1.7,0.9,3.4,1.7,5.2,2.6c2.7,1.8,5.3,3.5,8,5.3c1.7,1,3.3,2,5,3c3.7,2.2,7.4,4.5,11.1,6.7c3,1.3,6,2.6,9,4c2,1,4,2,6,2.9
		c1.3,0.5,2.5,1.1,3.8,1.6c1.9,0.9,3.8,2,5.8,2.8c6.4,2.5,12,5.8,16.4,11.4c6,7.5,12.5,14.5,18.8,21.7c6.6,7.7,13.1,15.4,19.8,23
		c3.6,4,4.9,3.8,7.5-1c5.6-10.3,5.5-20.5-0.8-30.6c-2-3.2-3.9-6.6-5.5-10c-6-12.5-11.9-25.1-17.9-37.7c-2.7-5.7-3.3-11.7-3.1-17.9
		c0.3-11.7,0-23.3,0.1-35c0-2.6,0.5-5.2,0.8-7.8c0.7,4.6,1.1,9.2,2,13.7c3.2,15.7,9,29.9,22.6,39.6c1.4,1,3.2,1.3,4.9,2
		c0.5-1.6,1.6-3.3,1.6-4.9c0.1-30.1,0.1-60.2,0-90.4c0-1.7-1.1-4-2.4-4.9c-9-6.1-18.3-11.9-27.4-17.8c-10-6.3-19.9-12.5-29.9-18.8
		c-0.1-28-0.2-55.9-0.2-83.9c0-1,0.4-1.9,0.6-2.9c4.4-21.1,7.9-42.4,8.5-64c0.9-31.7-3.1-62.6-15.3-92.1c-0.8-2-0.3-4.9,0.4-7.1
		c1.8-5.7,4-11.2,6.1-16.8c0.3-0.7,0.5-1.4,0.8-2.1c0.3-1,0.6-2,1-3c1.6-4.2,3.1-8.4,4.7-12.5c4.3-10.8,8.6-21.6,12.9-32.4
		c0.7-1.3,1.4-2.6,2-4c8.6-22,17.1-44,25.6-65.9c7.2,6.4,14.5,12.6,21.6,19.1c11.5,10.3,22.8,20.8,34.3,31.2
		c0.2,0.2,0.5,0.5,0.7,0.7c0.4,0.4,0.9,0.8,1.3,1.2c0,0-0.2-0.2-0.2-0.2c0.4,0.4,0.8,0.7,1.2,1.1l-0.1-0.1c0.4,0.4,0.8,0.8,1.1,1.1
		c15.5,14.2,31,28.5,46.5,42.7c7.5,20.9,16,41.5,22.1,62.7c11.3,39.2,16,79.6,17.6,120.4c0.3,7.4,0.9,14.6-1.8,22
		c-9.7,26.4-18.8,53.1-28.1,79.7c-2.1,6.4-4.2,12.9-6.4,19.3c-0.6,1.3-1.4,2.5-1.9,3.9c-7.4,20.8-14.2,41.8-22.3,62.3
		c-7.8,19.6-9.5,40.2-11.8,60.8c-0.3,1.3-0.8,2.5-1,3.8c-3.9,24.3-7.3,48.6-11.7,72.8c-5.3,28.9-11.4,57.6-17.1,86.4
		c-8.1,29.6-15.5,59.4-24.5,88.7c-9.7,31.8-22,62.7-39.8,91c-13.9,22.1-24.5,45.6-30.7,71c-4.2,17.1-7,34.5-6.1,52.2
		c-2.9,20.9-5.8,41.8-8.8,62.6c-1.8,12.8-3.6,25.6-5.4,38.4c-0.3,0.6-0.6,1.2-0.7,1.8c-3.7,22.9-7.3,45.8-11,68.7
		c-2.4,15.2-5,30.3-7.4,45.5c-2.7,14-5.4,27.9-8.3,41.9c-8,39.4-16.8,78.7-28.9,117.1c-12.4,10.9-25.1,21.5-37.2,32.7
		c-11.5,10.5-23.2,20.9-33.5,32.5c-10.2,11.6-18.2,24.9-19.9,41C2.8,2179.9,1.6,2180.4,1,2181z"/>
	<path class="st0" d="M693,2177c0,27.7,0,55.3,0,83c-230.7,0-461.3,0-692,0c0-23,0-46,0-69c1,3,2.1,6.1,3.1,9.1c0,12-0.2,24,0,36
		c0,1.7,1.6,4.1,3.1,4.8c6.2,3,12.6,5.7,19.1,8.1c18.9,6.8,38.2,10.7,58.5,10.2c16.7-0.4,32.2-4.4,46.3-13.1
		c12.3-7.6,23.2-16.5,29.1-30.4c2.5-5.9,6.4-11.3,10.1-16.6c16.2-23.6,37.4-41.8,61.7-56.5c2.8-1.7,3.9-3.4,3.8-6.7
		c-0.2-9.3-0.1-18.6-0.2-27.9c-0.2-3.6-0.3-7.1-0.5-10.7c0-10.5,0-20.9,0-31.4c0.2-7.6,0.5-15.2,0.7-22.8c0.1-1.7,0.2-3.5,0.4-5.2
		c0.2-4.6,0.4-9.2,0.6-13.8c0.2-1.4,0.4-2.8,0.6-4.1c0.1-3.6,0.3-7.2,0.4-10.9c0.2-1.1,0.3-2.1,0.5-3.2c0.2-3.3,0.3-6.6,0.5-9.8
		c0.2-1,0.4-2.1,0.6-3.1c0.1-2.3,0.1-4.6,0.2-6.8c0.4-4,0.8-8,1.2-12c0.2-1,0.3-2.1,0.5-3.1c0.2-2.6,0.4-5.2,0.6-7.8
		c0.1-0.7,0.2-1.4,0.4-2.2c0.2-2.3,0.4-4.6,0.6-6.8c0.1-0.7,0.2-1.4,0.3-2.2c0.2-2.3,0.4-4.6,0.7-6.8c0.2-1,0.5-2.1,0.7-3.1
		c0.1-2,0.2-3.9,0.3-5.9c0.2-0.7,0.3-1.4,0.5-2.1c0.2-2,0.3-3.9,0.5-5.9c0.2-0.7,0.3-1.4,0.5-2.1c0.2-2,0.3-3.9,0.5-5.9
		c0.2-0.7,0.4-1.4,0.6-2.1c0.1-1.6,0.2-3.3,0.4-4.9c0.2-0.7,0.4-1.4,0.5-2.1c0.2-1.6,0.3-3.3,0.5-4.9c0.2-0.7,0.4-1.4,0.5-2.1
		c0.2-1.6,0.3-3.3,0.5-4.9c0.2-0.7,0.4-1.4,0.6-2.1c0.5-3.6,0.9-7.3,1.4-10.9c0.2-0.7,0.4-1.4,0.7-2.1c0.1-1.3,0.2-2.6,0.3-3.9
		c0.2-0.7,0.4-1.4,0.7-2.1c0.4-3,0.8-6,1.3-8.9c0.2-0.7,0.5-1.4,0.7-2.1c0.4-3,0.9-5.9,1.3-8.9c0.2-0.7,0.5-1.4,0.7-2.1
		c0.1-1,0.2-1.9,0.3-2.9c0.2-0.7,0.5-1.4,0.7-2.1c0.1-1,0.2-1.9,0.3-2.9c0.2-0.7,0.5-1.4,0.7-2.1c0.1-1,0.2-1.9,0.3-2.9
		c0.2-0.7,0.5-1.4,0.7-2.1c0.4-2.3,0.8-4.6,1.2-6.9c0.2-0.7,0.5-1.4,0.7-2.1c3.4-11,6.6-22.1,10.2-33.1c7.9-24.3,16-48.6,24-72.9
		c0.3-0.7,0.5-1.4,0.8-2.1c1.1-4.6,2.2-9.3,3.3-13.9c0.2-0.7,0.5-1.4,0.7-2.1c0.1-0.6,0.1-1.3,0.2-1.9c0.2-0.7,0.5-1.4,0.7-2.1
		c0.4-2.3,0.8-4.6,1.3-6.9c0.2-0.7,0.5-1.4,0.7-2.1c0.1-1,0.2-2,0.3-2.9c0.2-0.7,0.5-1.4,0.7-2.1c0.4-2.6,0.9-5.3,1.3-7.9
		c0.2-0.7,0.5-1.4,0.7-2.1c0.1-1,0.2-2,0.2-3c0.2-0.7,0.4-1.4,0.6-2.1c0.2-1.3,0.3-2.6,0.5-3.9c0.2-0.7,0.4-1.4,0.7-2.1
		c0.1-1.3,0.2-2.6,0.3-3.9c0.2-0.7,0.4-1.4,0.7-2.1c0.1-1.3,0.2-2.6,0.3-3.9c0.1-0.7,0.2-1.3,0.3-2c0.6-3.3,1.3-6.5,1.7-9.8
		c1-7.4,1.8-14.7,2.7-22.1c0.8-10.3,2-20.5,2.3-30.8c0.2-7.1,1.3-13.4,7-18.3c1.9-1.6,3.2-3.8,4.7-5.8c19.9-27,35.4-56.3,47.7-87.5
		c15.5-39.7,32.9-78.7,42.6-120.4c2.9-12.5,7.1-24.8,10.8-37.1c0.5-0.9,1.1-1.7,1.4-2.7c2.4-6.8,4.7-13.6,7.1-20.4
		c3.3-0.9,2.6,1.7,2.7,3.2c0.5,23.8,1.9,47.6,1.2,71.3c-0.8,27.6-2.8,55.1-5.1,82.6c-2.8,33.7-8.4,66.9-16.9,99.6
		c-0.6,2.3-1.8,4.6-3.3,6.5c-7.4,9-14.6,18.2-22.5,26.8c-12.4,13.4-21,28.5-24.4,46.6c-5.9,31.2-2.4,61.9,4.7,92.4
		c2.5,10.1,5.2,20.2,7.5,30.3c2.6,11.5,4.8,23,7.2,34.5c2,15,4,30,6,45c1.3,19,2.7,38,4,57c0.2,3.6,0.4,7.2,0.6,10.9
		c0.5,14,0.9,28.1,1.3,42.1c-0.3,18.7-0.6,37.3-0.9,56c-0.1,0.6-0.3,1.3-0.4,1.9c-1.9,21.1-3.8,42.3-5.8,63.4
		c-0.7,6.9-1.8,13.7-2.7,20.6c0,9.6,0,19.2,0,29c9.7,1.4,19.2,2.5,28.7,4.1c45.8,7.4,87.8,24.3,125.8,51c3.7,2.6,8,4.6,12.4,6.1
		c14.8,5.1,30,8,45.7,9.3c30.5,2.5,59.5-3.1,87.3-15.5C692.3,2176.9,692.7,2176.9,693,2177z"/>
	<path class="st1" d="M4.1,2200.1c-1-3-2.1-6.1-3.1-9.1c0-3.3,0-6.7,0-10c0.6-0.6,1.8-1.1,1.9-1.8c1.7-16,9.7-29.4,19.9-41
		c10.3-11.6,22-22,33.5-32.5c12.2-11.2,24.8-21.8,37.2-32.7c4.5-0.2,9-0.3,13.6-0.5c14.3,1.2,28.7,2.4,43,3.5
		c-1.3,3.2-2.4,6.5-4.1,9.5c-10.1,17.7-20.4,35.3-30.6,52.9c-10.9,18.8-21.8,37.6-32.5,56.4c-5.1,8.9-9.9,18-14.8,27
		c-8.6-1.2-17.4-1.8-25.9-3.8C28.2,2214.9,16.1,2207.4,4.1,2200.1z M122.6,2083.9c-6.8,0-12.2-0.3-17.6,0.1
		c-3.7,0.3-7.8,0.8-10.8,2.6c-21,13.3-40.7,28.3-57.3,46.9c-9.7,10.8-16.9,23.1-18.7,37.8c-0.8,6.4,0.3,12.7,3.8,19.2
		C47.8,2147.7,83.7,2115.4,122.6,2083.9z"/>
	<path class="st1" d="M547.6,2037.9c35.6,13.7,71.4,27.2,106.8,41.4c6,2.4,11.2,7.7,15.6,12.7c8.5,9.8,15.4,20.8,20.1,33.1
		c0.5,1.2,1.9,1.9,2.8,2.9c0,7.7,0,15.3,0,23c-0.3,0.1-0.7,0.1-1,0.2c-1.3,0.2-2.6,0.4-3.8,0.5c-13.7,1.7-27.4,3.4-41.1,5.1
		c-1.1-1.1-1.9-2.6-3.2-3.4c-22.8-13.2-45.7-26.3-68.6-39.4c-27.5-15.7-55-31.4-82.4-47.3c-3.6-2.1-6.5-5.1-9.8-7.7
		C502.6,2046,524.3,2039.4,547.6,2037.9z M680.9,2140c-0.4-10.4-3.2-18.4-8-25.7c-11.1-16.7-27.7-26.6-45-35.2
		c-25.9-13-53.7-21.3-81.6-28.7c-1.9-0.5-4.7-0.5-6.2,0.5c-6.1,4-11.8,8.4-18.2,13.1C578,2082.5,631.8,2104.8,680.9,2140z"/>
	<path class="st2" d="M692,2151.2c0.3-0.1,0.7-0.1,1-0.2c0,8.7,0,17.3,0,26c-0.3-0.1-0.7-0.1-1-0.2
		C692,2168.3,692,2159.7,692,2151.2z"/>
	<path class="st3" d="M221,703.1c-8.5,22-17.1,44-25.6,65.9c-0.5,1.4-1.3,2.7-2,4c-6.5-3-13-5.9-19.6-8.9c2-6.8,4.3-13.6,5.8-20.5
		c0.4-1.8-1.1-5.7-2.5-6.1c-12-3.8-24.1-7-36.2-10.4c-1.4-0.3-2.9-0.7-4.3-1c-9.6-1.7-19.1-3.3-28.7-5c-0.3,0-0.6,0-1,0
		c-0.3-0.3-0.7-0.5-1-0.8c-11-1-22-2-33-3.1c0-17.1-0.8-34.3,0.2-51.3c1.4-26.5,5.3-52.8,11.7-78.7c8.4-34.2,21-66.7,38.7-97.2
		c1-1.8,2.7-3.5,4.5-4.4c50-26.2,100.1-52.3,150.2-78.4c0.4-0.2,1-0.2,1.4-0.3c1,1.1,2.1,2.1,3,3.3c15,20.4,30.9,40,48.8,57.9
		c6.6,6.6,13.1,13.3,19.7,19.9c5.3,14.4,2.8,29.3,2.8,43.9c0.2,79.5,0.1,159,0.1,238.4c0,5-0.7,9.9-1,14.9c-1.2-1.1-2.5-2.2-3.6-3.4
		c-17.8-19.3-35.5-38.7-53.3-58.1c-11.7-12.7-23.4-25.4-35.2-38.1c-1.6-1.8-3.5-3.3-5.4-5c-0.7,0.9-1.2,1.3-1.2,1.7
		c-0.2,1.1-0.2,2.3-0.2,3.5c-0.6,11.9,4.2,22,10,31.8c6.9,11.7,17.2,20.2,26.6,29.5c13.1,13,26.4,25.9,39.5,38.8
		c-0.7,1.2-1.9,2.4-2.1,3.7c-0.4,3.4-0.4,6.8-0.6,10.3c-15.5-14.2-31-28.5-46.5-42.7c-0.4-0.4-0.8-0.8-1.1-1.1c0,0,0.1,0.1,0.1,0.1
		c-0.4-0.4-0.8-0.7-1.2-1.1c0,0,0.2,0.2,0.2,0.2c-0.4-0.4-0.9-0.8-1.3-1.2c-0.2-0.2-0.5-0.5-0.7-0.7c-0.5-1.5-0.7-3.3-1.6-4.4
		c-17.5-22.2-27.4-47.5-28-75.6c-0.3-13.1,2.5-26.3,4.3-39.4c0.6-4.7,2.2-9.2,3.4-13.8c-5,9.7-9,19.7-13,29.7
		C235,667.6,228,685.4,221,703.1z M279.9,414.2c-15.6,7.6-30.7,14.9-45.8,22.4c-33.7,16.8-67.4,33.6-101,50.5
		c-2.2,1.1-4.2,3.2-5.4,5.4c-13.2,25.5-23.9,52-31.9,79.5c-10.8,37.2-17.2,75-18,113.8c-0.1,3.5-0.2,7-0.2,10.5c0,5.4,0,10.7,0,16.5
		c10,0,19,0,27.9,0c3.1,0,3.3-2,3.4-4.4c0.2-6,0.3-12,1-17.9c2.2-21.1,4-42.3,7.1-63.3c6-39.4,17.1-77.5,32.6-114.3
		c0.9-2.2,3.1-4.3,5.3-5.4c9.6-4.6,19.4-8.8,29.1-13.1c31.5-14,63-27.9,94.4-41.9c7.2-3.2,14.4-6.5,22-10
		C293.4,432.8,286.8,423.7,279.9,414.2z"/>
	<path class="st4" d="M562.3,455.2c28.6,17.9,57.1,35.8,85.7,53.7c0.7,7.6,1.5,15.1,2.1,22.7c1.3,16.2,3.4,32.3,3.7,48.5
		c0.3,16.9-0.3,33.9-2,50.7c-1.7,17.6-4.2,35.2-8,52.4c-6.2,27.6-17,53.4-33.5,76.6c-1.4,2-2,4.9-2.1,7.4c-0.1,3.9,0.6,7.9,0.9,11.9
		c1.6,18.8,3.5,37.6,4.9,56.4c1,13.6,1.6,27.1,2,40.7c0.5,19.3,0.8,38.6,1,57.8c0.1,7.5-0.7,14.9-0.9,22.4
		c-0.4,15.8-0.6,31.6-1.1,47.3c-0.2,5.8-0.5,11.6-1,17.4c-1.6,19-3.2,37.9-5.1,56.8c-0.4,3.5,0.4,7.7-3.5,10.3
		c-14.7,9.8-30.4,17.7-47.4,22.9c0.3-4.8,1-9.6,1-14.4c0-208,0-416,0.2-624C559.1,466.8,561.2,461,562.3,455.2z"/>
	<path class="st5" d="M547.6,2037.9c-23.4,1.5-45.1,8.1-64.6,21.2c-4.3,3-9.2,5.5-12.9,9.1c-13.6,13.3-29.9,21.3-48,26
		c-10.1,2.6-20.2,2.7-30-1.3c0.9-6.9,2.1-13.7,2.7-20.6c2-21.1,3.9-42.3,5.8-63.4c0.1-0.7,0.2-1.3,0.4-1.9c1.7-3.9,3.5-7.8,4.9-11.8
		c1.3-3.5,2.2-7.2,3.3-10.8c0.5,0.1,1,0.2,1.5,0.3c0.1,1.6,0.3,3.1,0.3,4.7c0,12.8,0,25.6,0.1,38.4c0,1.7,0.5,3.5,0.8,5.2
		c-0.1,4.7-0.2,9.3-0.3,14c-0.2,3.3-0.5,6.7-0.7,10c-0.1,2.7-0.3,5.3-0.4,8c-0.2,2-0.4,4-0.5,6c0.1,1.6,0.2,3.2,0.4,5.5
		c8-3.7,15.6-7.1,23-10.7c1-0.5,1.6-2.4,1.7-3.7c0.4-10,0.8-20,0.8-29.9c0-15.8-0.4-31.6-0.6-47.4c-0.1-9.3-0.1-18.7-0.5-28
		c-1-23.3-2.3-46.5-3.5-69.7c1.2-1.6,3.1-3,3.5-4.7c11.3-41.9,22.4-83.8,33.7-125.8c10.7-39.8,21.4-79.7,32.2-119.5
		c4.1-15.2,8.1-30.4,12.3-45.6c0.6-2.1,2.5-3.8,3.8-5.7c-0.5,17.4-1.2,34.9-1.4,52.3c-0.3,21.5-0.2,42.9,0,64.4
		c0.1,15,0.4,29.9,1.2,44.9c1.6,32,3.3,64,5.5,96c1.9,26.7,4.2,53.3,7.2,79.9c4.4,38.2,10.1,76.2,18.6,113.7
		C547.8,2037.2,547.7,2037.6,547.6,2037.9z"/>
	<path class="st6" d="M562.3,455.2c-1.1,5.8-3.1,11.6-3.2,17.4c-0.2,208-0.1,416-0.2,624c0,4.8-0.6,9.6-1,14.4
		c-0.9,0.3-1.8,0.8-2.8,1c-12.7,2.7-25.5,5.3-38.2,8c0.7-3.7,1.9-7.3,1.9-11c0.1-179.2,0.1-358.3,0.1-537.5c0-2.8,0.6-5.6,0.7-8.4
		c0-1-0.5-2.1-0.8-3.1c1.1-2.8,2-5.6,3.3-8.3c11.8-25.2,17.2-51.8,17.7-79.4c0.2-10.4-0.6-20.9-0.9-31.3
		C546.8,445.7,554.5,450.5,562.3,455.2z"/>
	<path class="st7" d="M517,1120c12.7-2.7,25.5-5.3,38.2-8c1-0.2,1.9-0.6,2.8-1c17-5.1,32.7-13,47.4-22.9c3.9-2.6,3.1-6.8,3.5-10.3
		c1.9-18.9,3.5-37.9,5.1-56.8c0.5-5.8,0.9-11.6,1-17.4c0.4-15.8,0.7-31.6,1.1-47.3c0.2-7.5,1-14.9,0.9-22.4
		c-0.1-19.3-0.4-38.6-1-57.8c-0.4-13.6-1-27.2-2-40.7c-1.4-18.8-3.2-37.6-4.9-56.4c-0.3-4-1-7.9-0.9-11.9c0.1-2.5,0.7-5.4,2.1-7.4
		c16.5-23.2,27.4-49,33.5-76.6c3.8-17.2,6.3-34.8,8-52.4c1.6-16.8,2.3-33.8,2-50.7c-0.3-16.2-2.3-32.3-3.7-48.5
		c-0.6-7.6-1.4-15.1-2.1-22.7c7.6,4.7,15.4,9.2,22.8,14.2c1.6,1.1,2.9,4,2.9,6.1c-0.6,20.4-1.6,40.8-2.4,61.3
		c-0.8,20.1-1.9,40.2-2.3,60.3c-0.7,33.7-4.9,66.7-17.2,98.4c-2.7,5.9-5.3,11.9-8,17.8c-1.9,3.5-3.6,7.1-5.8,10.4
		c-3.2,4.6-3.8,9.6-3.8,15.1c0.2,45.2,0.6,90.3-0.1,135.5c-0.5,31.1,2.7,61.9,3.8,92.8c1.1,29.1,1.3,58.2,1.9,87.3
		c-1.6,0.9-3.3,1.5-4.7,2.6c-13.6,10.7-28.8,18.3-45.3,23.5c-18.5,5.9-37.5,8.4-56.8,8.1c-16.2-1.5-32.4-2.1-48.4-4.7
		c-25.1-4-49.3-11.9-73.2-20.6c-3.9-1.4-7.5-3.3-11.3-4.9c1.8,0.2,3.6,0.4,5.3,0.7c9.2,1.5,18.4,3,27.6,4.5c0.4,0.3,0.8,0.7,1.2,0.8
		c12.9,1.1,25.8,2.1,38.8,3.2c1.7,0.3,3.5,1,5.2,0.9C491.1,1121.3,504,1120.6,517,1120z"/>
	<path class="st8" d="M554.7,120.9c2.3,10.1,3.5,20.3,0.8,30.5c-1.7,6.4-3.8,12.7-5.4,19.1c-0.5,1.8-0.6,4,0,5.7
		c7.1,21.2,6.2,42.4,0.9,63.8c-4.5,18-8.2,36.2-12.1,54.4c-3,13.8-5.6,27.6-8.8,41.4c-0.5,2.1-2.7,4.7-4.7,5.4
		c-5.6,1.9-11.5,3-17.3,4.4c-0.3-0.9-0.7-1.9-1-2.8c5.2-2.2,10.4-4.3,15.4-6.8c1.6-0.8,3.2-2.8,3.7-4.5c1.9-6.3,3.3-12.8,4.8-19.3
		c4.7-20.7,9.2-41.4,13.9-62c4.3-19.2,9.7-38.3,6.3-58.4c-0.7-4.2-2.7-6-7.1-6.6c0,10,0.7,19.8-0.2,29.5
		c-1.2,13.3-2.8,26.7-5.7,39.7c-4.7,21.3-10.6,42.4-16,63.6c-2.9,11.4-11.2,17.9-21.1,22.9c-0.3-16.6-0.7-33.3-1-49.9
		c2.8-2.4,5.7-4.9,8.7-7.5C503,283,498,282.5,493,282c0-4,0-8,0-12c8.6-0.3,17.2-0.6,25.9-1.1c1.2-0.1,2.2-1.5,4.3-3
		c-5.6,0-9.4,0-13.2,0c0-8.9,0-17.9,0-26.8c0.8,0,1.7-0.1,2.5-0.1c6.4-0.1,6.4-0.1,5.6-6.1c-0.7-5.4-1.3-10.8-2.1-16.2
		c-0.4-2.8-1.1-5.5-1.6-8.2c-0.4,0-0.9,0-1.3,0.1c-0.7,5.5-1.4,11-2.1,16.5c-0.6-1.6-1.8-3.3-1.8-4.9c-0.1-15.1,0-30.1-0.2-45.2
		c0-2.3-1.6-4.6-2.4-6.9c13.7-4.5,27.2-9.6,41.9-9.3c0.7,0,1.9-0.9,2.2-1.6c1.1-3.2,2-6.5,3.1-10.5c-2.8,0.3-4.6,0.4-6.4,0.7
		c-13.6,2.3-26.2,7.3-38.3,13.7c0-17.3,0-34.6,0-51.9c0-5.5-1.7-6.5-7-5.8c-3.7,0.5-7.6,0.3-11.3-0.1c-3.9-0.4-7.8-1.5-11.6-2.3
		c-5.3-1.3-10.7-2.7-16-4c-8-2.3-16-4.6-24.1-6.9c-1-0.1-2,0-3-0.2c-12.6-3.4-25.3-6.8-37.8-10.4c-3.1-0.9-5.1-0.2-6.6,2.5
		c-5.8,10.5-11.6,20.9-17.3,31.5c-0.6,1.2-0.6,3.2,0,4.4c4.6,9,9.2,18.1,14.3,26.9c1.7,3,1.2,4.5-1.3,6.1
		c-12.2,8.2-15.3,25.8-6.8,37.5c1.4,1.9,2,4.6,2.4,7c2,11.1,3.8,22.2,5.8,33.2c0.9,5.2,0.1,6.3-5.1,6.3c-3.5,0-7.1,0.1-10.6,0.1
		c-5.7,0-11.4,0-16.2-3.8c2.1-0.1,4.1-0.1,6.2-0.2c6.6,0,13.2,0,20.3,0c-1.5-10.9-2.7-21.3-4.5-31.5c-0.6-3.3-2.3-6.8-4.3-9.5
		c-6.2-8.3-10.3-16.6-4.9-27c2.2-4.3,3.7-8.9,5.3-13.4c0.5-1.6,0.8-3.6,0.2-5.1c-4.2-11.2-8.7-22.3-13.1-33.4c0.2-1.8,0-3.9,0.8-5.4
		c5.8-10.8,12-21.4,17.6-32.3c2.3-4.4,4.9-6.3,9.6-4.4c10.6,2.4,21.3,4.9,31.9,7.3c9.4,2.2,18.7,4.5,28.1,6.7
		c9.9,2.3,19.9,4.5,29.8,6.8c6.7,1.1,13.5,2.3,20.2,3.4c14.7-2.2,29.3-4.4,45-6.7c2.2,9,4.6,19.1,7.1,29.2
		C552.6,117.4,553.8,119.1,554.7,120.9z M544,174.1c-10.9-0.8-21,0.8-30.3,5.7c0.7,1.5,1.4,2.4,1.6,3.4c0.6,3.1,2.1,5.7,5.4,5
		c2.8-0.6,6.8-2.2,7.5-4.3c2.2-6.6,6.7-6.2,11.7-5.5c1.2,0.2,2.5,0,4,0C544,176.9,544,175.7,544,174.1z"/>
	<path class="st9" d="M623.3,1252.2c-2.8,12.4-5.6,24.8-8.5,37.3c-14.3,62.7-29.3,125.1-53.9,184.7c-4.1,9.9-9.4,19.4-13.4,29.4
		c-1.8,4.5-1.8,9.7-2.3,14.5c-2.5,21.6-12,39.4-28,54c-0.1-1.6-0.7-3.4-0.3-4.9c4.9-18.6,9.8-37.2,14.8-55.7
		c13.4-49.8,26.8-99.6,40.1-149.3c15.3-57,30.5-114,45.6-171c4.3-16,8.4-32.1,12.6-48.1c2.8-1,5.6-1.9,8.3-2.9
		c-0.5,6.1-0.7,12.2-1.5,18.3c-2.1,17.8-4.1,35.5-6.6,53.2C628.4,1225.2,625.7,1238.7,623.3,1252.2z"/>
	<path class="st10" d="M174.1,823.1c-2.1,5.6-4.3,11.1-6.1,16.8c-0.7,2.2-1.2,5.1-0.4,7.1c12.3,29.5,16.2,60.4,15.3,92.1
		c-0.6,21.6-4.1,42.9-8.5,64c-0.2,1-0.6,1.9-0.6,2.9c0,28,0.1,55.9,0.2,83.9c-0.7,1.5-1.9,2.9-1.9,4.4c-0.3,6.4-0.3,12.8-0.2,19.2
		c0.3,43.9,0.7,87.8,0.9,131.7c0,1.5-1.2,3.1-1.9,4.6c-1.3-1.1-2.6-2.1-3.8-3.3c-1.7-1.8-3.1-3.9-4.7-5.8c-0.6,0.3-1.2,0.6-1.7,0.9
		c0,3.6,0,7.2,0,10.9c-1.3-0.5-2.5-1.1-3.8-1.6c0-163.9,0-327.8,0-491.8c4.7,1.6,9.4,3.2,14.1,4.8c0,18.5-0.1,37-0.1,55.5
		C171,821.5,171.3,823.2,174.1,823.1z"/>
	<path class="st11" d="M71.9,854c2.3-11.3,3.9-22.9,7.2-33.9c2.8-9.3,1.8-18.1,0.5-27.3c-2-14.6-3.1-29.3-4.6-43.9
		c7.6-0.1,15.3-0.1,22.9-0.2c1.4,0,2.7,0.1,4.1,0.1c6.3,0.8,12.7,1.5,19,2.3c0,98.5,0,197.1,0,295.6c0,2.1-0.7,4.2-1,6.3
		c-3.3-8.8-7.3-17.5-9.8-26.5c-5.5-19.6-10.6-39.3-15.4-59.1c-4.7-19.4-6.4-39.2-6.5-59.1c-0.1-13.1,0.4-26.3,2-39.2
		c2-16.1,5.4-31.9,8.3-47.9c1-5.4,3-10.6,3.4-16c1-13.6,1.4-27.2,2.1-40.8c0.1-2.4,0-4.8,0-7.1c-7.9,0-14.8,0-22,0
		c0,2.1-0.2,3.8,0,5.4c1.5,11.5,3.2,22.9,4.5,34.4c0.6,5.5,1.2,11.3,0.2,16.6C84.1,828,80.8,842,77.8,856c-0.7,3.2-1.5,6.3-2.2,9.5
		c-0.5-0.1-1.1-0.2-1.6-0.2c0-1.9,0.3-3.9-0.1-5.7C73.6,857.7,72.6,855.8,71.9,854z"/>
	<path class="st8" d="M493.2,349.1c-0.1,19.8-0.2,39.5-0.1,59.3c0,1.7,1.6,3.8,3,5.1c1.7,1.7,4,2.9,6,4.3c-0.4,2.4-1,4.9-1,7.3
		c-0.1,37-0.1,74.1,0,111.1c0,1.9,0.6,3.9,1,5.8c-3,8.3-2.9,8.2-10.9,4.5c-5.6-2.6-11.4-5.1-17-7.6c-4.3-2.7-8.7-5.3-13-8
		c0.3-2.3,0.9-4.5,1-6.8c0.1-53.4,0-106.9,0.1-160.3c0-4.9,0.6-9.9,1-14.8c6,0,12,0,18,0C485.1,349,489.1,349,493.2,349.1z"/>
	<path class="st12" d="M71.9,854c0.7,1.9,1.7,3.7,2.1,5.6c0.4,1.8,0.1,3.8,0.1,5.7c0.5,0.1,1.1,0.2,1.6,0.2c0.7-3.2,1.5-6.3,2.2-9.5
		c3-14,6.3-28,8.8-42.2c1-5.4,0.4-11.1-0.2-16.6c-1.2-11.5-3-23-4.5-34.4c-0.2-1.6,0-3.3,0-5.4c7.2,0,14.1,0,22,0
		c0,2.3,0.1,4.7,0,7.1c-0.6,13.6-1,27.2-2.1,40.8c-0.4,5.4-2.4,10.6-3.4,16c-2.9,15.9-6.3,31.8-8.3,47.9c-1.6,13-2.1,26.1-2,39.2
		c0.2,19.9,1.8,39.7,6.5,59.1c4.8,19.8,9.9,39.5,15.4,59.1c2.6,9,6.5,17.7,9.8,26.5c7.4,16.7,14.7,33.3,22.1,50c0,0.7,0,1.3,0,2
		c-0.3,1.3-0.7,2.7-1,4c-4.8,1.1-9.6,2.2-13.6,3.2c-0.8-4.6-0.5-8.5-2.1-11.1c-17.7-27.8-30.7-57.7-39.9-89.3
		c-0.8-2.9-1.9-5.8-3.3-10.1c-1.6,3.1-2.5,4.7-3.3,6.4c-2.6-10.9-5.8-21.7-7.7-32.7c-3.9-22.7-6.1-45.7-4.9-68.8
		c0.9-17.2,3.2-34.2,4.9-51.4C71.1,854.8,71.6,854.4,71.9,854z"/>
	<path class="st13" d="M390,68.8c-4.7-1.8-7.3,0-9.6,4.4c-5.6,10.9-11.8,21.5-17.6,32.3c-0.8,1.5-0.6,3.6-0.8,5.4
		c-4.1,1.2-5.5,3.1-3.4,7.6c6.6,13.6,9.1,27.6,2.4,42.1c-2.2,4.9-3.4,10.3-5.1,15.4c-1.3,2.3-2.6,4.6-4,7
		c-5.9-8.8-13.8-13.9-24.9-13c-2.3,0.2-4.5,0.4-6.8,0.6c-2.7-16-6.1-32-7.8-48.1c-2.3-21.2-1.5-42.4,10.7-61.1
		c4-6.1,9.8-11.3,15.6-15.7c13.3-10.2,27.1-19.8,42.8-26.1c2.4-1,4.9-1.8,7.4-2.7c0.3,1.6,0.7,3.3,1,4.9c-1.3,0.9-2.7,1.8-4,2.7
		c-20.2,9.3-37.7,22.4-52.7,38.7c-6.5,7-11.2,15.1-13.4,26.2c11.9-14.7,24.8-26.1,39.2-35.8c10.4-7,21.5-12.2,33.6-15.4
		C391.8,48.5,390.9,58.7,390,68.8z"/>
	<path class="st14" d="M630,1143c-4.2,16-8.3,32.1-12.6,48.1c-15.2,57-30.4,114-45.6,171c-13.3,49.8-26.7,99.6-40.1,149.3
		c-5,18.6-10,37.1-14.8,55.7c-0.4,1.5,0.2,3.3,0.3,4.9c-0.2,4.6-0.4,9.1-0.6,13.7c-1.3,1.9-3.2,3.6-3.8,5.7
		c-4.3,15.1-8.3,30.4-12.3,45.6c-10.7,39.8-21.5,79.6-32.2,119.5c-11.2,41.9-22.3,83.9-33.7,125.8c-0.5,1.8-2.3,3.2-3.5,4.7
		c-0.7-9.7-1.4-19.3-2.1-29c1.7-3.7,3.9-7.3,4.9-11.2c8.3-30.5,16.3-61.2,24.6-91.7c10.1-37.8,20.4-75.5,30.5-113.3
		c8.2-30.6,16.3-61.2,24.5-91.7c10.1-37.8,20.4-75.5,30.5-113.3c8.2-30.6,16.3-61.2,24.5-91.7c10.1-37.8,20.3-75.5,30.5-113.3
		c7.2-26.6,14.5-53.1,21.3-79.7C621.8,1146.2,625.1,1144.1,630,1143z"/>
	<path class="st15" d="M142,1105c0-0.7,0-1.3,0-2c0.7-1.6,1.9-3.3,1.9-4.9c0.1-114.2,0.1-228.5,0.1-342.7c4.3,1.2,8.7,2.4,13,3.7
		c0,163.9,0,327.8,0,491.8c-2-1-4-2-6-2.9c-0.3-8.1-1.1-16.1-0.9-24.2c0.2-5.1-1.3-8.2-6.1-9.7c0-34.5,0-69.1-0.1-103.6
		C143.9,1108.6,142.7,1106.8,142,1105z"/>
	<path class="st9" d="M554.7,120.9c-0.9-1.8-2.1-3.5-2.6-5.5c-2.6-10.1-4.9-20.2-7.1-29.2c-15.7,2.3-30.3,4.5-45,6.7
		c0.7-8.9,1.3-17.7,2.1-26.6c1.3-14.4,2.6-28.8,3.9-43.2c5.4,0.3,10.9,0.6,17,1c-4.2-6.3-7.9-11.3-15.4-11.4c-3.2,0-6.4-1.2-9.6-1.8
		c0-1.3,0-2.6,0-3.9c19.5,3.6,39,7.3,59,11c2.3-4.6,5.1-10.1,8.2-16.3c7.1,7.7,13.6,14.9,20.2,22.1c0.3,0.4,0.6,0.8,0.9,1.2
		c7.9,9.3,7.9,9.3,2.4,20.2c-5.1,10.2-11.8,19.3-21.2,26c-1,0.7-2.2,1.8-2.5,2.9C561.5,89.8,558.1,105.4,554.7,120.9z"/>
	<path class="st8" d="M160.8,1252.4c0-3.6,0-7.2,0-10.9c0.6-0.3,1.2-0.6,1.7-0.9c1.6,1.9,3,4,4.7,5.8c1.1,1.2,2.5,2.2,3.8,3.3
		c0.7-1.5,1.9-3.1,1.9-4.6c-0.2-43.9-0.6-87.8-0.9-131.7c0-6.4,0-12.8,0.2-19.2c0.1-1.5,1.3-2.9,1.9-4.4c10,6.3,19.9,12.5,29.9,18.8
		c-0.4,7.8-0.9,15.5-1.1,23.3c-0.2,13.1-0.1,26.2-0.2,39.3c-0.3,2.6-0.8,5.2-0.8,7.8c-0.1,11.7,0.1,23.3-0.1,35
		c-0.1,6.2,0.4,12.2,3.1,17.9c-1,2.2-2.9,4.4-2.9,6.6c-0.3,16.5-0.2,33.1-0.2,49.6c-6.3-7.2-12.9-14.2-18.8-21.7
		c-4.4-5.6-10-8.9-16.4-11.4C164.6,1254.4,162.8,1253.3,160.8,1252.4z"/>
	<path class="st7" d="M351,487.9c-6.5-6.6-13.1-13.3-19.7-19.9c-17.9-18-33.8-37.6-48.8-57.9c-0.9-1.2-2-2.2-3-3.3
		c9.8-5,19.5-10.1,29.3-15.1c4.5,6.6,8.6,13.4,13.6,19.6c11.3,14.1,23.1,27.8,34.7,41.7c-0.7,1.5-2,3-2.1,4.5c-0.3,5-0.4,10,0,14.9
		c0.2,2.4,1.2,5.4,2.9,6.9c11.4,10,23,20,34.8,29.5c6.4,5.2,13.4,9.5,20.2,14.2c10,6.6,20,13.2,30.1,19.9c10.3,5.7,20.7,11.3,31,17
		c11.3,5.4,22.6,10.8,33.9,16.2c-0.6,0.3-1.1,0.9-1.7,0.9c-9,0.2-18.2,1.1-26.4-4.3c-2-1.3-4.6-1.8-6.9-2.7
		c-13.3-7.3-26.7-14.5-40-21.8c-12.7-8.3-25.3-16.6-38-25c-8.2-6.4-16.4-12.7-24.6-19.2C363.9,498.8,357.5,493.3,351,487.9z"/>
	<path class="st12" d="M320.3,170.7c2.3-0.2,4.5-0.4,6.8-0.6c11-0.9,18.9,4.1,24.9,13c3.3,6.5,4.7,13.3,4.1,20.5
		c-0.4,4.8-0.2,9.6,0,14.4c0.1,4.4,0.5,8.8,0.7,13.2c4.8,3.8,10.5,3.8,16.2,3.8c0,7-0.4,14,0.1,21c0.2,3.6,1,7.9,3.2,10.5
		c6.3,7.5,13.3,14.4,20.1,21.4c12.6,13,25.2,26,37.9,38.9c2.3,2.3,5.1,4.1,7.7,6.2c7,2.7,14,5.4,21,8.1c4.3,0.9,8.6,1.8,12.4,2.6
		c-6.8,0-14,0-21.3,0c-2.1-0.6-4.2-1.1-6.2-1.8c-5.1-1.9-10.9-2.9-15.2-6c-6.3-4.5-11.7-10.3-17.2-15.9c-12-12.4-23.9-25-35.7-37.6
		c-4.1-4.3-7.8-9-14.7-5.3c-1.7-2.2-3.1-4.8-5.2-6.4c-5.1-4-6.7-8.9-6.2-15.2c0.5-5.6,0.1-11.2,0.1-17.4c-4.1,1.9-7.3,4-10.9,4.8
		c-9.2,2.2-16.5-1.9-19.6-11.6c-3.1-9.6-5.3-19.5-7.3-29.3c-1-5.1-0.8-10.5-1.2-15.8C314.5,180.2,316.1,175,320.3,170.7z"/>
	<path class="st16" d="M639.8,1107.9c-0.6-29.1-0.8-58.2-1.9-87.3c-1.2-30.9-4.4-61.7-3.8-92.8c0.7-45.1,0.3-90.3,0.1-135.5
		c0-5.5,0.6-10.4,3.8-15.1c2.2-3.3,3.9-6.9,5.8-10.4c0.8,2.1,2.2,4.1,2.2,6.2c0.1,150.2,0.1,300.5,0.1,450.7c0,2.4,0.7,4.9,1,7.3
		c-1.3,1.7-2.6,3.3-3.9,5c-0.7-1.8-2.1-3.5-2.1-5.3c-0.1-30.1-0.1-60.2-0.2-90.3c0-1.8-1.1-3.7-1.8-5.5
		C639.4,1126,639.6,1117,639.8,1107.9z"/>
	<path class="st17" d="M327.5,799.9c0.2-3.4,0.2-6.9,0.6-10.3c0.2-1.3,1.4-2.5,2.1-3.7c2.9,3.3,7.2,6.1,8.6,9.9
		c12.4,33.9,22.3,68.5,29.1,104c4.6,24.1,8.4,48.3,11.7,72.6c1.3,9.6,3.2,19.3-0.5,29.4c-8.3,22.8-15.6,46-23.1,69
		c-0.5,1.6-0.3,4.7,0.8,5.4c8,5.4,16.3,10.3,24.7,15.5c0.9-2.6,1.7-4.7,2.4-6.9c0.7,1.6,1.9,3.1,1.9,4.7c0.1,2.7-0.3,5.5-0.8,8.3
		c-0.5,2.5-1.4,4.9-2,7.3c-5.8-2.5-11.6-4.8-17.3-7.4c-9.5-4.3-18.9-8.8-28.4-13.1c9.3-26.6,18.4-53.2,28.1-79.7
		c2.7-7.4,2.1-14.6,1.8-22c-1.5-40.8-6.2-81.2-17.6-120.4C343.4,841.4,334.9,820.8,327.5,799.9z"/>
	<path class="st5" d="M337.2,1084.7c9.5,4.4,18.9,8.8,28.4,13.1c5.7,2.6,11.5,5,17.3,7.4c4.7,1.9,9.4,3.8,14.1,5.7c1,0.3,2,0.6,3,1
		l0,0c3.8,1.7,7.4,3.5,11.3,4.9c23.9,8.7,48.1,16.5,73.2,20.6c16,2.6,32.3,3.2,48.4,4.7c-0.9,1.7-1.7,3.5-2.7,5.2
		c-2.8,4.8-5.6,9.5-8.4,14.3c-0.6,0.1-1.2,0.2-1.8,0.2c-0.8-0.3-1.5-0.6-2.3-0.7c-8.1-1.1-16.3-2-24.4-3.1
		c-6.5-0.9-12.9-1.9-19.4-2.8c-4.3-1.2-8.6-2.5-12.9-3.6c-14-3.6-28-7.2-41.9-10.8c-19.7-7.6-39.4-15.1-59.2-22.7
		c-2.3-1.1-4.6-2.3-7-3.4c-7.4-3.5-14.8-7.1-22.2-10.6C333,1097.6,335.1,1091.1,337.2,1084.7z"/>
	<path class="st11" d="M365.2,277.1c6.9-3.7,10.6,0.9,14.7,5.3c11.8,12.6,23.7,25.2,35.7,37.6c5.4,5.6,10.9,11.4,17.2,15.9
		c4.3,3.1,10,4.1,15.2,6c2,0.7,4.1,1.2,6.2,1.8c-0.4,1.1-0.8,2.2-1.2,3.3c-10-3.2-21.1-3.7-28.9-12c-5.7-5.7-11.3-11.3-17-17
		c-1.2-1.6-2.1-3.5-3.5-4.8c-9.2-9-18.5-18-27.8-26.9c-1.3-1.2-2.7-2.3-5-4.4c-2.7,8.1-1.8,15.1-0.7,22.2c-0.7,5.7-1.2,11.5-2,17.2
		c-2.4,18.2-4.8,36.3-7.1,54.5c-0.6,4.5-2.7,7.2-6.8,9.3c-7,3.6-13.7,8.1-20.5,12.1c-2.3,1.4-2.9,2.9-1.3,5.3
		c3.9,5.7,7.7,11.5,11.8,17.6c1.5-1,2.9-1.9,4.2-2.8c7.3-5.4,14.5-10.9,21.7-16.3c0,21.3,0,42.5,0,63.8c-4.3-3.9-8.5-7.9-12.8-11.8
		c-11.6-13.9-23.3-27.6-34.7-41.7c-5-6.2-9.1-13.1-13.6-19.6c11.1-5.9,22.1-12.1,33.4-17.7c4.8-2.4,6.8-5.5,7.7-10.8
		c4.5-26.6,9.4-53.2,14.2-79.7C364.7,281.4,364.9,279.2,365.2,277.1z"/>
	<path class="st18" d="M163.9,1697c-0.8-17.8,1.9-35.1,6.1-52.2c6.2-25.4,16.9-48.9,30.7-71c17.8-28.3,30.1-59.2,39.8-91
		c8.9-29.3,16.4-59.1,24.5-88.7c2.6-0.7,5.3-1.3,7.9-2c0,1-0.1,2-0.1,3c-0.3,0.7-0.6,1.3-0.9,2c0,1,0.1,2-0.2,3
		c-3.5,15.1-7,30.3-10.7,45.4c-9.5,38.4-22.3,75.7-36.6,112.6c-1.7,4.5-3.4,9.2-6.2,13c-9.3,12.7-16.8,26.3-22.3,41
		c-4.9,13.1-9.3,26.3-13.5,39.6c-2.3,7.3-3.8,14.9-5.5,22.4c-1.7,7.4-3.3,14.7-5,22.1c-1.1-0.6-2.3-1.1-3.1-1.5
		C167.1,1695.4,165.5,1696.2,163.9,1697z"/>
	<path class="st11" d="M78.8,1008.1c0.9-1.7,1.7-3.3,3.3-6.4c1.4,4.3,2.4,7.2,3.3,10.1c9.2,31.6,22.2,61.5,39.9,89.3
		c1.7,2.6,1.3,6.5,2.1,11.1c4-0.9,8.8-2.1,13.6-3.2c-1,7.2-1.9,14.4-3,21.5c-2.5,16.4-5.3,32.9-7.8,49.3
		c-2.3,14.8-5.3,29.6-4.3,44.8c0.2,3.1,0,6.3,0,9.5c-2.7-1.8-5.3-3.5-8-5.3c0-9.8,0-19.6,0-29.8c-1.4-0.6-3.2-1.4-5-2.2
		c-1.4-0.9-2.7-1.9-5.1-3.5c0,10.8,0,20.3,0,29.8c-4.6-1-5.7-3.9-6.1-8.6c-1.8-24.3,4.8-47.4,9.7-70.7c2.4-11.4,5-22.7,7.1-34.1
		c0.5-2.7-0.2-6-1.5-8.4c-15.8-28.8-29.2-58.5-37.7-90.4C79.2,1010.1,79,1009.1,78.8,1008.1z"/>
	<path class="st19" d="M202.9,1171.2c0-13.1,0-26.2,0.2-39.3c0.1-7.8,0.7-15.5,1.1-23.3c9.2,5.9,18.4,11.7,27.4,17.8
		c1.3,0.9,2.4,3.2,2.4,4.9c0.1,30.1,0.1,60.2,0,90.4c0,1.7-1,3.3-1.6,4.9c-1.6-0.6-3.5-1-4.9-2c-13.6-9.7-19.5-23.9-22.6-39.6
		C204,1180.5,203.5,1175.8,202.9,1171.2z"/>
	<path class="st3" d="M539,440.9c0.3,10.4,1.1,20.9,0.9,31.3c-0.5,27.6-5.9,54.3-17.7,79.4c-1.3,2.7-2.2,5.5-3.3,8.3
		c-2.3,3.7-4.6,7.3-7,11c-1-1.6-2.8-3.2-2.9-4.8c-0.3-9.2-0.1-18.3-0.2-27.5c0-2.1-0.8-4.2-1.2-6.3c0.3-1.3,0.4-2.6,0.9-3.8
		c7.9-21.5,10.6-43.9,11.1-66.5c0.3-11.3-0.5-22.6-0.8-33.9C525.6,432.4,532.3,436.7,539,440.9z"/>
	<path class="st15" d="M647.1,1231.1c-0.4-2.4-1-4.9-1-7.3c0-150.2,0-300.5-0.1-450.7c0-2.1-1.4-4.1-2.2-6.2
		c2.7-5.9,5.3-11.9,8-17.8c0.4,9,0.8,18,1.2,26.9c-0.6,1.6-1.9,3.3-1.9,4.9c-0.1,146.4-0.1,292.8,0,439.2c0,1.7,0.8,3.4,1.2,5.1
		C650.6,1227.2,648.8,1229.2,647.1,1231.1z"/>
	<path class="st10" d="M652.3,1225.2c-0.4-1.7-1.2-3.4-1.2-5.1c-0.1-146.4-0.1-292.8,0-439.2c0-1.6,1.2-3.3,1.9-4.9
		c1,12.1,2.1,24.2,3.1,36.3c1.1,13.5,2.2,27.1,3.4,40.6c-4.5-0.2-3.3,3.2-3.3,5.6c0,75.3,0,150.7,0,226c0,1.2-0.3,2.5,0.2,3.4
		c0.5,0.9,1.8,1.3,2.8,2c0.1,3,0.2,6,0.2,8.9c-3.7-0.2-3.2,2.5-3.2,4.8c0,14.5,0,28.9,0,43.4c0,21.5,0,42.9,0,64.4
		c0,2.5-0.5,5.2,3.2,5.6C656.9,1219.8,654.6,1222.5,652.3,1225.2z"/>
	<path class="st8" d="M658.9,1090c-1-0.6-2.3-1.1-2.8-2c-0.5-0.9-0.2-2.3-0.2-3.4c0-75.3,0-150.7,0-226c0-2.4-1.2-5.8,3.3-5.6
		c0.6,4.1,1.2,8.1,1.6,12.2c1.8,16.7,2.8,33.5,5.4,50c3.9,25.3,3.1,50.6,2.3,75.9c-0.8,25-3.6,50-5.9,74.9
		C662.1,1074,660.3,1082,658.9,1090z"/>
	<path class="st20" d="M330.8,1104c7.4,3.5,14.8,7.1,22.2,10.6c2.3,1.1,4.6,2.3,7,3.4c-0.5,1.9-1,3.8-1.3,5.7
		c-0.6,3.1-1.1,6.2-1.7,9.3c-5.5-3.8-11.1-7.6-17-11.6c-2.3,5.1-4.2,9.5-6.1,13.9c-11.7,26.5-21.4,53.7-29,81.6
		c-2.5,9.1-5.2,18.1-7.8,27.1c-0.1-2.2-0.2-4.4-0.3-6.5c-0.1-2.3,2-5.3-1.9-6.5c2.3-20.6,4-41.1,11.8-60.8
		c8.1-20.5,14.9-41.5,22.3-62.3C329.4,1106.5,330.2,1105.3,330.8,1104z"/>
	<path class="st21" d="M107,2072.5c-4.5,0.2-9,0.3-13.6,0.5c12.1-38.4,20.9-77.7,28.9-117.1c2.8-13.9,5.5-27.9,8.3-41.9
		c1.8-2,3.4-4.2,5.4-5.9c1.3-1.1,3.2-1.5,4.8-2.2c-0.1,1-0.2,2-0.2,3c-0.2,0.7-0.5,1.3-0.7,2c-0.1,1-0.2,2-0.3,3
		c-0.2,0.7-0.4,1.3-0.7,2c-1.8,10.3-3.6,20.7-5.4,31c-0.2,0.7-0.4,1.3-0.7,2c-1.9,10.8-3.9,21.6-5.8,32.3
		c-2.2,12.2-4.5,24.4-6.7,36.7c-2.5,13.7-4.9,27.4-7.4,41.1C111,2063.5,109,2068,107,2072.5z"/>
	<path class="st19" d="M518.9,428.2c0.3,11.3,1.1,22.6,0.8,33.9c-0.5,22.7-3.2,45.1-11.1,66.5c-0.5,1.2-0.6,2.6-0.9,3.8
		c-1.9,3.2-3.8,6.4-5.7,9.5c-0.3-1.9-1-3.9-1-5.8c-0.1-37-0.1-74.1,0-111.1c0-2.4,0.7-4.9,1-7.3
		C507.7,421.2,513.3,424.7,518.9,428.2z"/>
	<path class="st22" d="M221,703.1c7-17.7,14-35.5,21-53.2c4-10,8-20,13-29.7c-1.2,4.6-2.8,9.1-3.4,13.8c-1.8,13.1-4.6,26.3-4.3,39.4
		c0.6,28.2,10.4,53.4,28,75.6c0.9,1.2,1.1,2.9,1.6,4.4c-11.4-10.4-22.8-20.8-34.3-31.2C235.5,715.7,228.2,709.5,221,703.1z"/>
	<path class="st19" d="M201.9,1288.2c0-16.5,0-33.1,0.2-49.6c0-2.2,1.9-4.4,2.9-6.6c5.9,12.6,11.8,25.1,17.9,37.7
		c1.6,3.4,3.5,6.8,5.5,10c6.3,10.1,6.4,20.2,0.8,30.6c-2.6,4.8-4,5.1-7.5,1C215,1303.6,208.5,1295.9,201.9,1288.2z"/>
	<path class="st23" d="M140.9,1906c-1.6,0.7-3.5,1.1-4.8,2.2c-2,1.7-3.7,3.9-5.4,5.9c2.5-15.2,5-30.3,7.4-45.5
		c3.7-22.9,7.3-45.8,11-68.7c0.1-0.6,0.5-1.2,0.7-1.8c1.6-1.3,3.1-2.6,4.7-3.8c1.7-1.2,3.6-2.2,5.4-3.3c-0.1,3.3-0.2,6.6-0.3,10
		c-0.2,1-0.5,2-0.7,3c-0.4,5-0.8,10-1.3,15c-0.2,0.7-0.5,1.3-0.7,2c0,0.8,0.1,1.7-0.1,2.5c-3.3,18-6.6,36.1-10.1,54.1
		C145,1887,142.9,1896.5,140.9,1906z"/>
	<path class="st10" d="M493.2,349.1c-4.1,0-8.1,0-12.2-0.1c1.3-10.4-0.1-20.8,0-31.2c0.1-10.6,0-21.2,0-31.8c3.7,1.8,7.5,3.4,11,5.5
		c3,1.7,5.5,1.8,8-0.5c0.3,16.6,0.7,33.3,1,49.9c-1.4,0.8-2.8,1.5-4.2,2.3c0.1,0.2,0.1,0.4,0.2,0.6c3.3-0.3,6.7-0.6,10-0.9
		c0.3,0.9,0.7,1.9,1,2.8C503.1,346.9,498.2,348,493.2,349.1z"/>
	<path class="st16" d="M125.9,1234.1c0-3.2,0.2-6.3,0-9.5c-1-15.2,2-30,4.3-44.8c2.5-16.5,5.2-32.9,7.8-49.3c1.1-7.2,2-14.4,3-21.5
		c0.3-1.3,0.7-2.7,1-4c0.7,1.8,1.9,3.6,1.9,5.4c0.1,34.5,0.1,69.1,0.1,103.6c-3.1-1.7-6.1-3.3-9.2-5c-1.3-0.7-2.6-1.4-5.2-2.7
		c0.5,11.2,0.9,21.1,1.4,30.9C129.3,1236.1,127.6,1235.1,125.9,1234.1z"/>
	<path class="st7" d="M102,748.8c-1.4,0-2.7-0.1-4.1-0.1c-7.7-0.2-15.3-0.4-23-0.6c-0.6-10.3-1.3-20.6-1.9-30.9c11,1,22,2,33,3.1
		c0.3,0.3,0.7,0.5,1,0.8c0.3,0,0.6,0,1,0c-0.3,2.4-0.4,4.9-0.9,7.3C105.4,735.2,103.7,742,102,748.8z"/>
	<path class="st11" d="M639.2,1135c0.6,1.8,1.8,3.7,1.8,5.5c0.1,30.1,0,60.2,0.2,90.3c0,1.8,1.4,3.5,2.1,5.3
		c-6.6,5.4-13.2,10.7-19.8,16.1c2.3-13.5,5-27,6.9-40.6c2.5-17.7,4.5-35.5,6.6-53.2c0.7-6.1,1-12.2,1.5-18.3
		C638.6,1138.4,638.9,1136.7,639.2,1135z"/>
	<path class="st8" d="M659.2,1217.1c-3.7-0.4-3.2-3.2-3.2-5.6c0-21.5,0-42.9,0-64.4c0-14.5,0-28.9,0-43.4c0-2.3-0.5-5,3.2-4.8
		c2,13,4.1,26,6.1,38.9c-0.8,1.2-2.2,2.5-2.2,3.7c-0.1,20.6-0.1,41.2,0,61.9c0,1.2,1.7,2.4,2.7,3.5
		C663.6,1210.3,661.4,1213.7,659.2,1217.1z"/>
	<path class="st13" d="M159.9,1791c-1.8,1.1-3.7,2.1-5.4,3.3c-1.7,1.1-3.2,2.5-4.7,3.8c1.8-12.8,3.6-25.6,5.4-38.4
		c2.9-20.9,5.8-41.8,8.8-62.6c1.6-0.8,3.2-1.6,5-2.5c0.8,0.4,2,1,3.1,1.5c0,1-0.1,2-0.1,3c-0.3,0.7-0.5,1.4-0.8,2.1
		c-0.7,4.4-1.5,8.8-2,13.2c-2.4,21.2-4.8,42.4-7.2,63.7C161.3,1782.3,160.6,1786.6,159.9,1791z"/>
	<path class="st24" d="M294.8,1231c3.8,1.3,1.7,4.2,1.9,6.5c0.1,2.2,0.2,4.4,0.3,6.5c-0.7,3.2-1.4,6.4-2,9.6
		c-3.1,18.9-6.3,37.8-9.1,56.8c-2.8,19-5.2,38-8,57c-1.2,8.3-3.3,16.4-4.9,24.6c-2.6,0.7-5.3,1.3-7.9,2
		c5.7-28.8,11.9-57.5,17.1-86.4c4.4-24.2,7.8-48.5,11.7-72.8C294.1,1233.5,294.5,1232.2,294.8,1231z"/>
	<path class="st8" d="M174.1,823.1c-2.8,0.2-3.2-1.5-3.2-3.8c0.1-18.5,0.1-37,0.1-55.5c0.9,0.1,1.9,0.2,2.8,0.4
		c6.5,3,13,5.9,19.6,8.9c-4.3,10.8-8.6,21.6-12.9,32.4c-1.6,4.1-3.2,8.3-4.7,12.5c-0.3,1-0.6,2-1,3
		C174.6,821.7,174.4,822.4,174.1,823.1z"/>
	<path class="st19" d="M665.8,1207c-0.9-1.2-2.7-2.4-2.7-3.5c-0.2-20.6-0.2-41.2,0-61.9c0-1.2,1.4-2.5,2.2-3.7
		c0.5,3.7,1.1,7.4,1.6,11.2c0.2,0.7,0.5,1.3,0.7,2c0.8,7.2,1.5,14.4,2.5,21.5c0.7,4.8,2.4,9.5,2.9,14.4c0.3,3.2-0.3,6.8-1.5,9.8
		C670.1,1200.4,667.7,1203.6,665.8,1207z"/>
	<path class="st11" d="M134.8,1209c3.1,1.7,6.1,3.3,9.2,5c4.8,1.5,6.3,4.6,6.1,9.7c-0.3,8,0.5,16.1,0.9,24.2c-3-1.3-6-2.6-9-4
		c-0.1-0.8-0.2-1.6-0.4-2.5C139.4,1230.6,137.1,1219.8,134.8,1209z"/>
	<path class="st25" d="M498,7.1c0,1.3,0,2.6,0,3.9c-8.9-0.7-17.8-1.9-26.8-1.8c-13.1,0.1-26.1,1-39.2,1.6c0-1.5,0-3,0-4.5
		C454.1,3.6,476.1,3.7,498,7.1z"/>
	<path class="st8" d="M134.8,1209c2.3,10.8,4.6,21.6,6.8,32.4c0.2,0.8,0.2,1.6,0.4,2.5c-3.7-2.2-7.4-4.5-11.1-6.7
		c-0.4-9.8-0.9-19.6-1.4-30.9C132.2,1207.6,133.5,1208.3,134.8,1209z"/>
	<path class="st23" d="M432,6.3c0,1.5,0,3,0,4.5c-14,3.7-28,7.5-42,11.2c-0.3-1.6-0.7-3.3-1-4.9C402.8,11.2,417.2,7.9,432,6.3z"/>
	<path class="st19" d="M113,1196.9c1.8,0.8,3.6,1.6,5,2.2c0,10.2,0,20,0,29.8c-1.7-0.9-3.4-1.7-5.2-2.6
		C112.9,1216.5,112.9,1206.7,113,1196.9z"/>
	<path class="st15" d="M113,1196.9c0,9.8-0.1,19.6-0.1,29.4c-1.6-1-3.3-2-4.9-3.1c0-9.5,0-19,0-29.8
		C110.3,1195,111.6,1195.9,113,1196.9z"/>
	<path class="st4" d="M74.9,748.1c7.7,0.2,15.3,0.4,23,0.6c-7.6,0.1-15.3,0.1-22.9,0.2C74.7,748.7,74.7,748.4,74.9,748.1z"/>
	<path class="st10" d="M174.9,821c0.3-1,0.6-2,1-3C175.5,819,175.2,820,174.9,821z"/>
	<path class="st8" d="M667.6,1151c-0.2-0.7-0.5-1.3-0.7-2C667.1,1149.7,667.3,1150.4,667.6,1151z"/>
	<path class="st22" d="M277.6,754.1c0.4,0.4,0.9,0.8,1.3,1.2C278.5,754.9,278.1,754.5,277.6,754.1z"/>
	<path class="st22" d="M279.8,756c0.4,0.4,0.8,0.8,1.1,1.1C280.6,756.8,280.2,756.4,279.8,756z"/>
	<path class="st22" d="M278.8,755.1c0.4,0.4,0.8,0.7,1.2,1.1C279.6,755.8,279.2,755.5,278.8,755.1z"/>
	<path class="st13" d="M474,1155.1c6.5,1,12.9,2,19.4,2.8c8.1,1.1,16.3,2,24.4,3.1c0.8,0.1,1.5,0.5,2.3,0.7
		c-12.1,18.3-24.9,36.1-36.1,54.9c-12,20.1-22.6,41-33.5,61.7c-4.1,7.7-7.6,15.8-11.3,23.7c-2.3,6.8-4.7,13.6-7.1,20.4
		c-0.3,0.9-1,1.8-1.5,2.7c-2.3,2.8-5,5.4-6.7,8.5c-16.4,28.5-32.6,57.1-48.9,85.6c-21.2,37-42.7,73.9-63.9,110.9
		c-19.1,33.3-38,66.6-57,99.9c-18.3,32-36.6,64-55,95.9c-1.9,3.3-4.7,6-7,9c1.3-8.7,2.5-17.4,4-26c6.4-35.3,15.8-69.8,29.6-103
		c6.9-16.5,14.7-32.7,21.9-49.1c3.9-8.9,7.6-18,11.4-27c1.8-2.2,3.8-4.3,5.2-6.7c11.6-20.2,23-40.4,34.6-60.6
		c10.6-18.6,21.3-37.2,32-55.7c11.2-19.4,22.4-38.9,33.5-58.3c9.8-17.2,19.5-34.4,29.4-51.5c12.3-21.5,24.7-42.9,37.1-64.3
		c11.3-19.6,22.6-39.1,33.7-58.8C467.8,1167.9,470.8,1161.4,474,1155.1z"/>
	<path class="st23" d="M191.9,1735c2.4-3,5.1-5.7,7-9c18.4-31.9,36.7-63.9,55-95.9c19-33.3,37.9-66.7,57-99.9
		c21.2-37,42.6-73.9,63.9-110.9c16.4-28.5,32.5-57.1,48.9-85.6c1.8-3.1,4.5-5.7,6.7-8.5c-3.6,12.4-7.8,24.6-10.8,37.1
		c-9.7,41.8-27,80.8-42.6,120.4c-12.2,31.2-27.8,60.5-47.7,87.5c-1.5,2-2.9,4.2-4.7,5.8c-5.7,4.9-6.8,11.1-7,18.3
		c-0.3,10.3-1.5,20.5-2.3,30.8c-3.8-0.8-4.9,2.3-6.3,4.6c-13.3,23-26.5,46.1-39.6,69.1c-13.7,23.9-27.3,47.9-41,71.8
		c-14,24.5-28.1,49-42.2,73.4c-2.6,4.5-5.6,8.7-8.5,13c0.2-1.6,0.2-3.3,0.5-4.9c1.4-7.8,3.6-15.5,4.3-23.4c2-22.6,3.3-45.2,5.3-67.8
		C188.8,1752.2,190.6,1743.6,191.9,1735z"/>
	<path class="st25" d="M107,2072.5c2-4.5,4-9,6-13.5c7.3,0,14.6-0.3,21.9,0.1c4.1,0.2,5.4-1.5,6-5.2c3.8-21,7.7-42,11.6-63
		c3.5-19,7.2-37.9,10.7-56.9c1.5-1.2,3.4-2.1,4.4-3.6c2.3-3.4,4.3-7.1,6.4-10.7c20.3-35.6,40.6-71.2,60.9-106.7
		c19.6-34.3,39.2-68.5,58.9-102.7c2.7-4.6,6-8.9,9-13.3l0.5,0l0.5-0.1c-0.4,2.3-0.8,4.6-1.3,6.9c-0.2,0.7-0.5,1.4-0.7,2.1
		c-0.1,0.6-0.1,1.3-0.2,1.9c-0.2,0.7-0.5,1.4-0.7,2.1c-1.1,4.6-2.2,9.3-3.3,13.9c-0.3,0.7-0.5,1.4-0.8,2.1
		c-8,24.3-16.1,48.5-24,72.9c-3.6,11-6.8,22.1-10.2,33.1c-0.2,0.7-0.5,1.4-0.7,2.1c-0.4,2.3-0.8,4.6-1.2,6.9
		c-0.2,0.7-0.5,1.4-0.7,2.1c-0.1,1-0.2,1.9-0.3,2.9c-0.2,0.7-0.5,1.4-0.7,2.1c-0.1,1-0.2,1.9-0.3,2.9c-0.2,0.7-0.5,1.4-0.7,2.1
		c-0.1,1-0.2,1.9-0.3,2.9c-0.2,0.7-0.5,1.4-0.7,2.1c-0.4,3-0.9,5.9-1.3,8.9c-0.2,0.7-0.5,1.4-0.7,2.1c-0.4,3-0.8,6-1.3,8.9
		c-0.2,0.7-0.4,1.4-0.7,2.1c-0.1,1.3-0.2,2.6-0.3,3.9c-0.2,0.7-0.4,1.4-0.7,2.1c-0.5,3.6-0.9,7.3-1.4,10.9c-0.2,0.7-0.4,1.4-0.6,2.1
		c-0.2,1.6-0.3,3.3-0.5,4.9c-0.2,0.7-0.4,1.4-0.5,2.1c-0.2,1.6-0.3,3.3-0.5,4.9c-0.2,0.7-0.4,1.4-0.5,2.1c-0.1,1.6-0.2,3.3-0.4,4.9
		c-0.4,0.1-0.9,0.1-1.3,0.2c-1,0.7-2.3,1.3-2.9,2.2c-1.8,2.8-3.3,5.7-5,8.6c-12.3,21.4-24.7,42.8-37,64.2c-12.7,22-25.4,44-37.9,66
		c-3.2,5.6-5.8,11.5-8.7,17.2c-1.6-0.1-3.2-0.2-4.9-0.4C135.7,2074.9,121.3,2073.7,107,2072.5z"/>
	<path class="st20" d="M392.1,2092.9c9.9,4,19.9,3.9,30,1.3c1.2,0.9,2.3,2.1,3.7,2.6c23.5,7.2,47.1,14.2,70.6,21.4
		c15.4,4.7,30.8,9.6,46,14.8c13,4.5,25.7,10,38.8,14.2c21.3,6.8,43.2,10.4,65.7,9.7c13.7-1.7,27.4-3.4,41.1-5.1
		c1.3-0.2,2.6-0.4,3.8-0.5c0,8.5,0,17.1,0,25.6c-27.8,12.4-56.8,18-87.3,15.5c-15.6-1.3-30.9-4.2-45.7-9.3
		c-4.3-1.5-8.6-3.5-12.4-6.1c-38-26.7-80-43.6-125.8-51c-9.5-1.5-19-2.7-28.7-4.1C392.1,2112.2,392.1,2102.5,392.1,2092.9z"/>
	<path class="st20" d="M4.1,2200.1c12.1,7.3,24.1,14.8,38,18c8.5,1.9,17.3,2.6,25.9,3.8c19.7,0,37-7.1,52.9-18.2
		c13.5-9.4,24.1-21.7,35.1-33.9c18.2-20.1,37.2-39.5,55.8-59.3c3-3.2,5.5-6.9,8.2-10.4c5.3,2.6,10.6,5.2,15.9,7.8
		c0,9.3-0.1,18.6,0.2,27.9c0.1,3.2-1,5-3.8,6.7c-24.3,14.7-45.5,32.9-61.7,56.5c-3.7,5.3-7.6,10.7-10.1,16.6
		c-5.9,14-16.8,22.9-29.1,30.4c-14.1,8.7-29.6,12.7-46.3,13.1c-20.3,0.5-39.6-3.4-58.5-10.2c-6.5-2.3-12.9-5.1-19.1-8.1
		c-1.5-0.7-3.1-3.1-3.1-4.8C3.9,2224.1,4,2212.1,4.1,2200.1z"/>
	<path class="st20" d="M439,1302.1c3.8-7.9,7.2-16,11.3-23.7c11-20.7,21.5-41.6,33.5-61.7c11.2-18.8,24-36.6,36.1-54.9
		c0.6-0.1,1.2-0.2,1.8-0.2c2.7,0.2,5.4,0.4,8.1,0.5c-6,22.1-12,44.1-17.8,66.2c-9.1,34.4-18.2,68.9-27.3,103.3
		c-0.2,0.6-1.2,0.9-1.8,1.4c0-2.2,0-4.3,0-6.5c0-20.2,0-40.5-0.1-60.7c0-1.3-0.8-2.5-1.4-4.3c-1.7,1.5-2.8,2.2-3.6,3.2
		c-6.1,7.9-12.3,15.6-18,23.8c-1.7,2.3-2.8,5.6-2.8,8.5c-0.1,9.1,0.8,18.2,0.8,27.3c0,10.1-0.6,20.2-0.9,30.3
		c-0.4,12.1-0.6,24.2-1,36.3c-0.2,5.1-0.5,10.3-1.1,15.4c-1.9,17.7-3.7,35.5-5.9,53.2c-1.8,14.7-3.9,29.5-6.4,44.1
		c-2.5,14.8-5.6,29.6-8.6,44.3c-1.1,5.4-2,11.3-4.7,16c-2.9,5-7.9,8.9-11.9,13.3c-12.7,14.3-22.9,30-29.5,48.1
		c-4.8,13.1-8.9,26.4-8.8,40.6c0.1,11.2,0.3,22.4,1,33.6c0.4,6.9,2,13.7,3,20.6c-1.3,1.3-2.9,2.5-3.9,4c-1.5,2.2-2.5,4.8-3.7,7.1
		c-7.2-30.5-10.6-61.2-4.7-92.4c3.4-18.1,12-33.2,24.4-46.6c7.9-8.6,15.1-17.8,22.5-26.8c1.5-1.9,2.7-4.2,3.3-6.5
		c8.5-32.7,14.1-66,16.9-99.6c2.3-27.5,4.4-55.1,5.1-82.6c0.7-23.7-0.7-47.5-1.2-71.3C441.6,1303.8,442.4,1301.1,439,1302.1z"/>
	<path class="st21" d="M302.9,1697c-3,4.4-6.3,8.7-9,13.3c-19.7,34.2-39.3,68.4-58.9,102.7c-20.3,35.6-40.6,71.2-60.9,106.7
		c-2.1,3.6-4,7.3-6.4,10.7c-1,1.5-2.9,2.4-4.4,3.6c0.9-5,1.7-10.1,2.7-15.1c4-20.6,8-41.3,12-61.9c2.8-4.3,5.9-8.5,8.5-13
		c14.1-24.4,28.2-48.9,42.2-73.4c13.7-23.9,27.3-47.9,41-71.8c13.2-23.1,26.4-46.1,39.6-69.1c1.3-2.3,2.5-5.3,6.3-4.6
		c-0.9,7.4-1.7,14.7-2.7,22.1c-0.4,3.3-1.1,6.6-1.7,9.8c-0.1,0.7-0.2,1.3-0.3,2c-0.1,1.3-0.2,2.6-0.3,3.9c-0.2,0.7-0.4,1.4-0.7,2.1
		c-0.1,1.3-0.2,2.6-0.3,3.9c-0.2,0.7-0.4,1.4-0.7,2.1c-0.2,1.3-0.3,2.6-0.5,3.9c-0.2,0.7-0.4,1.4-0.6,2.1c-0.1,1-0.2,2-0.2,3
		c-0.2,0.7-0.5,1.4-0.7,2.1c-0.4,2.6-0.9,5.3-1.3,7.9c-0.2,0.7-0.5,1.4-0.7,2.1c-0.1,1-0.2,2-0.3,2.9
		C304,1695.6,303.4,1696.3,302.9,1697z"/>
	<path class="st14" d="M154.8,2076.4c2.9-5.7,5.5-11.6,8.7-17.2c12.5-22.1,25.2-44,37.9-66c12.3-21.4,24.7-42.8,37-64.2
		c1.7-2.9,3.2-5.8,5-8.6c0.6-1,1.9-1.5,2.9-2.2c0.2,0.6,0.5,1.3,0.7,1.9c-0.2,2-0.3,3.9-0.5,5.9c-0.2,0.7-0.3,1.4-0.5,2.1
		c-0.2,2-0.3,3.9-0.5,5.9c-0.2,0.7-0.3,1.4-0.5,2.1c-0.1,2-0.2,3.9-0.3,5.9c-0.2,1-0.5,2.1-0.7,3.1c-0.2,2.3-0.4,4.6-0.7,6.8
		c-0.1,0.7-0.2,1.4-0.3,2.2c-0.2,2.3-0.4,4.6-0.6,6.8c-0.1,0.7-0.2,1.4-0.4,2.2c-0.2,2.6-0.4,5.2-0.6,7.8c-0.2,1-0.3,2.1-0.5,3.1
		c-0.4,4-0.8,8-1.2,12c-1.7,1.6-3.9,2.9-5,4.8c-6.1,10.2-12,20.6-17.9,30.9c-10.8,18.8-21.6,37.6-32.3,56.4c-0.9,1.6-1,3.8-1.5,5.7
		C173.6,2081.4,164.2,2078.9,154.8,2076.4z"/>
	<path class="st9" d="M183,2083.8c0.5-1.9,0.6-4,1.5-5.7c10.7-18.9,21.5-37.6,32.3-56.4c5.9-10.3,11.8-20.7,17.9-30.9
		c1.1-1.9,3.3-3.2,5-4.8c-0.1,2.3-0.1,4.6-0.2,6.8c-0.2,1-0.4,2.1-0.6,3.1c-0.2,3.3-0.3,6.6-0.5,9.8c-0.2,1.1-0.3,2.1-0.5,3.2
		c-0.1,3.6-0.3,7.2-0.4,10.9c-0.2,1.4-0.4,2.8-0.6,4.1c-0.2,4.6-0.4,9.2-0.6,13.8c-0.1,1.7-0.2,3.5-0.4,5.2
		c-0.2,7.6-0.5,15.2-0.7,22.8c-0.4,1.4-1,2.7-1,4.1c-0.1,7.7-0.1,15.5,0,23.2c0,1.4,0.7,2.7,1,4.1c0.2,3.6,0.3,7.1,0.5,10.7
		c-5.3-2.6-10.6-5.2-15.9-7.8C207.6,2094.7,195.3,2089.2,183,2083.8z"/>
	<path class="st14" d="M411.9,2033c-0.3-1.7-0.8-3.5-0.8-5.2c-0.1-12.8,0-25.6-0.1-38.4c0-1.6-0.2-3.1-0.3-4.7
		c-0.5-0.1-1-0.2-1.5-0.3c-1.1,3.6-2,7.3-3.3,10.8c-1.5,4-3.3,7.9-4.9,11.8c0.3-18.7,0.6-37.3,0.9-56c1-1.5,2.3-2.9,3-4.6
		c1-2.3,1.6-4.8,2.4-7.4c1.5,1,2.3,1.5,3.2,2c0.1,4.7,0.3,9.3,0.4,14c0.2,2,0.3,4,0.5,6c0.5,20.1,1,40.1,1.3,60.2
		C412.7,2025.2,412.2,2029.1,411.9,2033z"/>
	<path class="st24" d="M375.3,1731.2c1.2-2.4,2.3-4.9,3.7-7.1c1-1.5,2.6-2.7,3.9-4c6.4,16.9,6.5,35,9.9,52.5
		c1.3,6.8,2,13.7,2.9,20.6c-1.9,1-3.9,1.9-5.8,2.9c-2.4-11.5-4.6-23-7.2-34.5C380.6,1751.3,377.9,1741.3,375.3,1731.2z"/>
	<path class="st25" d="M410.5,1941c-0.8-0.5-1.6-1-3.2-2c-0.8,2.6-1.4,5.1-2.4,7.4c-0.7,1.6-2,3.1-3,4.6c-0.4-14-0.8-28.1-1.3-42.1
		c-0.1-3.6-0.4-7.2-0.6-10.9c0.9-1.2,1.7-2.4,2.7-3.5c1.2-1.2,2.6-2.3,3.9-3.5c0.1,1.7,0.1,3.3,0.2,5c0.2,1,0.4,2,0.6,3.1
		c0.2,3,0.3,6,0.5,8.9c0.2,1,0.3,2,0.5,3.1C409.1,1921.1,409.8,1931,410.5,1941z"/>
	<path class="st23" d="M406.7,1891.1c-1.3,1.1-2.7,2.2-3.9,3.5c-1,1.1-1.8,2.3-2.7,3.5c-1.3-19-2.7-38-4-57c1.9-0.3,3.7-0.6,5.6-1
		c0.1,2,0.2,4,0.3,6c0.2,0.7,0.4,1.4,0.7,2c0.2,5.2,0.1,10.5,0.7,15.7C404.2,1872.9,405.5,1882,406.7,1891.1z"/>
	<path class="st13" d="M401.6,1840c-1.9,0.3-3.7,0.6-5.6,1c-2-15-4-30-6-45c1.9-1,3.9-1.9,5.8-2.9
		C397.8,1808.7,399.7,1824.4,401.6,1840z"/>
	<path class="st24" d="M235.3,2097.2c-0.3-1.4-1-2.7-1-4.1c-0.1-7.7-0.1-15.5,0-23.2c0-1.4,0.7-2.7,1-4.1
		C235.3,2076.3,235.3,2086.7,235.3,2097.2z"/>
	<path class="st24" d="M236,2043c0.1-1.7,0.2-3.5,0.4-5.2C236.3,2039.5,236.1,2041.3,236,2043z"/>
	<path class="st24" d="M237,2024c0.2-1.4,0.4-2.8,0.6-4.1C237.4,2021.2,237.2,2022.6,237,2024z"/>
	<path class="st24" d="M240.9,1974c0.2-1,0.3-2.1,0.5-3.1C241.2,1971.9,241,1972.9,240.9,1974z"/>
	<path class="st24" d="M239,1996c0.2-1,0.4-2.1,0.6-3.1C239.4,1993.9,239.2,1995,239,1996z"/>
	<path class="st24" d="M238,2009c0.2-1.1,0.3-2.1,0.5-3.2C238.3,2006.9,238.2,2007.9,238,2009z"/>
	<path class="st24" d="M243.9,1945c0.2-1,0.5-2.1,0.7-3.1C244.4,1942.9,244.1,1943.9,243.9,1945z"/>
	<path class="st24" d="M259.9,1843c0.2-0.7,0.5-1.4,0.7-2.1C260.4,1841.6,260.2,1842.3,259.9,1843z"/>
	<path class="st24" d="M258.9,1848c0.2-0.7,0.5-1.4,0.7-2.1C259.4,1846.6,259.1,1847.3,258.9,1848z"/>
	<path class="st24" d="M257.9,1853c0.2-0.7,0.5-1.4,0.7-2.1C258.4,1851.6,258.1,1852.3,257.9,1853z"/>
	<path class="st24" d="M256.9,1858c0.2-0.7,0.5-1.4,0.7-2.1C257.4,1856.6,257.1,1857.3,256.9,1858z"/>
	<path class="st24" d="M254.9,1869c0.2-0.7,0.5-1.4,0.7-2.1C255.3,1867.6,255.1,1868.3,254.9,1869z"/>
	<path class="st24" d="M253,1880c0.2-0.7,0.4-1.4,0.7-2.1C253.4,1878.6,253.2,1879.3,253,1880z"/>
	<path class="st24" d="M261.9,1834c0.2-0.7,0.5-1.4,0.7-2.1C262.4,1832.6,262.1,1833.3,261.9,1834z"/>
	<path class="st24" d="M250,1899c0.2-0.7,0.4-1.4,0.6-2.1C250.4,1897.6,250.2,1898.3,250,1899z"/>
	<path class="st24" d="M248.9,1906c0.2-0.7,0.4-1.4,0.5-2.1C249.3,1904.6,249.1,1905.3,248.9,1906z"/>
	<path class="st24" d="M242,1963c0.1-0.7,0.2-1.4,0.4-2.2C242.2,1961.6,242.1,1962.3,242,1963z"/>
	<path class="st24" d="M310.9,1659c0.1-0.7,0.2-1.3,0.3-2C311.1,1657.6,311,1658.3,310.9,1659z"/>
	<path class="st24" d="M247.9,1913c0.2-0.7,0.4-1.4,0.5-2.1C248.3,1911.6,248.1,1912.3,247.9,1913z"/>
	<path class="st24" d="M309.9,1665c0.2-0.7,0.4-1.4,0.7-2.1C310.3,1663.6,310.1,1664.3,309.9,1665z"/>
	<path class="st24" d="M247,1920c-0.2-0.6-0.5-1.3-0.7-1.9c0.4-0.1,0.9-0.1,1.3-0.2C247.4,1918.6,247.2,1919.3,247,1920z"/>
	<path class="st24" d="M245.9,1928c0.2-0.7,0.3-1.4,0.5-2.1C246.3,1926.6,246.1,1927.3,245.9,1928z"/>
	<path class="st24" d="M244.9,1936c0.2-0.7,0.3-1.4,0.5-2.1C245.3,1934.6,245.1,1935.3,244.9,1936z"/>
	<path class="st24" d="M308.9,1671c0.2-0.7,0.4-1.4,0.7-2.1C309.4,1669.6,309.1,1670.3,308.9,1671z"/>
	<path class="st24" d="M307.8,1677c0.2-0.7,0.4-1.4,0.6-2.1C308.2,1675.6,308,1676.3,307.8,1677z"/>
	<path class="st24" d="M242.9,1954c0.1-0.7,0.2-1.4,0.3-2.2C243.1,1952.5,243,1953.3,242.9,1954z"/>
	<path class="st24" d="M306.9,1682c0.2-0.7,0.5-1.4,0.7-2.1C307.3,1680.6,307.1,1681.3,306.9,1682z"/>
	<path class="st24" d="M252,1886c0.2-0.7,0.4-1.4,0.7-2.1C252.4,1884.6,252.2,1885.3,252,1886z"/>
	<path class="st24" d="M304.9,1692c0.2-0.7,0.5-1.4,0.7-2.1C305.3,1690.6,305.1,1691.3,304.9,1692z"/>
	<path class="st24" d="M302.9,1697c0.6-0.7,1.1-1.4,1.7-2.1c-0.2,0.7-0.5,1.4-0.7,2.1l-0.5,0.1C303.3,1697.1,302.9,1697,302.9,1697z
		"/>
	<path class="st24" d="M301.8,1706c0.2-0.7,0.5-1.4,0.7-2.1C302.3,1704.6,302,1705.3,301.8,1706z"/>
	<path class="st24" d="M300.8,1710c0.2-0.7,0.5-1.4,0.7-2.1C301.3,1708.6,301.1,1709.3,300.8,1710z"/>
	<path class="st24" d="M296.8,1726c0.3-0.7,0.5-1.4,0.8-2.1C297.3,1724.6,297.1,1725.3,296.8,1726z"/>
	<path class="st26" d="M183,2083.8c12.3,5.4,24.6,10.9,36.9,16.3c-2.7,3.5-5.2,7.2-8.2,10.4c-18.6,19.8-37.6,39.2-55.8,59.3
		c-11,12.1-21.6,24.4-35.1,33.9c-15.9,11.1-33.2,18.3-52.9,18.2c4.9-9,9.7-18.1,14.8-27c10.8-18.9,21.7-37.6,32.5-56.4
		c10.2-17.6,20.5-35.2,30.6-52.9c1.7-3,2.7-6.3,4.1-9.5c1.6,0.1,3.2,0.2,4.9,0.4C164.2,2078.9,173.6,2081.4,183,2083.8z"/>
	<path class="st0" d="M122.6,2083.9c-38.9,31.4-74.8,63.7-100.6,106.7c-3.5-6.5-4.6-12.8-3.8-19.2c1.9-14.7,9.1-27,18.7-37.8
		c16.6-18.6,36.3-33.6,57.3-46.9c3-1.9,7.1-2.3,10.8-2.6C110.3,2083.6,115.8,2083.9,122.6,2083.9z"/>
	<path class="st26" d="M647,2156.9c-22.5,0.7-44.4-2.9-65.7-9.7c-13.1-4.2-25.8-9.8-38.8-14.2c-15.2-5.2-30.6-10-46-14.8
		c-23.5-7.2-47.1-14.2-70.6-21.4c-1.4-0.4-2.5-1.7-3.7-2.6c18.1-4.7,34.4-12.7,48-26c3.7-3.6,8.6-6.1,12.9-9.1
		c3.2,2.6,6.2,5.6,9.8,7.7c27.4,15.9,54.9,31.5,82.4,47.3c22.9,13.1,45.8,26.2,68.6,39.4C645.1,2154.2,646,2155.7,647,2156.9z"/>
	<path class="st0" d="M680.9,2140c-49.1-35.2-102.9-57.5-159-76.1c6.4-4.7,12.2-9.2,18.2-13.1c1.5-1,4.3-1,6.2-0.5
		c27.9,7.5,55.7,15.7,81.6,28.7c17.3,8.7,33.9,18.5,45,35.2C677.7,2121.6,680.5,2129.6,680.9,2140z"/>
	<path class="st17" d="M351,487.9c6.5,5.4,12.8,10.8,19.4,16.1c8.1,6.5,16.4,12.8,24.6,19.2c0,120.4,0,240.7,0.1,361.1
		c0,5.1,0.9,10.2,0.8,15.4c-0.1,3.5-1.3,7-2,10.5c-0.2-0.3-0.5-0.5-0.6-0.8c-6.5-26.4-12.3-53-19.6-79.3
		c-4.4-15.9-6.8-33.2-20.8-44.9c0.4-5,1-9.9,1-14.9c0.1-79.5,0.2-159-0.1-238.4C353.8,517.2,356.3,502.3,351,487.9z"/>
	<path class="st27" d="M279.9,414.2c6.9,9.5,13.5,18.6,20.6,28.4c-7.7,3.5-14.8,6.8-22,10c-31.5,14-63,27.9-94.4,41.9
		c-9.7,4.3-19.5,8.5-29.1,13.1c-2.2,1-4.4,3.2-5.3,5.4c-15.5,36.8-26.7,74.8-32.6,114.3c-3.2,21-4.9,42.2-7.1,63.3
		c-0.6,5.9-0.7,11.9-1,17.9c-0.1,2.4-0.3,4.4-3.4,4.4c-9,0-17.9,0-27.9,0c0-5.8,0-11.2,0-16.5c0-3.5,0.1-7,0.2-10.5
		c0.8-38.7,7.1-76.6,18-113.8c8-27.6,18.7-54.1,31.9-79.5c1.1-2.2,3.2-4.3,5.4-5.4c33.6-17,67.3-33.8,101-50.5
		C249.2,429.1,264.3,421.8,279.9,414.2z"/>
	<path class="st27" d="M352.9,785.1c14,11.7,16.4,28.9,20.8,44.9c7.2,26.2,13.1,52.8,19.6,79.3c0.1,0.3,0.4,0.5,0.6,0.8
		c0.1,1,0.2,2,0.3,3c0.3,0.7,0.5,1.4,0.8,2.1c0.1,1.7,0,3.3,0.2,5c2.9,19.6,6.1,39.2,8.6,58.8c0.8,6.2,0.5,12.9-0.7,19.1
		c-3.3,17-7.3,34-11,50.9c-0.3,1-0.6,2-0.9,3c-0.4,2-0.8,4-1.1,6c-0.2,0.7-0.5,1.3-0.7,2c-0.7,3.7-1.5,7.4-2.2,11.1
		c-0.3,1-0.6,2-0.9,3c-0.1,0.6-0.1,1.3-0.2,1.9c-0.3,0.7-0.5,1.4-0.8,2.1c-0.1,0.7-0.1,1.3-0.2,2c-0.3,0.7-0.5,1.3-0.8,2
		c-0.1,1-0.2,2-0.4,3c-0.8,2.1-1.5,4.3-2.4,6.9c-8.4-5.2-16.7-10.1-24.7-15.5c-1-0.7-1.3-3.8-0.8-5.4c7.5-23.1,14.7-46.3,23.1-69
		c3.7-10.1,1.8-19.8,0.5-29.4c-3.3-24.3-7.1-48.6-11.7-72.6c-6.7-35.5-16.7-70.1-29.1-104c-1.4-3.8-5.7-6.6-8.6-9.9
		c-13.2-12.9-26.4-25.8-39.5-38.8c-9.4-9.3-19.7-17.9-26.6-29.5c-5.8-9.9-10.6-20-10-31.8c0.1-1.2,0.1-2.3,0.2-3.5
		c0.1-0.4,0.5-0.8,1.2-1.7c1.9,1.7,3.8,3.3,5.4,5c11.8,12.7,23.5,25.4,35.2,38.1c17.8,19.3,35.5,38.7,53.3,58.1
		C350.4,783,351.7,784,352.9,785.1z"/>
	<path class="st28" d="M173.9,764.1c-0.9-0.1-1.9-0.2-2.8-0.4c-4.7-1.6-9.4-3.2-14.1-4.8c-4.3-1.2-8.7-2.4-13-3.7
		c-3-0.8-6-1.6-9-2.4c2-8.6,4-17.3,5.9-25.9c12.1,3.4,24.3,6.6,36.2,10.4c1.4,0.4,2.9,4.3,2.5,6.1
		C178.2,750.5,175.9,757.3,173.9,764.1z"/>
	<path class="st4" d="M141,727c-2,8.6-4,17.3-5.9,25.9c-4.7-0.6-9.3-1.2-14-1.8c-6.3-0.8-12.7-1.5-19-2.3c1.7-6.8,3.5-13.7,5.1-20.5
		c0.5-2.4,0.6-4.8,0.9-7.3c9.6,1.7,19.1,3.3,28.7,5C138.1,726.3,139.5,726.7,141,727z"/>
	<path class="st4" d="M107,721c-0.3-0.3-0.7-0.5-1-0.8C106.3,720.5,106.7,720.7,107,721z"/>
	<path class="st2" d="M401.6,1840c-1.9-15.6-3.9-31.3-5.8-46.9c-0.9-6.9-1.6-13.8-2.9-20.6c-3.4-17.5-3.5-35.6-9.9-52.5
		c-1-6.9-2.5-13.7-3-20.6c-0.7-11.2-0.9-22.4-1-33.6c-0.1-14.2,4.1-27.5,8.8-40.6c6.5-18,16.8-33.8,29.5-48.1c4-4.5,9-8.3,11.9-13.3
		c2.7-4.7,3.6-10.5,4.7-16c3.1-14.7,6.1-29.5,8.6-44.3c2.5-14.6,4.6-29.4,6.4-44.1c2.2-17.7,4-35.4,5.9-53.2
		c0.5-5.1,0.9-10.2,1.1-15.4c0.4-12.1,0.7-24.2,1-36.3c0.3-10.1,0.9-20.2,0.9-30.3c0-9.1-0.8-18.2-0.8-27.3c0-2.9,1.1-6.2,2.8-8.5
		c5.7-8.1,11.9-15.9,18-23.8c0.8-1,1.9-1.7,3.6-3.2c0.6,1.8,1.4,3.1,1.4,4.3c0.1,20.2,0.1,40.5,0.1,60.7c0,2.2,0,4.3,0,6.5
		c-0.7,10.6-1.2,21.2-2.2,31.7c-1.4,13.8-3.1,27.6-4.8,41.3c-1.7,13.4-3.7,26.8-5.6,40.2c-1.7,11.9-3.6,23.8-5.4,35.8
		c-4,21.5-8.1,42.9-12,64.4c-2.1,11.7-3.3,23.7-14,31.6c-1.3,1.2-2.9,2.3-4,3.7c-9.3,12.2-17.1,25.3-22,40
		c-6.6,19.8-8.7,40.1-7.9,60.8c0.2,4.5,1.2,9.1,1.9,13.6c2,11.3,4,22.7,6,34c1.9,9.3,3.9,18.7,5.8,28c0.4,5.4,0.7,10.8,1.3,16.2
		c0.7,6.6,1.8,13.2,2.7,19.8c0.8,7,1.5,13.9,2.3,20.9c1.3,14.3,2.7,28.7,4,43c0.7,9.7,1.4,19.3,2.1,29c1.2,23.2,2.4,46.5,3.5,69.7
		c0.4,9.3,0.4,18.6,0.5,28c0.2,15.8,0.6,31.6,0.6,47.4c0,10-0.4,20-0.8,29.9c0,1.3-0.7,3.2-1.7,3.7c-7.4,3.7-15,7-23,10.7
		c-0.2-2.3-0.3-3.9-0.4-5.5c0.2-2,0.4-4,0.5-6c0.1-2.7,0.3-5.3,0.4-8c0.2-3.3,0.5-6.7,0.7-10c0.1-4.7,0.2-9.3,0.3-14
		c0.3-3.9,0.9-7.8,0.8-11.7c-0.3-20.1-0.9-40.1-1.3-60.2c-0.1-2-0.3-4-0.5-6c-0.1-4.7-0.3-9.3-0.4-14c-0.7-10-1.4-20-2-29.9
		c-0.2-1-0.3-2-0.5-3.1c-0.2-3-0.3-6-0.5-8.9c-0.2-1-0.4-2-0.6-3.1c-0.1-1.7-0.1-3.3-0.2-5c-1.2-9.1-2.5-18.2-3.4-27.3
		c-0.5-5.2-0.5-10.5-0.7-15.7c-0.2-0.7-0.4-1.4-0.7-2C401.8,1844,401.7,1842,401.6,1840z"/>
	<path class="st14" d="M411.5,2047c-0.2,3.3-0.5,6.7-0.7,10C411.1,2053.6,411.3,2050.3,411.5,2047z"/>
	<path class="st14" d="M410.4,2065c-0.2,2-0.4,4-0.5,6C410.1,2069,410.2,2067,410.4,2065z"/>
	<path class="st22" d="M512,571c2.3-3.7,4.6-7.3,7-11c0.3,1,0.9,2.1,0.8,3.1c-0.1,2.8-0.7,5.6-0.7,8.4c0,179.2,0,358.3-0.1,537.5
		c0,3.7-1.3,7.3-1.9,11c-12.9,0.7-25.9,1.4-38.8,2c-1.7,0.1-3.4-0.6-5.2-0.9c0-18.7,0-37.3,0-56c0-165,0-330.1,0-495.1
		c2.3,0.9,4.9,1.3,6.9,2.7c8.2,5.5,17.3,4.5,26.4,4.3c0.6,0,1.1-0.6,1.7-0.9C509.3,574.4,510.6,572.7,512,571z"/>
	<path class="st29" d="M392,1049c3.7-17,7.7-33.9,11-50.9c1.2-6.2,1.5-12.8,0.7-19.1c-2.5-19.7-5.7-39.2-8.6-58.8
		c-0.2-1.6-0.1-3.3-0.2-5c-0.3-0.7-0.5-1.4-0.8-2.1c-0.1-1-0.2-2-0.3-3c0.7-3.5,1.9-7,2-10.5c0.1-5.1-0.8-10.2-0.8-15.4
		C395,763.9,395,643.5,395,523.2c12.7,8.3,25.3,16.6,38,25c0.3,3.8,1,7.6,1,11.4c0,183.1,0,366.1,0,549.2c0,2.8-0.6,5.6-1,8.4
		c-9.2-1.5-18.4-3-27.6-4.5c-1.8-0.3-3.6-0.4-5.3-0.7c0,0,0,0,0,0c-1-0.3-2-0.6-3-1c-4.7-1.9-9.4-3.8-14.1-5.7
		c0.7-2.4,1.6-4.9,2-7.3c0.5-2.7,0.9-5.5,0.8-8.3c-0.1-1.6-1.2-3.1-1.9-4.7c0.1-1,0.2-2,0.4-3c0.3-0.7,0.5-1.3,0.8-2
		c0.1-0.7,0.1-1.3,0.2-2c0.3-0.7,0.5-1.4,0.8-2.1c0.1-0.6,0.1-1.3,0.2-1.9c0.3-1,0.6-2,0.9-3c0.7-3.7,1.5-7.4,2.2-11.1
		c0.2-0.7,0.5-1.3,0.7-2c0.4-2,0.8-4,1.1-6C391.4,1051,391.7,1050,392,1049z"/>
	<path class="st28" d="M433,1117.1c0.3-2.8,1-5.6,1-8.4c0-183.1,0-366.1,0-549.2c0-3.8-0.6-7.6-1-11.4c13.3,7.3,26.7,14.5,40,21.8
		c0,165,0,330.1,0,495.1c0,18.7,0,37.3,0,56c-12.9-1.1-25.8-2.1-38.8-3.2C433.8,1117.8,433.4,1117.3,433,1117.1z"/>
	<path class="st25" d="M429,1858c-1.3-14.3-2.7-28.7-4-43c1-1.2,2.4-2.2,2.9-3.6c1.2-3.4,2-7,3-10.5c11-40.8,21.9-81.7,32.9-122.5
		c13.4-49.8,26.8-99.6,40.1-149.4c12.3-46,24.7-91.9,37-137.9c15.2-57,30.4-114,45.7-171.1c5.6-20.8,11.2-41.6,16.8-62.4
		c1.1-4.1,0-5.2-4.1-4.2c-1.4,0.3-2.7,1-4.1,1.5c-5.3,1.3-10.7,2.6-16,3.9c-4.3,0.4-8.7,0.8-13,1.2c-4.7,0.6-9.3,1.3-14,1.9
		c-7.4,0-14.7,0.1-22.1,0.1c-2.7-0.2-5.4-0.4-8.1-0.5c2.8-4.8,5.6-9.5,8.4-14.3c1-1.7,1.8-3.4,2.7-5.2c19.4,0.3,38.3-2.2,56.8-8.1
		c16.4-5.2,31.7-12.8,45.3-23.5c1.4-1.1,3.1-1.7,4.7-2.6c-0.2,9-0.4,18-0.6,27.1c-0.3,1.7-0.5,3.4-0.8,5.1c-2.8,1-5.6,1.9-8.3,2.9
		c-4.9,1.1-8.2,3.2-9.7,8.9c-6.8,26.7-14.1,53.2-21.3,79.7c-10.2,37.8-20.4,75.5-30.5,113.3c-8.2,30.6-16.3,61.2-24.5,91.7
		c-10.1,37.8-20.4,75.5-30.5,113.3c-8.2,30.6-16.3,61.2-24.5,91.7c-10.1,37.8-20.4,75.5-30.5,113.3c-8.2,30.6-16.2,61.2-24.6,91.7
		C432.9,1850.7,430.7,1854.3,429,1858z"/>
	<path class="st11" d="M442,332.9c-2.6-2-5.4-3.9-7.7-6.2c-12.7-12.9-25.3-25.9-37.9-38.9c-6.8-7-13.9-13.9-20.1-21.4
		c-2.2-2.6-2.9-6.9-3.2-10.5c-0.5-7-0.1-14-0.1-21c3.5,0,7.1,0,10.6-0.1c5.2-0.1,6-1.1,5.1-6.3c-2-11.1-3.8-22.2-5.8-33.2
		c-0.4-2.4-1-5-2.4-7c-8.4-11.7-5.4-29.4,6.8-37.5c2.5-1.6,3-3.2,1.3-6.1c-5-8.8-9.7-17.8-14.3-26.9c-0.6-1.2-0.6-3.3,0-4.4
		c5.6-10.5,11.5-21,17.3-31.5c1.5-2.8,3.4-3.4,6.6-2.5c12.6,3.6,25.2,7,37.8,10.4c0.9,0.3,2,0.2,3,0.2c0.3,4.6,1,9.2,1,13.8
		c0.1,18.7,0.1,37.4,0.1,56.1c-13.9-0.8-27.7-1.7-42.6-2.6c1,2.8,1.7,4.3,2.1,5.9c1,4.3,3.2,5.6,7.8,4.9c6.8-1,13.8-0.8,20.7-1.1
		c0,2.7,0,5.4,0,8.1c-4.7,0.7-9.5,1.4-14.3,2c2.1,5.8,5.7,7,10.3,5.2c5.4,11.2,9.4,13.2,16.6,8.8c0.5,2.6,1.3,5.2,1.3,7.7
		C442,243.6,442,288.3,442,332.9z"/>
	<path class="st10" d="M479,101c3.9,0.8,7.7,1.8,11.6,2.3c3.7,0.4,7.6,0.6,11.3,0.1c5.4-0.7,7,0.3,7,5.8c0,17.3,0,34.6,0,51.9
		c-0.9,2.3-1.7,4.6-2.6,6.9c0.8,2.3,2.4,4.6,2.4,6.9c0.2,15.1,0.1,30.1,0.2,45.2c0,1.6,1.2,3.3,1.8,4.9c0.8,4.1-2.1,4.9-5.1,5.8
		c-6.7,2-13.3,4.1-20,6.1c0.1,0.2,0.1,0.4,0.2,0.6c8,0.5,15.9,1,23.9,1.5c0,8.9,0,17.9,0,26.8c-10.3-0.7-20.6-1.3-31-2
		c0.3-2.9,1-5.9,1-8.8c0.1-48.7,0.1-97.5,0-146.2C480,106.2,479.3,103.6,479,101z"/>
	<path class="st15" d="M479,101c0.3,2.6,0.9,5.2,0.9,7.8c0.1,48.7,0.1,97.5,0,146.2c0,2.9-0.6,5.9-1,8.8c-6-1.3-12-2.6-18.1-3.8
		c0.7-2,2-4.1,2-6.1c0.1-24.2,0.1-48.4,0.1-72.7c-0.3-0.5-0.7-1-1-1.6c0.3-3.6,0.7-7.3,1-10.9c-0.7-1.3-1.4-2.5-2.1-3.8
		c0.7-2,2-4.1,2-6.1c0.2-20.6,0.1-41.3,0.1-61.9C468.4,98.3,473.7,99.6,479,101z"/>
	<path class="st25" d="M479.8,89.6c-9.9-2.3-19.9-4.5-29.8-6.8c0-1.7-0.1-3.3,0.1-5c1.6-17.6,3.3-35.2,4.9-52.8
		c10-0.6,20-1.2,30-1.9c-0.3,3.8-0.7,7.5-1,11.3C482.6,52.8,481.2,71.2,479.8,89.6z"/>
	<path class="st15" d="M481,286.1c0,10.6,0.1,21.2,0,31.8c-0.1,10.4,1.4,20.8,0,31.2c-6,0-12,0-18,0c-3.4-0.7-6.7-1.4-10.1-2.1
		c0.4-1.1,0.8-2.2,1.2-3.3c7.3,0,14.6,0,21.3,0c-3.8-0.8-8.1-1.7-12.4-2.6c0-25,0-49.9,0-74.9c10,1.3,20,2.6,30,4c0,4,0,8,0,12
		c-5.7,0-11.3,0-17,0c0,0.3,0,0.7,0,1C477.6,284,479.3,285.1,481,286.1z"/>
	<path class="st16" d="M463,97c0,20.6,0,41.3-0.1,61.9c0,2-1.3,4.1-2,6.1c-7-1.7-13.9-3.4-20.9-5.1c0-18.7,0.1-37.4-0.1-56.1
		c0-4.6-0.6-9.2-1-13.8C447,92.4,455,94.7,463,97z"/>
	<path class="st21" d="M455,25c-1.6,17.6-3.3,35.2-4.9,52.8c-0.2,1.7,0,3.3-0.1,5c-9.4-2.2-18.7-4.5-28.1-6.7
		c1.3-15.4,2.6-30.9,4-46.3C435.6,28.2,445.3,26.6,455,25z"/>
	<path class="st14" d="M479.8,89.6c1.4-18.4,2.8-36.8,4.2-55.2c0.3-3.8,0.7-7.5,1-11.3c7,0,14,0.1,21,0.1
		c-1.3,14.4-2.6,28.8-3.9,43.2c-0.8,8.8-1.4,17.7-2.1,26.6C493.3,91.9,486.5,90.7,479.8,89.6z"/>
	<path class="st9" d="M355.9,176.1c1.7-5.2,2.9-10.5,5.1-15.4c6.6-14.6,4.2-28.5-2.4-42.1c-2.2-4.5-0.8-6.4,3.4-7.6
		c4.4,11.1,8.8,22.2,13.1,33.4c0.6,1.5,0.3,3.6-0.2,5.1c-1.6,4.6-3.1,9.2-5.3,13.4c-5.4,10.4-1.3,18.8,4.9,27
		c2.1,2.7,3.8,6.2,4.3,9.5c1.8,10.3,3,20.6,4.5,31.5c-7.1,0-13.7,0-20.3,0c-0.1-8.6-0.7-17.3,0-25.9
		C363.7,194.5,360.8,185.1,355.9,176.1z"/>
	<path class="st23" d="M425.9,29.8c-1.3,15.4-2.6,30.9-4,46.3c-10.6-2.4-21.3-4.9-31.9-7.3c0.9-10.1,1.7-20.3,2.6-30.4
		c0.1-0.2,0.2-0.3,0.4-0.4c0.8-0.1,1.6-0.2,2.4-0.4C405.6,35,415.7,32.4,425.9,29.8z"/>
	<path class="st19" d="M507,343c-3.3,0.3-6.7,0.6-10,0.9c-0.1-0.2-0.1-0.4-0.2-0.6c1.4-0.8,2.8-1.5,4.2-2.3
		c9.9-5,18.2-11.4,21.1-22.9c5.4-21.2,11.3-42.3,16-63.6c2.9-13,4.5-26.4,5.7-39.7c0.9-9.6,0.2-19.4,0.2-29.5
		c4.4,0.6,6.4,2.3,7.1,6.6c3.4,20.1-2,39.2-6.3,58.4c-4.6,20.7-9.2,41.4-13.9,62c-1.5,6.5-2.9,12.9-4.8,19.3
		c-0.5,1.8-2.1,3.7-3.7,4.5C517.4,338.7,512.1,340.7,507,343z"/>
	<path class="st9" d="M506.5,168c0.9-2.3,1.7-4.6,2.6-6.9c12.1-6.4,24.7-11.4,38.3-13.7c1.8-0.3,3.5-0.4,6.4-0.7
		c-1.2,4-2,7.3-3.1,10.5c-0.3,0.7-1.4,1.6-2.2,1.6C533.6,158.4,520.1,163.5,506.5,168z"/>
	<path class="st20" d="M355.9,176.1c4.8,9.1,7.8,18.4,7,29c-0.7,8.6,0,17.3,0,25.9c-2.1,0.1-4.1,0.1-6.2,0.2
		c-0.2-4.4-0.6-8.8-0.7-13.2c-0.1-4.8-0.3-9.6,0-14.4c0.5-7.3-0.8-14.1-4.1-20.5C353.3,180.7,354.6,178.4,355.9,176.1z"/>
	<path class="st19" d="M493,270c-10-1.3-20-2.6-30-4c-3.7-1-7.5-1.7-11-3c-1.4-0.5-2.2-2.5-3.3-3.8c0.4-0.3,0.7-0.6,1.1-0.9
		c3.7,0.6,7.4,1.2,11.1,1.8c6,1.3,12,2.6,18.1,3.8c10.3,0.7,20.6,1.3,31,2c3.8,0,7.5,0,13.2,0c-2,1.5-3.1,3-4.3,3
		C510.2,269.4,501.6,269.7,493,270z"/>
	<path class="st19" d="M510,239.1c-8-0.5-15.9-1-23.9-1.5c-0.1-0.2-0.1-0.4-0.2-0.6c6.7-2,13.3-4.1,20-6.1c3-0.9,5.9-1.7,5.1-5.8
		c0.7-5.5,1.4-11,2.1-16.5c0.4,0,0.9,0,1.3-0.1c0.5,2.7,1.2,5.4,1.6,8.2c0.8,5.4,1.4,10.8,2.1,16.2c0.8,6.1,0.8,6.1-5.6,6.1
		C511.6,239,510.8,239.1,510,239.1z"/>
	<path class="st9" d="M544,174.1c0,1.6,0,2.9,0,4.3c-1.5,0-2.8,0.1-4,0c-5.1-0.6-9.6-1.1-11.7,5.5c-0.7,2.1-4.7,3.6-7.5,4.3
		c-3.3,0.8-4.8-1.9-5.4-5c-0.2-1-0.9-1.9-1.6-3.4C523,174.9,533.1,173.3,544,174.1z"/>
	<path class="st19" d="M476,282c5.7,0,11.3,0,17,0c5,0.5,10,1,15.7,1.5c-3.1,2.6-5.9,5.1-8.7,7.5c-2.5,2.3-5.1,2.3-8,0.5
		c-3.5-2.1-7.3-3.7-11-5.5c-1.7-1-3.3-2-5-3.1C476,282.7,476,282.4,476,282z"/>
	<path class="st16" d="M121,751.1c4.7,0.6,9.3,1.2,14,1.8c3,0.8,6,1.6,9,2.4c0,114.2,0,228.5-0.1,342.7c0,1.6-1.2,3.3-1.9,4.9
		c-7.4-16.7-14.7-33.3-22.1-50c0.3-2.1,1-4.2,1-6.3C121,948.2,121,849.7,121,751.1z"/>
	<path class="st10" d="M452.9,346.9c3.4,0.7,6.7,1.4,10.1,2.1c-0.3,4.9-0.9,9.9-1,14.8c-0.1,53.4,0,106.9-0.1,160.3
		c0,2.3-0.6,4.5-1,6.8c-5.6-3-11.2-6-16.8-9c-7.8-5.3-15.6-10.5-23.3-15.8c0.7-2.4,2-4.9,2-7.3c0.1-52.3,0.1-104.7,0.1-157
		c0-2.3,0.6-4.5,1-6.8C431.9,343.3,443,343.7,452.9,346.9z"/>
	<path class="st17" d="M512,571c-1.3,1.7-2.7,3.4-4,5.1c-11.3-5.4-22.6-10.8-33.9-16.2c0-7,0-14,0-21c5.7,2.5,11.4,5,17,7.6
		c8,3.7,8,3.8,10.9-4.5c1.9-3.2,3.8-6.4,5.7-9.5c0.4,2.1,1.2,4.2,1.2,6.3c0.1,9.2-0.1,18.3,0.2,27.5C509.2,567.8,511,569.4,512,571z
		"/>
	<path class="st28" d="M474,538.9c0,7,0,14,0,21c-10.3-5.7-20.7-11.3-31-17c0-3.5-0.2-7,0-10.5c0.2-3.5,0.8-7,1.2-10.5
		c5.6,3,11.2,6,16.8,9C465.3,533.6,469.7,536.2,474,538.9z"/>
	<path class="st2" d="M425.9,29.8c-10.2,2.6-20.3,5.2-30.5,7.8c-0.8,0.2-1.6,0.3-2.4,0.4c-2.3-4.4-4.7-8.8-7-13.3
		c1.3-0.9,2.7-1.8,4-2.7c14-3.7,28-7.5,42-11.2c13.1-0.6,26.1-1.6,39.2-1.6c8.9,0,17.8,1.2,26.8,1.8c3.2,0.6,6.4,1.8,9.6,1.8
		c7.5,0.1,11.2,5.1,15.4,11.4c-6.1-0.3-11.6-0.7-17-1c-7,0-14-0.1-21-0.1c-10,0.6-20,1.2-30,1.9C445.3,26.6,435.6,28.2,425.9,29.8z"
		/>
	<path class="st26" d="M386,24.7c2.3,4.4,4.7,8.8,7,13.3c-0.2,0.1-0.3,0.2-0.4,0.4c-12.1,3.2-23.2,8.4-33.6,15.4
		c-14.4,9.7-27.3,21.1-39.2,35.8c2.2-11,7-19.1,13.4-26.2C348.3,47.1,365.7,34,386,24.7z"/>
	<path class="st4" d="M357.2,452.9c4.3,3.9,8.5,7.9,12.8,11.8c11.6,9.9,23.2,19.8,34.8,29.7c3.5,2.8,7,5.6,10.4,8.5
		c-0.8,1.4-2.1,2.8-2.2,4.2c-0.3,5.3-0.1,10.6-0.1,15.9c-6.7-4.7-13.8-9.1-20.2-14.2c-11.8-9.6-23.4-19.5-34.8-29.5
		c-1.7-1.5-2.7-4.5-2.9-6.9c-0.4-4.9-0.3-10,0-14.9C355.2,455.9,356.5,454.5,357.2,452.9z"/>
	<path class="st6" d="M413,523c0-5.3-0.1-10.6,0.1-15.9c0.1-1.4,1.4-2.8,2.2-4.2c1.9,1.1,3.7,2.1,5.6,3.2
		c7.8,5.3,15.6,10.5,23.3,15.8c-0.4,3.5-1,7-1.2,10.5c-0.2,3.5,0,7,0,10.5C433,536.3,423,529.6,413,523z"/>
	<path class="st16" d="M460.9,260.1c-3.7-0.6-7.4-1.2-11.1-1.8c-0.4,0.3-0.7,0.6-1.1,0.9c1.1,1.3,1.9,3.3,3.3,3.8
		c3.5,1.4,7.3,2.1,11,3c0,25,0,49.9,0,74.9c-7-2.7-14-5.4-21-8.1c0-44.7,0-89.3-0.1-134c0-2.6-0.8-5.2-1.3-7.7
		c0.9-3.3,1.9-6.6,2.8-9.9c6.4,0,13,0,19.6,0c0,24.2,0.1,48.4-0.1,72.7C462.9,256,461.6,258,460.9,260.1z"/>
	<path class="st18" d="M474,1155.1c-3.2,6.3-6.2,12.8-9.7,18.9c-11.1,19.6-22.4,39.2-33.7,58.8c-12.3,21.4-24.7,42.8-37.1,64.3
		c-9.8,17.1-19.5,34.4-29.4,51.5c-11.1,19.5-22.3,38.9-33.5,58.3c-10.7,18.6-21.3,37.1-32,55.7c-11.5,20.2-23,40.4-34.6,60.6
		c-1.4,2.4-3.5,4.5-5.2,6.7c3.2-9.4,6.5-18.8,9.7-28.2c12.8-38.1,23-76.8,30.3-116.3c3.2-17.1,5.5-34.3,8.2-51.4
		c1.5-1.4,3.5-2.5,4.5-4.2c9.8-16.9,19.5-34,29.2-51c11.1-19.3,22.2-38.6,33.3-57.9c10.1-17.6,20.2-35.1,30.2-52.8
		c5.1-9.1,10-18.3,15-27.5c14,3.6,28,7.2,41.9,10.8C465.4,1152.6,469.7,1153.9,474,1155.1z"/>
	<path class="st24" d="M419.1,1140.7c-5,9.2-9.8,18.4-15,27.5c-10,17.6-20.1,35.2-30.2,52.8c-11.1,19.3-22.2,38.6-33.3,57.9
		c-9.7,17-19.4,34.1-29.2,51c-1,1.7-3,2.8-4.5,4.2c1-7.7,1.6-15.5,3-23.1c4.1-23.1,7.7-46.3,12.8-69.2
		c7.9-35.6,20.5-69.6,35.8-102.7c1.4-3,0.7-4.5-1.6-6.1c0.6-3.1,1.1-6.2,1.7-9.3c0.4-1.9,0.9-3.8,1.3-5.7
		C379.7,1125.6,399.4,1133.1,419.1,1140.7z"/>
	<path class="st7" d="M397,1111c1,0.3,2,0.6,3,1C399,1111.6,398,1111.3,397,1111z"/>
	<path class="st16" d="M404.8,494.4c-11.6-9.9-23.2-19.8-34.8-29.7c0-21.3,0-42.5,0-63.8c3.1-3.9,7.6-7.3,9.2-11.8
		c6.7-19.3,12.4-38.9,18.9-58.3c1.5-4.4,0.1-6.9-3.1-9.3c-6.4-4.8-12.7-9.7-19.1-14.4c-1.8-1.3-3.9-2.1-5.8-3.2
		c-1.1-7.1-2-14.1,0.7-22.2c2.4,2.1,3.7,3.2,5,4.4c9.3,8.9,18.6,17.9,27.8,26.9c1.4,1.4,2.3,3.2,3.5,4.8c-0.3,2.3-1,4.5-1,6.8
		c-0.1,54.1,0,108.3-0.1,162.4C405.9,489.6,405.2,492,404.8,494.4z"/>
	<path class="st15" d="M404.8,494.4c0.4-2.4,1.1-4.9,1.1-7.3c0.1-54.1,0-108.3,0.1-162.4c0-2.3,0.6-4.5,1-6.8
		c5.7,5.7,11.3,11.3,17,17c-0.3,2.3-1,4.5-1,6.8c-0.1,52.3,0,104.7-0.1,157c0,2.4-1.3,4.9-2,7.3c-1.9-1.1-3.7-2.1-5.6-3.2
		C411.8,500.1,408.3,497.3,404.8,494.4z"/>
	<path class="st12" d="M370,304c2,1,4.1,1.9,5.8,3.2c6.4,4.7,12.7,9.6,19.1,14.4c3.2,2.4,4.6,4.8,3.1,9.3
		c-6.5,19.4-12.1,39-18.9,58.3c-1.6,4.5-6.1,7.9-9.2,11.8c-7.2,5.4-14.5,10.9-21.7,16.3c-1.3,1-2.7,1.8-4.2,2.8
		c-4.1-6.1-7.9-11.9-11.8-17.6c-1.6-2.3-1-3.9,1.3-5.3c6.8-4,13.5-8.5,20.5-12.1c4.1-2.1,6.2-4.9,6.8-9.3
		c2.3-18.2,4.8-36.3,7.1-54.5C368.8,315.5,369.4,309.8,370,304z"/>
	<path class="st2" d="M357,1133c2.3,1.5,3,3,1.6,6.1c-15.3,33-28,67.1-35.8,102.7c-5.1,22.9-8.7,46.1-12.8,69.2
		c-1.3,7.6-2,15.4-3,23.1c-2.7,17.1-5,34.4-8.2,51.4c-7.3,39.5-17.5,78.2-30.3,116.3c-3.2,9.4-6.4,18.8-9.7,28.2
		c-3.8,9-7.4,18-11.4,27c-7.2,16.4-15,32.6-21.9,49.1c-13.8,33.2-23.2,67.6-29.6,103c-1.6,8.6-2.7,17.3-4,26
		c-1.3,8.6-3.1,17.2-3.8,25.9c-2,22.6-3.3,45.2-5.3,67.8c-0.7,7.9-2.9,15.6-4.3,23.4c-0.3,1.6-0.4,3.3-0.5,4.9
		c-4,20.6-8,41.3-12,61.9c-1,5-1.8,10.1-2.7,15.1c-3.6,19-7.2,37.9-10.7,56.9c-3.9,21-7.9,42-11.6,63c-0.7,3.7-1.9,5.4-6,5.2
		c-7.3-0.4-14.6-0.1-21.9-0.1c2.5-13.7,4.9-27.4,7.4-41.1c2.2-12.2,4.5-24.4,6.7-36.7c1.9-10.8,3.9-21.6,5.8-32.3
		c0.2-0.7,0.4-1.3,0.7-2c1.8-10.3,3.6-20.7,5.4-31c0.2-0.7,0.4-1.3,0.7-2c0.1-1,0.2-2,0.3-3c0.2-0.7,0.5-1.3,0.7-2
		c0.1-1,0.2-2,0.2-3c2-9.5,4.1-18.9,5.9-28.5c3.4-18,6.7-36,10.1-54.1c0.1-0.8,0-1.7,0.1-2.5c0.2-0.7,0.5-1.3,0.7-2
		c0.4-5,0.8-10,1.3-15c0.2-1,0.5-2,0.7-3c0.1-3.3,0.2-6.6,0.3-10c0.7-4.4,1.4-8.7,1.9-13.1c2.4-21.2,4.7-42.5,7.2-63.7
		c0.5-4.4,1.3-8.8,2-13.2c0.3-0.7,0.5-1.4,0.8-2.1c0-1,0.1-2,0.1-3c1.7-7.4,3.3-14.8,5-22.1c1.8-7.5,3.2-15.1,5.5-22.4
		c4.2-13.3,8.6-26.6,13.5-39.6c5.5-14.7,13-28.3,22.3-41c2.8-3.8,4.4-8.5,6.2-13c14.3-36.8,27.1-74.2,36.6-112.6
		c3.7-15.1,7.2-30.3,10.7-45.4c0.2-1,0.1-2,0.2-3c0.3-0.7,0.6-1.3,0.9-2c0-1,0.1-2,0.1-3c1.7-8.2,3.7-16.4,4.9-24.6
		c2.9-19,5.2-38,8-57c2.8-19,6.1-37.9,9.1-56.8c0.5-3.2,1.3-6.4,2-9.6c2.6-9,5.3-18,7.8-27.1c7.7-27.9,17.3-55.1,29-81.6
		c1.9-4.4,3.9-8.8,6.1-13.9C345.9,1125.4,351.4,1129.2,357,1133z"/>
	<path class="st24" d="M272.9,1395c-0.3,0.7-0.6,1.3-0.9,2C272.3,1396.3,272.6,1395.6,272.9,1395z"/>
	<path class="st23" d="M140.6,1909c-0.2,0.7-0.5,1.3-0.7,2C140.1,1910.3,140.4,1909.6,140.6,1909z"/>
	<path class="st23" d="M139.6,1914c-0.2,0.7-0.4,1.3-0.7,2C139.2,1915.3,139.4,1914.6,139.6,1914z"/>
	<path class="st23" d="M133.5,1947c-0.2,0.7-0.4,1.3-0.7,2C133.1,1948.3,133.3,1947.6,133.5,1947z"/>
	<path class="st13" d="M159.6,1801c-0.2,1-0.5,2-0.7,3C159.2,1803,159.4,1802,159.6,1801z"/>
	<path class="st13" d="M157.7,1818.9c-0.2,0.7-0.5,1.3-0.7,2C157.2,1820.3,157.4,1819.6,157.7,1818.9z"/>
	<path class="st18" d="M171.8,1699c-0.3,0.7-0.5,1.4-0.8,2.1C171.3,1700.3,171.6,1699.6,171.8,1699z"/>
	<path class="st24" d="M529.9,1162.1c7.4,0,14.7-0.1,22.1-0.1c-0.2,1.5-0.3,3-0.7,4.4c-3.8,14.3-7.6,28.5-11.3,42.7
		c-8.1,30.6-16.2,61.1-24.4,91.7c-10.2,37.9-20.4,75.8-30.6,113.7c-5.5,20.5-10.9,41-16.5,61.4c-0.6,2.2-2.3,4-3.4,6.1
		c1.8-11.9,3.7-23.8,5.4-35.8c1.9-13.4,3.9-26.8,5.6-40.2c1.8-13.8,3.5-27.5,4.8-41.3c1-10.5,1.5-21.1,2.2-31.7
		c0.6-0.5,1.6-0.8,1.8-1.4c9.1-34.4,18.2-68.9,27.3-103.3C518,1206.2,524,1184.2,529.9,1162.1z"/>
	<path class="st25" d="M410.9,1955c0.2,2,0.3,4,0.5,6C411.2,1959,411.1,1957,410.9,1955z"/>
	<path class="st23" d="M408,1908c0.2,1,0.3,2,0.5,3.1C408.3,1910.1,408.1,1909,408,1908z"/>
	<path class="st23" d="M406.9,1896c0.2,1,0.4,2,0.6,3.1C407.3,1898.1,407.1,1897,406.9,1896z"/>
	<path class="st13" d="M401.9,1846c0.2,0.7,0.4,1.4,0.7,2C402.4,1847.4,402.1,1846.7,401.9,1846z"/>
	<path class="st17" d="M387,1071c-0.3,1-0.6,2-0.9,3C386.4,1073,386.7,1072,387,1071z"/>
	<path class="st17" d="M392,1049c-0.3,1-0.6,2-0.9,3C391.4,1051,391.7,1050,392,1049z"/>
	<path class="st17" d="M394.1,913c0.3,0.7,0.5,1.4,0.8,2.1C394.7,914.5,394.4,913.8,394.1,913z"/>
	<path class="st17" d="M385,1079.9c-0.3,0.7-0.5,1.3-0.8,2C384.5,1081.3,384.7,1080.6,385,1079.9z"/>
	<path class="st17" d="M390,1057.9c-0.2,0.7-0.5,1.3-0.7,2C389.5,1059.3,389.7,1058.6,390,1057.9z"/>
	<path class="st17" d="M385.9,1075.9c-0.3,0.7-0.5,1.4-0.8,2.1C385.4,1077.3,385.7,1076.6,385.9,1075.9z"/>
	<path class="st23" d="M579,1158.9c5.3-1.3,10.7-2.6,16-3.9c-0.3,2.3-0.3,4.7-0.9,6.9c-4.2,15.9-8.5,31.7-12.8,47.5
		c-14.7,54.9-29.5,109.8-44.2,164.7c-12.3,45.9-24.6,91.9-37,137.8c-12,44.6-24,89.3-36,133.9c-12.8,47.9-25.5,95.7-38.3,143.6
		c-0.5,1.7-2.1,3.2-3.1,4.8c-0.9-6.6-1.9-13.2-2.7-19.8c-0.6-5.4-0.9-10.8-1.3-16.2c1-1.6,2.4-3.1,3-4.9c1.2-3.6,2.1-7.3,3.1-11
		c11-41,22-81.9,33-122.9c15.3-57.1,30.5-114.3,45.8-171.5c14-52.2,28.1-104.3,42.2-156.5c11.1-41.1,22.1-82.3,33-123.4
		C579.5,1165.1,578.9,1161.9,579,1158.9z"/>
	<path class="st13" d="M579,1158.9c0,3,0.6,6.2-0.2,9c-10.9,41.2-22,82.3-33,123.4c-14,52.2-28.2,104.3-42.2,156.5
		c-15.3,57.1-30.5,114.3-45.8,171.5c-11,41-22,81.9-33,122.9c-1,3.7-1.8,7.4-3.1,11c-0.6,1.8-1.9,3.2-3,4.9
		c-1.9-9.3-3.9-18.7-5.8-28c0.9-1.5,2.2-2.9,2.7-4.5c7.2-26.2,14.2-52.5,21.3-78.7c11-40.8,21.9-81.6,32.9-122.5
		c15.2-57,30.4-114,45.6-171c14.7-54.8,29.4-109.5,44-164.2c2.5-9.6,4.4-19.3,6.5-29C570.3,1159.7,574.6,1159.3,579,1158.9z"/>
	<path class="st18" d="M566,1160.1c-2.2,9.7-4,19.4-6.5,29c-14.6,54.8-29.4,109.5-44,164.2c-15.3,57-30.4,114-45.6,171
		c-10.9,40.8-21.9,81.6-32.9,122.5c-7.1,26.2-14.1,52.5-21.3,78.7c-0.4,1.6-1.8,3-2.7,4.5c-2-11.3-4-22.7-6-34
		c1.7-4.4,3.8-8.7,5-13.2c7.3-26.5,14.4-53.1,21.4-79.7c2.2-8.3,3.7-16.8,5.6-25.2c10.8-7.8,11.9-19.9,14-31.6
		c3.9-21.5,8-42.9,12-64.4c1.2-2,2.8-3.9,3.4-6.1c5.6-20.4,11-40.9,16.5-61.4c10.2-37.9,20.4-75.8,30.6-113.7
		c8.2-30.6,16.3-61.1,24.4-91.7c3.8-14.2,7.6-28.5,11.3-42.7c0.4-1.4,0.5-2.9,0.7-4.4C556.7,1161.4,561.3,1160.7,566,1160.1z"/>
	<path class="st21" d="M422.7,1794.1c1.1-1.6,2.7-3,3.1-4.8c12.8-47.8,25.5-95.7,38.3-143.6c11.9-44.7,24-89.3,36-133.9
		c12.3-45.9,24.6-91.9,37-137.8c14.7-54.9,29.5-109.8,44.2-164.7c4.3-15.8,8.6-31.7,12.8-47.5c0.6-2.2,0.6-4.6,0.9-6.9
		c1.4-0.5,2.7-1.2,4.1-1.5c4.1-1,5.2,0.1,4.1,4.2c-5.5,20.8-11.2,41.6-16.8,62.4c-15.2,57-30.4,114-45.7,171.1
		c-12.3,46-24.6,91.9-37,137.9c-13.4,49.8-26.7,99.6-40.1,149.4c-11,40.8-21.9,81.7-32.9,122.5c-0.9,3.5-1.8,7.1-3,10.5
		c-0.5,1.4-1.9,2.4-2.9,3.6C424.3,1808,423.5,1801.1,422.7,1794.1z"/>
	<path class="st24" d="M439,1578c-1.8,8.4-3.4,16.9-5.6,25.2c-7,26.6-14.2,53.2-21.4,79.7c-1.2,4.5-3.3,8.8-5,13.2
		c-0.6-4.5-1.7-9-1.9-13.6c-0.9-20.7,1.3-41,7.9-60.8c4.9-14.7,12.7-27.7,22-40C436.1,1580.2,437.6,1579.2,439,1578z"/>
	<path class="st9" d="M440,160c7,1.7,13.9,3.4,20.9,5.1c0.7,1.3,1.4,2.5,2.1,3.8c-11.7-0.6-23.3-1.2-35-1.8
		c-6.9,0.3-13.9,0.1-20.7,1.1c-4.6,0.7-6.8-0.6-7.8-4.9c-0.4-1.6-1.1-3-2.1-5.9C412.2,158.3,426.1,159.1,440,160z"/>
	<path class="st14" d="M463,181.3c-6.6,0-13.2,0-19.6,0c-0.9,3.3-1.9,6.6-2.8,9.9c-7.2,4.4-11.2,2.4-16.6-8.8
		c-4.6,1.7-8.2,0.6-10.3-5.2c4.8-0.7,9.6-1.4,14.3-2c11.3,1.6,22.6,3.1,34,4.7C462.3,180.3,462.7,180.8,463,181.3z"/>
	<path class="st16" d="M462,179.7c-11.3-1.6-22.6-3.1-34-4.7c0-2.7,0-5.4,0-8.1c11.7,0.6,23.3,1.2,35,1.8
		C462.7,172.5,462.3,176.1,462,179.7z"/>
	<path class="st8" d="M476,282c0,0.3,0,0.7,0,1C476,282.7,476,282.4,476,282z"/>
</g>
</svg>
