<svg id="svg" version="1.1" width="400" height="1307.0911722141823" viewBox="0 0 400 1307.0911722141823" xmlns="http://www.w3.org/2000/svg" xmlns:xlink="http://www.w3.org/1999/xlink" ><g id="svgg"><path id="path0" d="M205.399 24.630 C 195.854 31.328,188.292 39.714,185.738 46.435 C 184.234 50.392,184.495 50.485,187.404 47.031 C 192.213 41.322,199.047 35.435,207.218 29.964 C 213.152 25.992,212.970 26.270,211.308 23.705 C 209.776 21.340,210.179 21.276,205.399 24.630 M222.265 52.200 C 219.974 56.310,217.278 61.188,216.273 63.040 L 214.446 66.408 217.683 72.577 C 219.463 75.970,221.726 80.092,222.713 81.736 L 224.507 84.726 221.542 87.731 C 215.745 93.607,214.521 100.134,217.923 107.044 C 219.133 109.501,220.046 112.761,221.014 118.073 C 221.770 122.220,222.746 127.575,223.182 129.973 C 223.619 132.371,223.977 134.394,223.977 134.469 C 223.980 134.954,208.755 134.491,207.289 133.961 L 205.509 133.318 205.343 122.108 C 205.074 103.921,200.342 97.412,188.016 98.274 C 181.381 98.737,179.810 101.594,180.627 111.706 C 181.191 118.683,184.377 132.970,185.369 132.970 C 185.623 132.970,185.832 133.277,185.833 133.651 C 185.852 139.138,194.344 142.811,200.180 139.856 L 202.725 138.568 202.725 145.559 C 202.725 151.778,202.835 152.609,203.723 153.084 C 204.272 153.378,205.892 154.989,207.322 156.663 L 209.923 159.708 207.119 176.448 C 205.576 185.655,204.096 193.678,203.829 194.278 C 203.561 194.877,202.701 199.169,201.917 203.815 C 201.133 208.460,200.380 212.641,200.244 213.106 C 200.108 213.570,197.258 215.284,193.912 216.915 C 190.565 218.546,187.562 220.140,187.238 220.458 C 186.914 220.775,184.625 221.981,182.153 223.137 C 176.732 225.673,176.721 224.613,182.248 232.575 C 196.648 253.320,217.219 274.118,238.513 289.462 C 245.589 294.560,260.029 303.652,263.068 304.922 L 264.850 305.666 264.982 253.514 L 265.114 201.362 265.395 253.951 L 265.676 306.540 265.808 254.112 L 265.940 201.684 273.433 201.682 C 285.414 201.679,292.883 200.865,292.403 199.616 C 292.235 199.179,292.098 198.742,292.098 198.645 C 292.098 198.548,290.627 198.602,288.828 198.765 C 284.716 199.138,284.724 198.514,288.856 196.556 L 292.098 195.020 292.098 180.597 C 292.098 164.486,292.433 165.549,288.325 168.617 L 286.459 170.011 280.696 166.948 C 277.526 165.264,274.729 163.705,274.482 163.483 C 274.235 163.260,278.097 162.899,283.065 162.680 L 292.098 162.282 292.098 159.150 L 292.098 156.018 284.332 155.701 C 271.008 155.156,259.782 152.671,259.496 150.202 C 259.349 148.935,259.488 148.728,260.313 148.988 C 266.165 150.834,278.926 152.589,286.498 152.589 L 292.098 152.589 292.098 145.300 L 292.098 138.011 290.395 137.670 C 289.458 137.483,286.577 137.322,283.992 137.313 C 278.409 137.293,278.721 136.935,286.649 134.265 L 291.826 132.521 291.958 95.986 L 292.091 59.450 288.143 59.557 C 284.823 59.647,282.378 59.166,272.752 56.531 C 259.048 52.778,227.744 44.698,226.975 44.715 C 226.676 44.721,224.556 48.090,222.265 52.200 M249.319 91.567 C 259.390 92.697,264.442 93.782,266.325 95.218 C 268.618 96.967,268.627 97.763,266.349 97.352 C 262.845 96.719,240.517 96.375,236.240 96.888 C 231.225 97.489,231.488 97.617,230.020 93.869 L 228.899 91.008 236.656 91.013 C 240.923 91.015,246.621 91.265,249.319 91.567 M256.948 101.386 C 261.734 102.073,267.684 103.512,268.365 104.149 C 268.668 104.432,266.159 104.632,262.306 104.632 L 255.729 104.632 255.426 106.892 C 254.489 113.877,247.507 112.883,244.394 105.323 C 244.365 105.253,243.574 105.416,242.636 105.685 C 241.012 106.151,237.321 103.097,238.311 102.106 C 239.445 100.973,250.962 100.527,256.948 101.386 M41.428 433.842 C 41.487 438.024,44.977 465.632,45.568 466.588 C 45.699 466.800,45.075 469.745,44.181 473.133 C 35.249 506.972,34.640 545.517,42.512 578.708 C 44.811 588.403,52.641 611.247,54.800 614.560 C 55.233 615.225,56.056 616.957,56.629 618.411 C 58.149 622.267,63.052 632.155,63.952 633.180 C 64.378 633.664,65.379 635.363,66.177 636.955 L 67.627 639.849 66.214 647.036 C 65.436 650.989,64.574 654.714,64.297 655.313 C 62.172 659.912,57.221 689.614,57.221 697.759 L 57.221 706.234 60.278 708.189 C 64.118 710.646,63.878 711.130,63.788 701.129 C 63.746 696.462,63.907 692.652,64.145 692.662 C 66.893 692.785,67.134 693.648,67.058 703.102 C 66.987 711.927,67.010 712.123,68.234 712.917 C 70.068 714.107,75.644 717.166,75.978 717.166 C 76.136 717.166,76.334 713.465,76.416 708.940 L 76.567 700.714 78.690 709.894 C 79.858 714.943,80.794 719.488,80.770 719.994 C 80.739 720.649,81.853 721.338,84.641 722.388 C 86.794 723.199,88.801 724.044,89.101 724.266 C 89.401 724.488,90.443 724.840,91.417 725.048 L 93.188 725.427 93.217 721.705 C 93.245 718.037,93.259 718.003,94.170 719.327 C 96.136 722.180,99.039 725.920,100.733 727.781 C 101.705 728.850,102.353 729.965,102.172 730.258 C 101.991 730.551,102.103 730.790,102.420 730.790 C 102.738 730.790,102.997 730.300,102.997 729.700 C 102.997 729.101,102.756 728.610,102.461 728.610 C 102.114 728.610,101.873 711.403,101.780 679.934 C 101.643 633.956,101.581 631.203,100.657 630.279 C 99.406 629.028,99.533 582.608,100.799 578.202 C 101.680 575.137,102.199 507.415,101.361 504.865 C 101.073 503.988,100.206 501.185,99.436 498.638 C 98.665 496.090,97.514 492.722,96.877 491.153 C 95.966 488.908,95.844 488.038,96.305 487.066 C 96.627 486.387,97.563 483.869,98.386 481.471 C 99.208 479.074,100.092 476.879,100.349 476.594 C 100.607 476.309,100.817 475.404,100.817 474.583 C 100.817 473.761,101.021 472.963,101.270 472.809 C 101.518 472.656,101.780 468.411,101.851 463.377 C 101.922 458.333,102.208 454.142,102.489 454.042 C 103.172 453.798,103.141 452.316,102.452 452.316 C 102.137 452.316,101.907 450.588,101.907 448.221 C 101.907 442.643,98.630 440.942,79.486 436.584 C 67.054 433.754,41.400 431.906,41.428 433.842 M373.295 440.463 C 371.665 443.835,369.398 448.253,368.257 450.282 L 366.183 453.970 366.369 509.955 C 366.524 556.690,366.700 567.291,367.431 574.114 C 372.209 618.690,370.023 670.376,361.388 717.030 C 360.541 721.601,359.946 725.341,360.064 725.341 C 361.908 725.341,375.404 712.945,377.997 708.869 L 379.288 706.839 379.285 589.136 C 379.284 521.198,379.067 468.602,378.772 464.736 C 378.492 461.052,378.108 455.374,377.919 452.118 C 377.730 448.861,377.378 443.711,377.137 440.673 C 376.896 437.635,376.806 434.966,376.938 434.741 C 377.069 434.516,376.969 434.332,376.717 434.332 C 376.465 434.332,374.924 437.091,373.295 440.463 M310.354 1180.460 C 295.635 1182.333,279.079 1190.161,268.047 1200.464 C 263.555 1204.659,256.207 1208.702,248.167 1211.404 C 245.610 1212.263,243.720 1213.090,243.966 1213.241 C 244.213 1213.393,248.338 1214.663,253.134 1216.064 C 257.929 1217.466,265.654 1219.805,270.300 1221.261 C 274.946 1222.718,283.651 1225.375,289.646 1227.167 C 306.500 1232.203,310.242 1233.472,319.619 1237.335 C 346.420 1248.375,371.634 1251.366,394.687 1246.241 L 400.000 1245.059 400.000 1238.887 C 400.000 1232.151,398.464 1227.328,393.944 1219.870 C 390.245 1213.767,382.335 1204.673,379.895 1203.717 C 377.423 1202.749,368.249 1199.404,364.850 1198.232 C 363.052 1197.611,361.458 1196.926,361.308 1196.709 C 361.042 1196.323,348.467 1191.549,344.142 1190.192 C 342.943 1189.816,340.736 1188.942,339.237 1188.250 C 332.239 1185.019,317.581 1179.821,315.706 1179.905 C 314.860 1179.943,312.452 1180.193,310.354 1180.460 M54.686 1200.545 C 51.574 1200.798,51.124 1201.012,48.419 1203.529 C 45.950 1205.825,41.326 1209.845,37.436 1213.079 C 36.894 1213.528,35.545 1214.729,34.438 1215.746 C 33.331 1216.763,30.954 1218.826,29.155 1220.331 C 9.321 1236.921,0.964 1249.221,0.151 1263.018 C -0.356 1271.636,-0.008 1272.690,4.262 1275.443 C 32.877 1293.892,61.072 1288.617,85.498 1260.244 C 88.079 1257.246,92.873 1251.967,96.152 1248.514 C 99.431 1245.060,103.846 1240.395,105.964 1238.147 C 108.082 1235.899,113.430 1230.222,117.850 1225.531 C 126.869 1215.960,126.715 1216.249,123.633 1214.677 C 102.955 1204.127,76.733 1198.753,54.686 1200.545 " stroke="none" fill="#cea786" fill-rule="evenodd"></path><path id="path1" d="M157.493 235.941 C 155.845 236.791,149.959 239.863,144.414 242.769 C 138.869 245.674,130.654 249.961,126.158 252.295 C 121.662 254.629,112.711 259.298,106.267 262.671 C 99.823 266.044,92.466 269.875,89.918 271.185 C 87.371 272.494,81.987 275.345,77.954 277.519 L 70.622 281.471 66.562 289.101 C 62.426 296.874,58.183 306.322,56.406 311.717 C 55.863 313.365,55.110 315.204,54.732 315.804 C 53.584 317.627,49.840 330.062,48.004 338.147 C 47.052 342.343,45.925 347.003,45.501 348.501 C 42.660 358.534,40.327 382.884,40.327 402.495 L 40.327 415.259 42.916 415.258 C 45.033 415.258,58.262 416.845,58.712 417.154 C 58.783 417.203,57.989 420.625,56.947 424.760 C 54.748 433.493,54.691 433.243,58.860 433.243 C 70.780 433.243,90.639 438.042,105.311 444.468 C 108.384 445.814,111.129 446.966,111.409 447.028 C 111.875 447.129,114.059 441.748,118.881 428.610 C 119.872 425.913,120.840 423.583,121.034 423.433 C 121.228 423.283,122.298 420.620,123.411 417.515 C 124.525 414.409,125.845 410.907,126.344 409.732 L 127.251 407.596 132.154 411.874 C 134.851 414.227,139.522 418.465,142.535 421.292 C 145.547 424.118,150.574 428.783,153.706 431.658 C 191.539 466.388,188.510 463.100,192.404 473.661 C 193.316 476.135,194.268 478.414,194.519 478.725 C 195.718 480.214,202.677 504.954,204.948 515.804 C 207.715 529.022,210.131 550.614,210.712 567.328 L 211.064 577.435 207.639 587.764 C 205.755 593.445,204.025 598.338,203.795 598.638 C 203.565 598.937,201.417 604.973,199.023 612.051 C 196.628 619.128,194.407 625.407,194.087 626.005 C 192.888 628.247,224.340 642.123,235.695 644.362 C 267.451 650.623,289.909 650.951,313.079 645.492 C 326.406 642.352,342.762 635.109,349.360 629.428 L 350.942 628.065 352.072 615.804 C 356.898 563.474,356.953 514.622,352.250 458.460 L 350.825 441.442 354.077 436.389 C 364.050 420.887,370.733 402.676,374.078 381.886 C 376.019 369.822,374.974 293.168,372.875 293.597 C 372.508 293.672,372.207 293.402,372.207 292.997 C 372.207 292.387,367.272 288.828,366.427 288.828 C 366.286 288.828,363.750 287.243,360.792 285.305 C 357.834 283.367,353.123 280.395,350.323 278.700 C 347.523 277.005,345.109 275.463,344.959 275.275 C 344.809 275.086,344.196 274.639,343.597 274.281 C 335.159 269.245,331.994 267.282,331.195 266.592 C 330.669 266.137,329.751 265.497,329.155 265.171 C 327.627 264.334,317.900 258.327,311.444 254.235 C 302.361 248.476,300.565 247.373,300.079 247.254 C 299.823 247.191,299.560 254.373,299.494 263.215 C 299.308 288.258,297.088 299.588,289.483 314.305 C 288.515 316.178,287.514 317.711,287.260 317.711 C 284.506 317.711,256.584 302.463,245.001 294.632 C 235.415 288.153,213.624 270.813,213.624 269.665 C 213.624 269.415,213.379 269.210,213.079 269.210 C 212.747 269.210,212.534 271.715,212.534 275.636 L 212.534 282.062 214.850 284.270 C 229.048 297.805,254.903 314.792,280.381 327.325 L 292.916 333.490 287.627 333.503 C 281.463 333.517,278.872 332.558,263.760 324.666 C 224.906 304.375,190.704 275.083,165.481 240.498 C 163.036 237.145,160.913 234.400,160.763 234.399 C 160.613 234.397,159.142 235.091,157.493 235.941 M164.354 243.733 C 166.125 246.206,168.746 249.805,170.177 251.731 C 173.652 256.408,175.575 254.945,152.589 265.117 C 147.643 267.305,138.815 271.230,132.970 273.839 C 127.125 276.447,117.439 280.749,111.444 283.398 C 105.450 286.047,97.372 289.650,93.494 291.404 L 86.444 294.595 84.878 298.387 C 72.315 328.815,64.818 363.265,62.529 401.090 L 61.853 412.262 52.861 412.262 L 43.869 412.262 43.975 400.545 C 44.282 366.727,50.596 336.106,63.921 303.815 C 65.776 299.319,68.767 292.698,70.568 289.101 L 73.842 282.561 117.166 260.921 C 140.995 249.018,160.635 239.270,160.812 239.258 C 160.988 239.247,162.582 241.260,164.354 243.733 M156.787 403.951 C 162.140 409.721,172.743 421.185,180.350 429.428 C 187.956 437.670,196.673 447.112,199.720 450.409 C 210.600 462.179,209.169 459.488,215.290 479.693 C 222.641 503.958,228.378 531.214,231.550 556.948 C 233.621 573.752,233.720 571.793,229.972 588.283 C 228.133 596.376,225.208 609.318,223.472 617.044 C 219.963 632.665,220.145 632.197,218.098 630.892 C 217.286 630.374,213.869 628.300,210.505 626.283 C 203.269 621.945,203.559 623.632,207.837 610.747 C 220.502 572.600,219.791 575.064,219.438 570.573 C 217.301 543.428,208.437 500.817,198.912 471.903 L 194.524 458.583 184.591 449.089 C 153.160 419.042,150.391 415.797,147.185 405.256 C 146.014 401.404,145.587 393.460,146.551 393.460 C 146.828 393.460,151.434 398.181,156.787 403.951 " stroke="none" fill="#087246" fill-rule="evenodd"></path><path id="path2" d="M324.575 2.316 C 323.829 3.590,322.697 5.812,322.059 7.255 C 320.884 9.914,319.051 10.427,316.894 8.703 C 315.296 7.426,291.824 3.169,280.926 2.180 C 268.529 1.054,240.197 2.080,246.773 3.416 C 248.264 3.719,249.038 4.139,248.878 4.557 C 248.683 5.066,249.707 5.108,253.331 4.741 C 263.355 3.726,285.556 4.942,294.766 7.011 C 296.829 7.475,301.757 11.676,301.883 13.079 C 301.897 13.229,293.999 13.354,284.333 13.357 C 266.639 13.362,249.848 14.821,248.170 16.498 C 247.934 16.734,245.807 39.946,245.784 42.536 C 245.774 43.670,250.482 45.100,265.246 48.448 C 271.772 49.928,279.369 51.696,282.127 52.378 C 288.251 53.892,294.137 53.392,306.457 50.313 C 310.607 49.275,314.123 48.546,314.269 48.692 C 314.415 48.838,315.649 53.524,317.011 59.106 C 318.561 65.457,319.716 69.178,320.098 69.053 C 320.434 68.942,321.731 64.212,322.980 58.540 C 326.506 42.535,326.066 43.555,332.071 37.459 C 336.508 32.955,337.693 31.356,339.797 27.030 C 343.857 18.685,343.827 18.430,338.055 12.329 C 336.307 10.481,333.073 6.952,330.869 4.485 C 326.201 -0.737,326.336 -0.691,324.575 2.316 M206.643 64.468 L 205.452 65.735 207.389 70.537 C 211.330 80.310,211.156 83.577,205.967 97.275 L 204.728 100.545 206.996 105.655 L 209.264 110.764 209.264 121.867 L 209.264 132.970 215.011 132.970 L 220.758 132.970 220.436 131.199 C 220.260 130.225,219.543 125.449,218.845 120.585 C 217.656 112.309,217.466 111.619,215.875 109.807 C 210.666 103.874,210.246 100.440,213.643 91.556 L 216.377 84.407 215.058 80.759 C 213.009 75.096,208.599 64.080,208.196 63.617 C 207.996 63.388,207.297 63.771,206.643 64.468 M311.444 86.094 C 301.366 88.752,293.401 92.423,292.837 94.670 C 292.367 96.541,292.499 96.545,297.368 94.822 C 302.302 93.076,307.936 91.842,313.519 91.285 C 317.566 90.881,317.753 90.700,318.554 86.434 C 319.004 84.033,319.219 84.044,311.444 86.094 M231.514 91.396 L 229.513 91.614 230.593 94.213 L 231.673 96.811 234.774 96.355 C 238.703 95.777,256.650 95.664,262.398 96.181 C 266.442 96.545,266.695 96.508,265.895 95.673 C 263.642 93.320,240.394 90.428,231.514 91.396 M305.177 100.828 C 299.914 101.745,297.258 103.154,297.433 104.934 C 297.912 109.790,303.401 109.347,305.517 104.282 C 306.281 102.453,306.283 102.452,310.089 102.452 C 313.533 102.452,313.896 102.348,313.896 101.362 C 313.896 100.154,310.305 99.934,305.177 100.828 M241.144 101.730 C 238.551 102.304,238.477 102.425,239.830 103.865 C 240.885 104.989,241.462 105.188,242.889 104.920 C 244.562 104.606,244.715 104.724,246.049 107.357 C 248.831 112.846,253.393 112.550,254.684 106.796 L 255.352 103.815 260.782 104.011 C 263.769 104.119,266.056 104.044,265.865 103.845 C 264.314 102.229,245.979 100.660,241.144 101.730 M162.943 232.970 C 161.594 233.692,160.744 234.294,161.054 234.308 C 161.364 234.321,162.059 235.079,162.598 235.992 C 165.883 241.553,179.718 258.093,189.913 268.648 C 214.639 294.249,238.198 311.500,269.626 327.022 L 281.758 333.014 286.247 332.844 L 290.736 332.675 287.738 331.350 C 274.386 325.450,249.598 311.575,239.965 304.609 C 238.118 303.273,234.930 301.016,232.881 299.595 C 229.331 297.131,219.959 289.728,212.469 283.471 C 199.794 272.882,176.273 247.112,168.317 235.098 C 167.046 233.178,165.868 231.619,165.700 231.632 C 165.532 231.646,164.292 232.248,162.943 232.970 M388.367 302.452 C 388.713 302.902,389.109 303.883,389.247 304.632 L 389.497 305.995 389.572 304.563 C 389.612 303.773,389.218 302.795,388.692 302.383 C 387.862 301.732,387.820 301.741,388.367 302.452 M388.682 318.256 C 388.682 319.305,388.794 319.734,388.932 319.210 C 389.069 318.685,389.069 317.827,388.932 317.302 C 388.794 316.778,388.682 317.207,388.682 318.256 M388.148 332.698 C 388.154 333.896,388.266 334.323,388.396 333.645 C 388.527 332.967,388.522 331.986,388.385 331.465 C 388.249 330.944,388.142 331.499,388.148 332.698 M387.603 347.411 C 387.609 348.610,387.721 349.037,387.851 348.359 C 387.982 347.681,387.977 346.700,387.840 346.179 C 387.704 345.658,387.597 346.213,387.603 347.411 M387.069 361.853 C 387.069 363.202,387.176 363.753,387.306 363.079 C 387.435 362.405,387.435 361.301,387.306 360.627 C 387.176 359.952,387.069 360.504,387.069 361.853 M386.513 376.294 C 386.520 377.493,386.631 377.919,386.761 377.242 C 386.892 376.564,386.887 375.583,386.750 375.062 C 386.614 374.541,386.507 375.095,386.513 376.294 M40.464 419.346 C 40.470 420.545,40.582 420.971,40.712 420.293 C 40.843 419.615,40.838 418.635,40.701 418.114 C 40.565 417.593,40.458 418.147,40.464 419.346 M193.167 627.946 C 193.032 628.311,192.202 630.748,191.324 633.361 L 189.727 638.112 196.100 641.351 C 244.392 665.893,296.706 676.638,335.539 669.991 C 345.475 668.290,345.009 668.267,344.587 670.436 C 344.398 671.410,344.063 672.330,343.842 672.480 C 343.622 672.629,341.410 680.845,338.926 690.736 C 336.442 700.627,334.243 708.842,334.039 708.992 C 333.835 709.142,331.758 716.866,329.424 726.158 C 327.090 735.450,325.022 743.174,324.827 743.324 C 324.488 743.586,321.930 753.357,317.836 770.027 C 316.769 774.373,315.715 778.052,315.495 778.202 C 315.274 778.351,313.192 786.076,310.868 795.368 C 308.545 804.659,306.474 812.384,306.267 812.534 C 306.059 812.684,303.957 820.531,301.594 829.973 C 299.232 839.414,297.134 847.262,296.932 847.411 C 296.730 847.561,294.682 855.161,292.380 864.300 C 290.079 873.439,288.028 881.041,287.823 881.194 C 287.619 881.347,285.517 889.196,283.154 898.638 C 280.790 908.079,278.678 915.926,278.461 916.076 C 278.244 916.226,277.817 917.452,277.513 918.801 C 275.777 926.509,269.481 950.724,269.154 950.954 C 268.942 951.104,266.865 958.829,264.540 968.120 C 262.215 977.412,260.144 985.136,259.938 985.286 C 259.733 985.436,257.656 993.161,255.324 1002.452 C 252.991 1011.744,250.917 1019.469,250.715 1019.619 C 250.513 1019.768,249.061 1025.041,247.487 1031.335 L 244.626 1042.779 245.996 1058.311 C 250.033 1104.078,252.532 1172.395,250.884 1191.899 L 250.541 1195.951 243.509 1199.139 C 239.642 1200.892,236.366 1202.215,236.230 1202.079 C 236.093 1201.943,236.268 1198.415,236.618 1194.240 C 237.473 1184.028,237.459 1140.813,236.596 1128.065 C 234.686 1099.844,233.360 1085.653,232.841 1087.875 C 232.718 1088.399,232.412 1088.828,232.161 1088.828 C 231.909 1088.828,231.538 1089.809,231.335 1091.008 C 230.890 1093.642,230.137 1093.840,229.783 1091.417 C 229.641 1090.443,229.622 1091.730,229.742 1094.278 C 231.665 1135.278,230.250 1176.726,225.831 1208.790 L 225.483 1211.313 228.409 1212.332 C 237.863 1215.625,256.220 1209.869,267.575 1200.051 C 282.001 1187.578,298.420 1180.479,314.523 1179.753 C 317.183 1179.633,317.241 1179.519,316.030 1176.839 C 315.200 1175.005,311.862 1155.704,309.557 1139.417 C 308.356 1130.926,307.235 1123.243,307.068 1122.343 C 300.953 1089.574,296.466 984.555,298.675 925.908 L 299.258 910.448 302.490 906.866 C 304.268 904.896,305.722 902.987,305.722 902.623 C 305.722 902.259,306.041 901.765,306.431 901.526 C 309.967 899.351,314.352 886.711,315.280 876.022 C 315.488 873.624,315.988 871.285,316.392 870.824 C 317.175 869.929,320.956 861.608,323.438 855.313 C 324.265 853.215,325.142 851.244,325.385 850.932 C 326.044 850.090,328.931 842.208,331.963 832.970 C 333.439 828.474,334.981 824.060,335.391 823.161 C 336.133 821.531,339.758 808.986,342.478 798.638 C 343.266 795.640,344.140 792.698,344.421 792.098 C 345.116 790.613,348.211 777.937,350.941 765.395 C 352.180 759.700,353.417 754.629,353.690 754.125 C 354.448 752.724,359.223 729.793,359.400 726.703 C 359.485 725.204,360.304 720.177,361.219 715.531 C 365.334 694.629,370.756 641.417,368.770 641.417 C 368.601 641.417,366.424 642.878,363.932 644.664 C 341.086 661.035,310.974 664.873,271.662 656.425 C 251.993 652.198,218.471 640.040,199.728 630.335 C 194.183 627.465,193.445 627.196,193.167 627.946 M232.786 820.459 C 231.873 822.463,232.047 822.891,233.034 821.069 C 233.496 820.218,233.771 819.420,233.646 819.296 C 233.522 819.171,233.134 819.695,232.786 820.459 M205.177 885.014 C 204.712 885.913,204.454 886.649,204.604 886.649 C 204.754 886.649,205.257 885.913,205.722 885.014 C 206.187 884.114,206.445 883.379,206.295 883.379 C 206.145 883.379,205.642 884.114,205.177 885.014 M196.644 899.591 C 195.516 900.937,193.930 903.542,194.239 903.542 C 194.382 903.542,195.257 902.439,196.185 901.090 C 197.884 898.621,198.129 897.821,196.644 899.591 M186.411 913.518 L 185.083 915.259 186.820 913.658 C 188.626 911.993,188.832 911.696,188.147 911.747 C 187.922 911.763,187.141 912.560,186.411 913.518 M180.716 947.139 C 180.526 947.888,180.271 949.760,180.150 951.298 C 179.944 953.928,177.182 960.591,175.994 961.325 C 175.562 961.592,172.310 967.391,168.211 975.204 C 167.582 976.403,166.691 977.802,166.231 978.312 C 165.771 978.822,164.665 980.662,163.772 982.399 C 161.623 986.582,157.941 993.118,157.540 993.460 C 157.364 993.610,156.952 994.223,156.623 994.823 C 156.295 995.422,154.359 998.978,152.322 1002.725 C 150.285 1006.471,148.374 1009.695,148.075 1009.889 C 147.776 1010.082,147.000 1011.308,146.350 1012.613 C 143.528 1018.285,139.275 1025.929,138.664 1026.431 C 138.081 1026.908,134.405 1033.549,131.122 1040.054 C 130.517 1041.253,129.725 1042.480,129.363 1042.779 C 129.000 1043.079,127.672 1045.286,126.413 1047.684 C 123.133 1053.925,121.440 1056.867,120.758 1057.506 C 120.431 1057.813,119.590 1059.161,118.889 1060.503 C 113.585 1070.652,112.076 1073.366,111.471 1073.846 C 111.091 1074.148,110.294 1075.374,109.700 1076.571 C 106.816 1082.379,102.315 1090.463,101.965 1090.463 C 100.552 1090.463,98.085 1097.823,96.486 1106.812 C 95.553 1112.057,94.415 1117.820,93.957 1119.619 C 93.499 1121.417,91.535 1131.717,89.592 1142.507 C 87.649 1153.297,85.715 1163.474,85.296 1165.123 C 84.876 1166.771,83.648 1173.147,82.568 1179.292 C 81.488 1185.436,80.476 1190.892,80.320 1191.417 C 80.066 1192.270,79.176 1192.371,71.887 1192.371 L 63.739 1192.371 64.017 1191.144 C 64.650 1188.350,72.480 1143.407,72.478 1142.586 C 72.475 1141.816,70.734 1144.625,68.304 1149.319 L 66.471 1152.861 66.772 1149.652 C 66.937 1147.887,67.328 1145.965,67.640 1145.382 C 67.953 1144.798,68.066 1144.178,67.892 1144.004 C 67.717 1143.830,67.575 1143.988,67.575 1144.356 C 67.575 1144.723,67.360 1144.891,67.098 1144.729 C 66.546 1144.387,65.760 1148.587,66.233 1149.352 C 66.407 1149.633,66.263 1149.864,65.913 1149.864 C 65.507 1149.864,65.400 1150.356,65.619 1151.226 C 65.827 1152.054,65.728 1152.589,65.368 1152.589 C 65.041 1152.589,64.855 1153.140,64.953 1153.815 C 65.051 1154.489,64.855 1155.286,64.517 1155.586 C 64.180 1155.886,62.988 1160.177,61.869 1165.123 C 59.187 1176.973,55.611 1190.860,55.064 1191.549 C 54.824 1191.851,54.226 1193.499,53.735 1195.211 C 53.244 1196.924,52.698 1198.701,52.521 1199.161 C 52.239 1199.897,53.071 1199.956,59.479 1199.655 C 84.035 1198.499,110.582 1205.704,133.787 1219.824 L 135.967 1221.150 136.019 1201.992 C 136.047 1191.455,136.356 1178.297,136.704 1172.752 C 137.811 1155.112,139.043 1140.362,139.502 1139.237 C 139.747 1138.638,140.477 1132.997,141.123 1126.703 C 143.115 1107.317,147.566 1076.441,148.743 1073.842 C 149.014 1073.243,150.379 1067.357,151.776 1060.763 C 153.246 1053.823,154.985 1047.201,155.904 1045.038 C 156.778 1042.984,157.493 1040.981,157.493 1040.588 C 157.493 1040.195,157.701 1039.791,157.955 1039.691 C 158.580 1039.446,161.196 1032.470,164.255 1022.888 C 165.643 1018.542,167.017 1014.564,167.308 1014.048 C 168.122 1012.606,172.975 994.050,174.617 986.104 C 175.422 982.207,176.311 978.529,176.594 977.929 C 177.682 975.618,181.844 947.912,181.319 946.479 C 181.174 946.085,180.909 946.376,180.716 947.139 M83.043 1050.922 C 82.877 1051.354,82.838 1052.151,82.955 1052.693 C 83.088 1053.308,83.275 1053.013,83.452 1051.907 C 83.748 1050.051,83.556 1049.586,83.043 1050.922 M73.399 1109.401 C 73.269 1109.625,73.013 1111.035,72.828 1112.534 C 72.450 1115.604,73.210 1114.336,73.726 1111.035 C 74.031 1109.090,73.913 1108.506,73.399 1109.401 " stroke="none" fill="#0d0e0e" fill-rule="evenodd"></path><path id="path3" d="M117.189 261.475 L 73.887 283.106 69.085 293.435 C 66.444 299.116,63.163 306.840,61.794 310.601 C 60.425 314.362,58.624 319.278,57.793 321.526 C 49.802 343.130,44.179 376.991,44.150 403.678 L 44.142 411.444 52.779 411.444 L 61.416 411.444 61.814 402.589 C 62.033 397.718,62.409 392.016,62.650 389.918 C 65.776 362.709,68.577 347.059,73.088 331.608 C 77.580 316.223,79.061 311.754,82.489 303.240 C 86.578 293.086,85.185 294.340,99.162 288.228 C 104.419 285.930,113.501 281.909,119.346 279.292 C 125.191 276.676,134.387 272.604,139.782 270.243 C 145.177 267.882,150.204 265.607,150.954 265.187 C 151.703 264.767,156.485 262.649,161.580 260.481 C 173.235 255.523,172.579 256.119,170.162 252.683 C 167.503 248.905,160.711 239.774,160.588 239.813 C 160.535 239.830,141.005 249.578,117.189 261.475 M146.594 398.035 C 146.594 403.413,148.074 407.984,151.671 413.713 C 156.179 420.893,157.504 422.387,169.958 434.332 C 196.747 460.029,194.556 457.737,196.023 461.603 C 203.141 480.358,209.732 506.259,216.118 540.560 C 217.055 545.593,219.415 564.354,219.894 570.572 L 220.251 575.204 216.169 587.193 C 208.852 608.686,204.749 621.862,205.241 622.286 C 205.886 622.843,213.800 627.769,217.006 629.609 L 219.572 631.081 220.108 629.028 C 221.817 622.491,223.339 615.912,226.695 600.545 C 228.756 591.104,231.026 581.138,231.738 578.399 C 233.260 572.548,233.133 570.618,229.715 547.684 C 226.414 525.531,224.442 515.646,219.659 497.275 C 212.693 470.518,209.707 461.976,205.871 457.830 C 204.290 456.122,195.427 446.519,186.174 436.490 C 176.921 426.461,167.725 416.526,165.738 414.412 C 163.751 412.298,158.704 406.841,154.522 402.287 C 150.340 397.732,146.846 394.005,146.756 394.005 C 146.667 394.005,146.594 395.819,146.594 398.035 " stroke="none" fill="#149cd4" fill-rule="evenodd"></path><path id="path4" d="M255.177 5.295 C 256.001 5.420,257.350 5.420,258.174 5.295 C 258.999 5.170,258.324 5.068,256.676 5.068 C 255.027 5.068,254.353 5.170,255.177 5.295 M274.803 5.296 C 275.632 5.421,276.858 5.418,277.528 5.288 C 278.198 5.159,277.520 5.056,276.022 5.060 C 274.523 5.065,273.975 5.170,274.803 5.296 M250.272 5.825 C 250.797 5.962,251.655 5.962,252.180 5.825 C 252.704 5.688,252.275 5.576,251.226 5.576 C 250.177 5.576,249.748 5.688,250.272 5.825 M281.335 5.825 C 281.860 5.962,282.718 5.962,283.243 5.825 C 283.767 5.688,283.338 5.576,282.289 5.576 C 281.240 5.576,280.811 5.688,281.335 5.825 M278.587 12.393 C 280.597 12.497,284.030 12.498,286.216 12.394 C 288.402 12.291,286.757 12.205,282.561 12.204 C 278.365 12.203,276.576 12.288,278.587 12.393 M221.798 13.624 C 220.749 14.198,220.136 14.668,220.436 14.668 C 220.736 14.668,221.839 14.198,222.888 13.624 C 223.937 13.050,224.550 12.580,224.251 12.580 C 223.951 12.580,222.847 13.050,221.798 13.624 M268.264 12.925 C 269.092 13.050,270.318 13.047,270.988 12.918 C 271.659 12.788,270.981 12.686,269.482 12.690 C 267.984 12.694,267.435 12.800,268.264 12.925 M294.414 12.924 C 295.238 13.049,296.587 13.049,297.411 12.924 C 298.236 12.800,297.561 12.697,295.913 12.697 C 294.264 12.697,293.590 12.800,294.414 12.924 M262.534 13.464 C 263.208 13.594,264.312 13.594,264.986 13.464 C 265.661 13.334,265.109 13.227,263.760 13.227 C 262.411 13.227,261.860 13.334,262.534 13.464 M258.181 14.009 C 258.859 14.140,259.840 14.135,260.361 13.998 C 260.882 13.862,260.327 13.755,259.128 13.761 C 257.929 13.767,257.503 13.879,258.181 14.009 M223.161 22.635 C 221.798 23.291,221.753 23.367,222.888 23.089 C 224.432 22.712,226.168 21.827,225.341 21.840 C 225.041 21.844,224.060 22.202,223.161 22.635 M193.168 34.469 L 190.463 37.330 193.324 34.625 C 194.898 33.138,196.185 31.851,196.185 31.764 C 196.185 31.358,195.680 31.810,193.168 34.469 M191.542 43.188 L 186.649 48.229 191.689 43.336 C 196.371 38.791,196.978 38.147,196.583 38.147 C 196.501 38.147,194.233 40.416,191.542 43.188 M240.463 96.288 C 240.988 96.426,241.846 96.426,242.371 96.288 C 242.895 96.151,242.466 96.039,241.417 96.039 C 240.368 96.039,239.939 96.151,240.463 96.288 M255.722 96.288 C 256.247 96.426,257.105 96.426,257.629 96.288 C 258.154 96.151,257.725 96.039,256.676 96.039 C 255.627 96.039,255.198 96.151,255.722 96.288 M187.863 97.941 C 188.830 98.061,190.547 98.063,191.677 97.945 C 192.808 97.827,192.016 97.729,189.918 97.727 C 187.820 97.724,186.895 97.821,187.863 97.941 M200.000 102.180 C 201.017 103.229,201.971 104.087,202.121 104.087 C 202.271 104.087,201.562 103.229,200.545 102.180 C 199.528 101.131,198.574 100.272,198.424 100.272 C 198.274 100.272,198.983 101.131,200.000 102.180 M204.064 103.233 C 203.777 105.147,203.525 105.615,203.012 105.190 C 202.641 104.882,202.977 105.918,203.757 107.492 C 205.117 110.233,205.189 110.840,205.450 121.798 L 205.722 133.243 207.357 133.404 L 208.992 133.565 208.719 121.687 L 208.447 109.809 206.628 105.450 C 205.628 103.052,204.727 101.006,204.626 100.904 C 204.524 100.801,204.272 101.850,204.064 103.233 M245.368 101.193 C 245.892 101.330,246.751 101.330,247.275 101.193 C 247.800 101.056,247.371 100.944,246.322 100.944 C 245.272 100.944,244.843 101.056,245.368 101.193 M250.006 101.203 C 250.684 101.333,251.665 101.328,252.186 101.192 C 252.707 101.055,252.153 100.949,250.954 100.955 C 249.755 100.961,249.328 101.073,250.006 101.203 M307.501 102.843 C 308.329 102.969,309.555 102.965,310.225 102.836 C 310.896 102.707,310.218 102.604,308.719 102.608 C 307.221 102.612,306.672 102.718,307.501 102.843 M299.361 254.768 C 299.364 256.866,299.462 257.658,299.580 256.527 C 299.698 255.397,299.696 253.680,299.576 252.713 C 299.455 251.745,299.359 252.670,299.361 254.768 M201.362 257.221 C 202.533 258.420,203.614 259.401,203.763 259.401 C 203.913 259.401,203.078 258.420,201.907 257.221 C 200.737 256.022,199.656 255.041,199.506 255.041 C 199.356 255.041,200.192 256.022,201.362 257.221 M207.357 263.760 C 208.528 264.959,209.608 265.940,209.758 265.940 C 209.908 265.940,209.073 264.959,207.902 263.760 C 206.731 262.561,205.651 261.580,205.501 261.580 C 205.351 261.580,206.186 262.561,207.357 263.760 M299.357 271.390 C 299.357 273.338,299.456 274.135,299.577 273.161 C 299.698 272.187,299.698 270.593,299.577 269.619 C 299.456 268.644,299.357 269.441,299.357 271.390 M216.349 272.207 C 217.366 273.256,218.320 274.114,218.470 274.114 C 218.620 274.114,217.911 273.256,216.894 272.207 C 215.877 271.158,214.922 270.300,214.773 270.300 C 214.623 270.300,215.332 271.158,216.349 272.207 M293.797 303.418 C 293.120 305.435,292.441 307.452,292.290 307.902 C 292.046 308.629,292.079 308.629,292.593 307.902 C 293.342 306.843,295.549 300.272,295.255 299.978 C 295.131 299.854,294.475 301.402,293.797 303.418 M266.485 307.607 C 266.485 307.757,267.466 308.380,268.665 308.992 C 269.864 309.603,270.845 309.981,270.845 309.831 C 270.845 309.682,269.864 309.059,268.665 308.447 C 267.466 307.835,266.485 307.457,266.485 307.607 M285.985 317.333 C 286.740 317.673,287.425 317.697,287.727 317.394 C 288.028 317.091,287.537 316.870,286.483 316.833 C 284.861 316.777,284.827 316.811,285.985 317.333 M45.640 433.101 C 47.514 433.207,50.579 433.207,52.452 433.101 C 54.326 432.995,52.793 432.908,49.046 432.908 C 45.300 432.908,43.767 432.995,45.640 433.101 M365.930 508.447 C 365.930 538.869,365.996 551.315,366.076 536.104 C 366.157 520.892,366.157 496.001,366.076 480.790 C 365.996 465.579,365.930 478.025,365.930 508.447 M366.884 572.207 C 366.884 573.256,366.996 573.685,367.133 573.161 C 367.270 572.636,367.270 571.778,367.133 571.253 C 366.996 570.729,366.884 571.158,366.884 572.207 M367.440 578.474 C 367.446 579.673,367.558 580.099,367.688 579.421 C 367.818 578.744,367.813 577.763,367.677 577.242 C 367.540 576.721,367.434 577.275,367.440 578.474 M368.011 585.286 C 368.011 586.935,368.113 587.609,368.238 586.785 C 368.363 585.960,368.363 584.612,368.238 583.787 C 368.113 582.963,368.011 583.638,368.011 585.286 M368.556 593.460 C 368.556 595.109,368.658 595.783,368.783 594.959 C 368.908 594.135,368.908 592.786,368.783 591.962 C 368.658 591.138,368.556 591.812,368.556 593.460 M369.086 604.360 C 369.086 605.708,369.192 606.260,369.322 605.586 C 369.452 604.911,369.452 603.808,369.322 603.134 C 369.192 602.459,369.086 603.011,369.086 604.360 M189.638 638.783 C 189.634 638.883,188.556 642.030,187.242 645.777 C 185.928 649.523,182.878 658.229,180.465 665.123 C 178.051 672.016,175.209 679.986,174.148 682.834 C 172.674 686.794,171.964 689.997,171.130 696.458 C 168.790 714.577,167.767 721.988,166.953 726.703 C 166.488 729.401,165.890 732.956,165.625 734.605 C 163.348 748.735,161.076 762.323,159.383 771.935 C 158.275 778.229,157.355 783.685,157.340 784.060 C 157.324 784.435,157.115 784.741,156.875 784.741 C 156.634 784.741,156.574 785.097,156.741 785.532 C 156.908 785.968,156.856 786.630,156.625 787.004 C 156.394 787.377,156.149 788.186,156.080 788.801 C 155.904 790.381,155.615 791.458,155.178 792.156 C 154.971 792.488,154.902 793.285,155.026 793.927 C 155.150 794.570,155.043 795.095,154.788 795.095 C 154.534 795.095,154.453 795.582,154.608 796.177 C 154.764 796.772,154.705 797.692,154.476 798.221 C 154.248 798.750,154.113 799.714,154.175 800.363 C 154.239 801.021,153.853 801.798,153.303 802.118 C 152.760 802.433,152.589 802.699,152.922 802.708 C 153.281 802.718,153.415 803.312,153.251 804.168 C 152.826 806.394,153.820 805.342,155.609 801.674 C 158.217 796.324,158.626 797.127,156.964 804.333 C 156.372 806.896,154.883 813.774,153.653 819.619 C 148.986 841.806,142.614 863.569,133.059 889.956 C 128.243 903.258,126.666 906.782,123.279 911.809 C 106.210 937.149,94.769 984.115,91.244 1043.324 C 91.047 1046.621,89.943 1054.223,88.790 1060.218 C 87.637 1066.213,85.451 1077.984,83.932 1086.376 C 82.413 1094.768,80.441 1105.313,79.550 1109.809 C 78.659 1114.305,76.233 1127.180,74.159 1138.420 C 72.085 1149.659,69.019 1166.081,67.346 1174.913 C 65.674 1183.744,64.305 1191.163,64.305 1191.398 C 64.305 1191.633,67.861 1191.826,72.207 1191.826 C 77.185 1191.826,80.109 1191.621,80.109 1191.273 C 80.109 1190.728,82.341 1178.598,86.701 1155.450 C 89.542 1140.370,96.470 1103.319,100.993 1079.019 C 103.847 1063.681,104.611 1058.361,105.136 1050.136 C 108.493 997.526,118.497 952.227,133.893 919.906 C 156.523 872.400,168.981 828.962,177.902 766.448 C 178.387 763.049,179.027 760.839,179.954 759.364 C 180.694 758.185,182.122 755.565,183.126 753.542 C 184.129 751.519,185.128 749.864,185.344 749.864 C 185.694 749.864,190.195 741.779,193.078 735.971 C 193.672 734.775,194.470 733.549,194.850 733.247 C 195.455 732.766,196.964 730.052,202.267 719.904 C 202.969 718.562,203.806 717.213,204.129 716.906 C 204.776 716.293,208.101 710.495,210.638 705.560 C 211.531 703.822,212.637 701.983,213.096 701.473 C 213.555 700.962,214.644 699.196,215.517 697.548 C 216.389 695.899,218.100 692.655,219.319 690.339 C 220.538 688.023,221.951 685.643,222.458 685.050 C 223.303 684.064,226.131 679.000,230.072 671.420 C 230.920 669.788,231.835 668.316,232.105 668.149 C 232.705 667.779,237.263 659.407,236.984 659.189 C 236.874 659.103,234.332 658.149,231.335 657.067 C 222.645 653.931,208.623 647.909,199.183 643.259 C 189.068 638.277,189.648 638.549,189.638 638.783 M369.101 651.226 C 369.101 652.875,369.203 653.549,369.328 652.725 C 369.453 651.901,369.453 650.552,369.328 649.728 C 369.203 648.903,369.101 649.578,369.101 651.226 M368.530 660.763 C 368.536 661.962,368.647 662.388,368.778 661.710 C 368.908 661.032,368.903 660.051,368.767 659.530 C 368.630 659.009,368.524 659.564,368.530 660.763 M367.429 673.025 C 367.429 674.074,367.541 674.503,367.678 673.978 C 367.815 673.454,367.815 672.595,367.678 672.071 C 367.541 671.546,367.429 671.975,367.429 673.025 M297.582 675.874 C 275.511 707.714,254.384 745.878,254.360 753.951 C 254.356 755.150,254.537 765.450,254.762 776.839 C 255.345 806.415,253.684 837.735,250.470 857.766 C 250.302 858.815,250.011 860.899,249.825 862.398 C 249.638 863.896,249.404 865.254,249.306 865.414 C 249.207 865.575,248.964 867.169,248.765 868.956 C 247.479 880.488,242.303 904.159,240.767 905.531 C 240.145 906.086,237.825 908.808,235.612 911.580 C 233.398 914.353,231.347 916.621,231.052 916.621 C 230.758 916.621,230.518 916.885,230.518 917.207 C 230.518 917.529,228.061 920.692,225.059 924.236 C 213.797 937.525,208.552 960.388,211.991 981.199 C 212.288 982.997,212.663 985.572,212.825 986.921 C 212.987 988.270,213.256 989.986,213.424 990.736 C 213.591 991.485,214.545 996.022,215.545 1000.817 C 216.544 1005.613,218.220 1012.469,219.270 1016.053 C 220.319 1019.637,221.058 1022.764,220.911 1023.001 C 220.764 1023.239,220.890 1023.433,221.190 1023.433 C 221.490 1023.433,221.642 1023.919,221.528 1024.512 C 221.414 1025.105,221.551 1025.732,221.832 1025.906 C 222.113 1026.080,222.343 1025.840,222.343 1025.373 C 222.343 1024.905,222.571 1024.523,222.850 1024.523 C 223.128 1024.523,223.663 1023.113,224.038 1021.390 C 224.412 1019.666,224.793 1018.624,224.884 1019.074 C 224.975 1019.523,225.783 1024.918,226.680 1031.063 C 227.577 1037.207,228.680 1044.687,229.129 1047.684 C 231.209 1061.542,234.361 1091.952,236.217 1116.076 C 238.099 1140.527,238.344 1182.173,236.702 1198.292 C 236.285 1202.387,235.618 1202.377,244.492 1198.406 L 250.409 1195.758 250.794 1186.026 C 252.607 1140.167,245.462 1034.854,238.394 1003.270 C 237.354 998.624,236.095 991.730,235.597 987.951 L 234.690 981.079 237.886 968.332 C 239.644 961.322,241.247 955.463,241.450 955.313 C 241.652 955.163,243.727 947.439,246.059 938.147 C 248.392 928.856,250.479 921.131,250.698 920.981 C 250.916 920.831,251.404 919.318,251.783 917.618 C 252.348 915.079,253.045 913.891,255.698 910.951 L 258.927 907.374 260.538 899.600 C 263.421 885.687,264.286 881.119,266.500 868.120 C 268.503 856.356,277.628 817.587,278.557 816.891 C 278.760 816.739,280.814 809.137,283.122 799.997 C 285.430 790.857,287.480 783.256,287.677 783.106 C 287.874 782.956,289.968 775.109,292.330 765.668 C 294.692 756.226,296.793 748.379,296.998 748.229 C 297.202 748.079,299.278 740.354,301.611 731.063 C 303.944 721.771,306.027 714.046,306.242 713.896 C 306.456 713.747,307.505 710.068,308.572 705.722 C 312.633 689.185,315.222 679.282,315.555 679.019 C 315.987 678.677,317.288 673.510,317.011 673.233 C 316.899 673.121,313.015 672.900,308.379 672.743 L 299.951 672.457 297.582 675.874 M63.089 1199.850 C 64.068 1199.971,65.540 1199.969,66.359 1199.844 C 67.177 1199.720,66.376 1199.621,64.578 1199.624 C 62.779 1199.627,62.109 1199.729,63.089 1199.850 M225.613 1220.633 L 225.613 1229.277 229.837 1229.648 C 240.167 1230.554,253.537 1232.967,260.758 1235.228 C 275.630 1239.886,281.355 1242.043,290.308 1246.360 C 299.214 1250.655,312.720 1258.603,316.794 1261.946 C 318.450 1263.306,326.383 1265.940,332.970 1267.319 C 355.029 1271.934,379.343 1269.931,396.594 1262.076 L 400.000 1260.526 400.000 1252.892 L 400.000 1245.259 398.671 1245.764 C 379.996 1252.864,342.158 1248.432,314.986 1235.961 C 312.439 1234.792,305.940 1232.514,300.545 1230.899 C 281.602 1225.228,264.479 1220.027,254.263 1216.841 C 248.590 1215.072,243.610 1213.624,243.196 1213.624 C 242.781 1213.624,242.584 1213.395,242.758 1213.114 C 242.953 1212.797,242.399 1212.797,241.295 1213.114 C 238.635 1213.877,231.091 1213.685,228.610 1212.791 C 227.411 1212.359,226.247 1212.002,226.022 1211.997 C 225.797 1211.993,225.613 1215.879,225.613 1220.633 M126.431 1216.432 C 126.431 1216.735,118.643 1225.240,109.125 1235.331 C 99.608 1245.422,89.030 1256.806,85.619 1260.630 C 60.005 1289.343,33.331 1294.379,4.485 1275.949 C 2.906 1274.940,1.496 1274.114,1.352 1274.114 C 1.208 1274.114,1.090 1279.259,1.090 1285.548 L 1.090 1296.981 3.385 1298.151 C 20.422 1306.843,45.738 1310.464,61.636 1306.483 C 66.372 1305.297,76.217 1301.086,77.384 1299.747 C 77.534 1299.575,79.741 1297.725,82.289 1295.635 C 87.978 1290.968,87.817 1291.160,90.544 1285.831 C 91.771 1283.433,92.991 1281.390,93.254 1281.290 C 93.518 1281.190,93.733 1280.881,93.733 1280.604 C 93.733 1279.744,100.648 1269.429,103.081 1266.661 C 111.294 1257.312,123.102 1247.224,132.204 1241.781 L 135.695 1239.693 135.690 1230.609 L 135.685 1221.526 131.058 1218.703 C 128.513 1217.150,126.431 1216.128,126.431 1216.432 " stroke="none" fill="#615d5d" fill-rule="evenodd"></path><path id="path5" d="M240.054 4.066 C 235.987 4.896,228.476 6.927,226.839 7.640 C 223.718 9.000,222.972 9.306,220.163 10.384 C 215.275 12.258,209.052 15.568,204.520 18.704 C 202.184 20.321,198.276 23.025,195.836 24.713 C 180.769 35.138,176.436 50.491,180.416 79.352 C 181.445 86.819,181.719 88.395,183.123 94.928 L 183.789 98.030 188.322 97.710 C 193.979 97.311,197.515 98.774,201.274 103.071 L 203.663 105.802 204.012 103.618 C 204.204 102.416,205.470 98.470,206.825 94.847 C 211.164 83.247,211.232 80.069,207.347 70.435 C 205.494 65.838,205.474 65.710,206.460 64.611 C 207.014 63.993,207.639 62.997,207.849 62.398 C 208.059 61.798,209.534 58.978,211.126 56.131 C 212.719 53.283,215.549 48.195,217.415 44.823 C 221.483 37.472,219.221 37.763,237.581 42.224 C 250.863 45.452,257.006 46.604,249.095 44.384 C 246.776 43.734,245.779 43.187,245.784 42.571 C 245.831 37.071,248.024 16.642,248.606 16.272 C 251.283 14.575,233.943 19.176,223.380 22.965 C 209.395 27.983,195.160 38.064,186.291 49.231 C 183.629 52.584,183.335 50.870,185.664 45.572 C 193.742 27.195,220.863 10.159,249.046 5.758 C 252.478 5.222,253.282 4.988,251.431 5.063 C 249.557 5.140,248.716 4.977,248.873 4.568 C 249.394 3.215,245.356 2.985,240.054 4.066 M260.354 4.766 C 263.426 4.863,268.454 4.863,271.526 4.766 C 274.598 4.669,272.084 4.590,265.940 4.590 C 259.796 4.590,257.282 4.669,260.354 4.766 M279.428 5.289 C 280.102 5.419,281.206 5.419,281.880 5.289 C 282.554 5.159,282.003 5.053,280.654 5.053 C 279.305 5.053,278.753 5.159,279.428 5.289 M284.605 5.825 C 285.129 5.962,285.988 5.962,286.512 5.825 C 287.037 5.688,286.608 5.576,285.559 5.576 C 284.510 5.576,284.080 5.688,284.605 5.825 M277.277 12.941 C 280.365 13.038,285.270 13.038,288.176 12.940 C 291.083 12.842,288.556 12.763,282.561 12.763 C 276.567 12.764,274.189 12.844,277.277 12.941 M266.894 13.464 C 267.568 13.594,268.672 13.594,269.346 13.464 C 270.020 13.334,269.469 13.227,268.120 13.227 C 266.771 13.227,266.219 13.334,266.894 13.464 M297.146 13.470 C 297.975 13.595,299.201 13.592,299.871 13.463 C 300.542 13.333,299.864 13.231,298.365 13.235 C 296.866 13.239,296.318 13.345,297.146 13.470 M261.717 14.000 C 262.241 14.137,263.099 14.137,263.624 14.000 C 264.149 13.863,263.719 13.750,262.670 13.750 C 261.621 13.750,261.192 13.863,261.717 14.000 M257.357 14.545 C 257.881 14.682,258.740 14.682,259.264 14.545 C 259.789 14.408,259.360 14.295,258.311 14.295 C 257.262 14.295,256.832 14.408,257.357 14.545 M315.531 91.008 L 313.624 91.410 315.363 91.481 C 316.319 91.521,317.253 91.308,317.439 91.008 C 317.624 90.708,317.700 90.495,317.607 90.535 C 317.514 90.574,316.580 90.787,315.531 91.008 M230.388 91.394 C 231.066 91.524,232.047 91.519,232.568 91.383 C 233.089 91.246,232.534 91.140,231.335 91.146 C 230.136 91.152,229.710 91.263,230.388 91.394 M239.101 91.393 C 239.775 91.523,240.879 91.523,241.553 91.393 C 242.228 91.263,241.676 91.157,240.327 91.157 C 238.978 91.157,238.426 91.263,239.101 91.393 M247.827 95.753 C 248.504 95.884,249.485 95.879,250.006 95.742 C 250.527 95.606,249.973 95.499,248.774 95.505 C 247.575 95.511,247.149 95.623,247.827 95.753 M237.193 96.288 C 237.718 96.426,238.576 96.426,239.101 96.288 C 239.625 96.151,239.196 96.039,238.147 96.039 C 237.098 96.039,236.669 96.151,237.193 96.288 M259.271 96.298 C 259.949 96.429,260.929 96.424,261.450 96.287 C 261.972 96.151,261.417 96.044,260.218 96.050 C 259.019 96.056,258.593 96.168,259.271 96.298 M256.546 103.928 C 257.224 104.058,258.205 104.053,258.726 103.917 C 259.247 103.780,258.692 103.674,257.493 103.680 C 256.294 103.686,255.868 103.797,256.546 103.928 M207.999 108.719 C 208.243 109.319,208.567 115.082,208.718 121.526 L 208.992 133.243 214.714 133.270 L 220.436 133.298 214.850 133.115 L 209.264 132.933 209.245 121.644 C 209.229 112.479,209.068 110.098,208.390 108.992 C 207.930 108.243,207.754 108.120,207.999 108.719 M216.116 110.133 C 216.993 111.211,217.821 112.000,217.956 111.887 C 218.090 111.774,217.372 110.893,216.360 109.928 L 214.521 108.174 216.116 110.133 M171.797 228.666 C 165.299 232.164,165.362 231.218,171.109 238.965 C 181.561 253.052,200.236 273.137,212.469 283.446 C 219.290 289.194,229.215 297.051,232.867 299.595 C 234.909 301.016,238.710 303.679,241.314 305.510 C 245.644 308.556,251.906 312.390,251.207 311.567 C 251.047 311.379,247.379 308.855,243.057 305.960 C 231.787 298.411,220.910 290.045,214.825 284.247 L 212.484 282.016 212.562 275.477 L 212.640 268.937 208.909 265.123 C 197.752 253.717,189.783 244.120,180.855 231.335 C 179.181 228.937,177.715 226.679,177.597 226.317 C 177.459 225.890,175.419 226.716,171.797 228.666 M161.311 234.650 C 161.312 234.925,161.945 235.886,162.718 236.785 L 164.123 238.420 162.892 236.512 C 161.313 234.066,161.307 234.059,161.311 234.650 M169.660 246.199 C 171.076 248.039,172.527 249.725,172.885 249.946 C 173.243 250.167,172.330 248.814,170.857 246.938 C 169.384 245.063,167.932 243.377,167.632 243.191 C 167.332 243.006,168.245 244.359,169.660 246.199 M177.134 255.286 C 179.346 258.228,189.440 269.093,195.590 275.152 C 202.990 282.442,218.529 296.056,218.529 295.250 C 218.529 295.112,215.892 292.792,212.670 290.094 C 203.050 282.041,192.090 271.333,179.830 258.011 C 177.885 255.898,176.672 254.671,177.134 255.286 M372.207 292.869 C 372.207 293.344,372.508 293.672,372.875 293.597 C 374.974 293.168,376.019 369.822,374.078 381.886 C 370.733 402.676,364.050 420.887,354.077 436.389 L 350.825 441.442 352.250 458.460 C 356.953 514.622,356.898 563.474,352.072 615.804 L 350.942 628.065 349.360 629.428 C 327.838 647.962,281.732 654.070,236.068 644.438 C 227.700 642.672,230.153 643.833,245.777 649.029 C 297.183 666.125,335.982 664.692,363.932 644.664 C 366.424 642.878,368.558 641.417,368.675 641.417 C 368.792 641.417,368.988 643.072,369.111 645.095 C 369.234 647.119,369.271 637.616,369.193 623.978 C 369.056 599.979,368.297 584.243,366.655 571.390 C 366.232 568.074,365.965 548.267,365.831 510.259 L 365.634 454.032 368.615 448.740 C 370.255 445.829,372.498 441.335,373.599 438.753 C 374.699 436.172,375.957 433.654,376.394 433.158 C 377.229 432.208,377.501 431.402,380.959 419.619 C 385.398 404.494,385.772 400.394,387.816 344.317 C 388.987 312.173,389.159 303.452,388.633 302.818 C 388.267 302.377,385.586 300.606,382.676 298.883 C 379.765 297.159,376.219 294.907,374.796 293.877 C 372.857 292.475,372.207 292.222,372.207 292.869 M222.015 298.002 C 222.206 298.311,224.104 299.831,226.233 301.379 C 228.361 302.927,229.947 303.942,229.756 303.633 C 229.565 303.324,227.667 301.804,225.539 300.256 C 223.410 298.708,221.824 297.693,222.015 298.002 M233.787 306.502 C 233.787 306.760,239.173 310.503,240.872 311.426 C 241.599 311.821,241.599 311.777,240.872 311.031 C 239.887 310.020,233.787 306.121,233.787 306.502 M251.771 311.909 C 251.771 312.267,257.790 315.994,262.807 318.743 C 268.859 322.059,268.027 321.121,261.717 317.514 C 258.794 315.843,255.361 313.842,254.087 313.066 C 252.813 312.290,251.771 311.769,251.771 311.909 M249.046 316.255 C 249.046 316.486,256.354 320.900,257.493 321.358 C 257.793 321.478,257.446 321.136,256.722 320.597 C 254.985 319.306,249.046 315.946,249.046 316.255 M270.845 322.887 C 270.845 323.248,283.990 329.816,284.230 329.575 C 284.335 329.470,281.367 327.862,277.633 326.003 C 273.899 324.143,270.845 322.741,270.845 322.887 M262.670 324.011 C 262.670 324.280,273.046 329.530,275.138 330.320 C 275.984 330.639,276.345 330.648,276.022 330.342 C 275.350 329.705,262.670 323.693,262.670 324.011 M290.143 332.348 C 290.380 332.732,288.984 332.987,285.986 333.109 C 281.514 333.291,281.525 333.294,287.148 333.404 C 290.270 333.465,292.723 333.426,292.598 333.316 C 291.830 332.645,289.842 331.861,290.143 332.348 M40.627 418.937 C 40.758 420.960,41.007 424.946,41.181 427.793 L 41.497 432.970 48.133 432.786 C 51.782 432.685,54.829 432.542,54.904 432.469 C 55.123 432.253,58.853 417.251,58.712 417.154 C 58.265 416.848,45.042 415.258,42.947 415.258 L 40.390 415.259 40.627 418.937 M191.521 639.527 C 192.103 639.967,192.824 640.327,193.124 640.327 C 193.424 640.327,193.193 639.967,192.611 639.527 C 192.029 639.087,191.308 638.727,191.008 638.727 C 190.708 638.727,190.939 639.087,191.521 639.527 M209.195 647.974 C 211.705 649.189,213.854 650.088,213.970 649.971 C 214.087 649.855,212.401 648.964,210.225 647.991 C 204.476 645.422,203.906 645.412,209.195 647.974 M368.576 655.041 C 368.576 657.289,368.672 658.208,368.789 657.084 C 368.907 655.960,368.907 654.121,368.789 652.997 C 368.672 651.873,368.576 652.793,368.576 655.041 M223.978 654.153 C 224.728 654.605,227.916 655.886,231.063 657.000 C 234.210 658.115,236.874 659.098,236.984 659.185 C 237.262 659.407,232.707 667.777,232.105 668.149 C 231.835 668.316,230.920 669.788,230.072 671.420 C 226.131 679.000,223.303 684.064,222.458 685.050 C 221.951 685.643,220.538 688.023,219.319 690.339 C 218.100 692.655,216.389 695.899,215.517 697.548 C 214.644 699.196,213.555 700.962,213.096 701.473 C 212.637 701.983,211.531 703.822,210.638 705.560 C 208.101 710.495,204.776 716.293,204.129 716.906 C 203.806 717.213,202.969 718.562,202.267 719.904 C 196.964 730.052,195.455 732.766,194.850 733.247 C 194.470 733.549,193.672 734.775,193.078 735.971 C 190.195 741.779,185.694 749.864,185.344 749.864 C 185.128 749.864,184.129 751.519,183.126 753.542 C 182.122 755.565,180.694 758.185,179.954 759.364 C 179.027 760.839,178.387 763.049,177.902 766.448 C 168.981 828.962,156.523 872.400,133.893 919.906 C 118.497 952.227,108.493 997.526,105.136 1050.136 C 104.485 1060.327,103.615 1065.580,95.396 1108.917 C 94.182 1115.320,93.204 1120.838,93.223 1121.179 C 93.320 1122.936,94.356 1118.458,96.170 1108.435 C 98.084 1097.862,100.470 1090.463,101.965 1090.463 C 102.315 1090.463,106.816 1082.379,109.700 1076.571 C 110.294 1075.374,111.091 1074.148,111.471 1073.846 C 112.076 1073.366,113.585 1070.652,118.889 1060.503 C 119.590 1059.161,120.431 1057.813,120.758 1057.506 C 121.440 1056.867,123.133 1053.925,126.413 1047.684 C 127.672 1045.286,129.000 1043.079,129.363 1042.779 C 129.725 1042.480,130.517 1041.253,131.122 1040.054 C 134.405 1033.549,138.081 1026.908,138.664 1026.431 C 139.275 1025.929,143.528 1018.285,146.350 1012.613 C 147.000 1011.308,147.776 1010.082,148.075 1009.889 C 148.374 1009.695,150.285 1006.471,152.322 1002.725 C 154.359 998.978,156.295 995.422,156.623 994.823 C 156.952 994.223,157.364 993.610,157.540 993.460 C 157.941 993.118,161.623 986.582,163.772 982.399 C 164.665 980.662,165.771 978.822,166.231 978.312 C 166.691 977.802,167.582 976.403,168.211 975.204 C 172.310 967.391,175.562 961.592,175.994 961.325 C 177.322 960.505,179.962 953.880,180.203 950.765 C 180.343 948.952,180.679 947.057,180.949 946.552 C 181.219 946.047,181.586 944.072,181.766 942.163 C 181.945 940.254,182.178 938.153,182.285 937.494 C 182.392 936.835,182.773 931.931,183.132 926.595 L 183.785 916.894 185.743 914.441 C 186.820 913.093,187.845 911.866,188.021 911.717 C 188.197 911.567,189.062 910.463,189.944 909.264 C 190.826 908.065,191.701 906.962,191.889 906.812 C 192.077 906.662,193.182 905.032,194.344 903.190 C 195.507 901.348,197.339 898.528,198.415 896.923 C 204.308 888.140,216.776 862.879,221.103 850.954 C 221.865 848.856,223.042 845.913,223.719 844.414 C 225.148 841.250,226.772 837.082,229.982 828.338 C 231.247 824.891,233.332 819.373,234.616 816.076 C 237.189 809.469,238.997 803.636,241.036 795.368 C 243.871 783.865,249.842 763.990,251.354 761.015 C 251.806 760.127,252.928 757.071,253.847 754.223 C 257.881 741.726,270.451 717.277,282.564 698.365 C 294.573 679.617,299.470 672.822,301.256 672.428 C 302.241 672.210,301.736 672.088,299.728 672.057 C 287.084 671.861,252.663 664.017,232.160 656.659 C 222.720 653.272,222.310 653.146,223.978 654.153 M367.985 664.578 C 367.991 665.777,368.102 666.203,368.233 665.525 C 368.363 664.847,368.358 663.866,368.222 663.345 C 368.085 662.824,367.979 663.379,367.985 664.578 M334.924 670.045 C 331.054 670.733,324.832 671.551,321.098 671.863 C 314.650 672.402,311.647 673.025,315.500 673.025 C 317.152 673.025,317.258 673.130,316.926 674.450 C 316.730 675.235,316.427 676.584,316.254 677.448 C 316.081 678.312,315.753 679.019,315.525 679.019 C 315.297 679.019,314.994 679.693,314.851 680.518 C 314.280 683.827,306.576 713.643,306.227 713.896 C 306.021 714.046,303.944 721.771,301.611 731.063 C 299.278 740.354,297.202 748.079,296.998 748.229 C 296.793 748.379,294.692 756.226,292.330 765.668 C 289.968 775.109,287.874 782.956,287.677 783.106 C 287.480 783.256,285.430 790.857,283.122 799.997 C 280.814 809.137,278.760 816.739,278.557 816.891 C 277.628 817.587,268.503 856.356,266.500 868.120 C 264.286 881.119,263.421 885.687,260.538 899.600 L 258.927 907.374 255.698 910.951 C 253.045 913.891,252.348 915.079,251.783 917.618 C 251.404 919.318,250.916 920.831,250.698 920.981 C 250.479 921.131,248.392 928.856,246.059 938.147 C 243.727 947.439,241.652 955.163,241.450 955.313 C 241.247 955.463,239.644 961.322,237.886 968.332 L 234.690 981.079 235.597 987.951 C 236.095 991.730,237.354 998.624,238.394 1003.270 C 240.351 1012.018,241.517 1020.456,243.854 1042.779 C 245.977 1063.063,246.174 1064.705,246.250 1062.738 C 246.289 1061.726,245.934 1056.826,245.461 1051.848 L 244.601 1042.799 247.475 1031.345 C 249.055 1025.045,250.513 1019.768,250.715 1019.619 C 250.917 1019.469,252.991 1011.744,255.324 1002.452 C 257.656 993.161,259.733 985.436,259.938 985.286 C 260.144 985.136,262.215 977.412,264.540 968.120 C 266.865 958.829,268.942 951.104,269.154 950.954 C 269.481 950.724,275.777 926.509,277.513 918.801 C 277.817 917.452,278.244 916.226,278.461 916.076 C 278.678 915.926,280.790 908.079,283.154 898.638 C 285.517 889.196,287.619 881.347,287.823 881.194 C 288.028 881.041,290.079 873.439,292.380 864.300 C 294.682 855.161,296.730 847.561,296.932 847.411 C 297.134 847.262,299.232 839.414,301.594 829.973 C 303.957 820.531,306.059 812.684,306.267 812.534 C 306.474 812.384,308.545 804.659,310.868 795.368 C 313.192 786.076,315.274 778.351,315.495 778.202 C 315.715 778.052,316.769 774.373,317.836 770.027 C 321.930 753.357,324.488 743.586,324.827 743.324 C 325.022 743.174,327.090 735.450,329.424 726.158 C 331.758 716.866,333.835 709.142,334.039 708.992 C 334.243 708.842,336.442 700.627,338.926 690.736 C 341.410 680.845,343.622 672.629,343.842 672.480 C 344.063 672.330,344.398 671.410,344.587 670.436 C 345.010 668.261,344.968 668.260,334.924 670.045 M308.038 672.870 C 308.862 672.995,310.211 672.995,311.035 672.870 C 311.860 672.745,311.185 672.643,309.537 672.643 C 307.888 672.643,307.214 672.745,308.038 672.870 M157.308 780.790 C 156.573 783.501,156.428 784.741,156.847 784.741 C 157.103 784.741,157.315 784.435,157.320 784.060 C 157.325 783.685,157.508 782.582,157.727 781.608 C 158.136 779.789,157.772 779.079,157.308 780.790 M156.256 785.615 C 156.037 785.834,155.858 786.389,155.858 786.848 C 155.858 787.462,156.020 787.523,156.465 787.078 C 156.798 786.744,156.977 786.189,156.862 785.845 C 156.747 785.500,156.474 785.397,156.256 785.615 M155.711 788.340 C 155.492 788.559,155.321 789.248,155.330 789.873 C 155.345 790.921,155.390 790.933,155.913 790.034 C 156.523 788.986,156.367 787.684,155.711 788.340 M154.257 795.913 C 153.681 798.651,153.680 799.126,154.254 798.553 C 154.588 798.219,154.751 797.366,154.616 796.657 C 154.482 795.948,154.320 795.613,154.257 795.913 M155.609 801.674 C 153.820 805.342,152.826 806.394,153.251 804.168 C 153.403 803.374,153.345 802.725,153.122 802.725 C 152.421 802.725,152.161 804.706,152.729 805.719 C 153.103 806.387,153.093 806.579,152.697 806.334 C 152.381 806.139,151.994 806.411,151.838 806.940 C 151.442 808.280,149.390 817.419,149.113 819.074 C 148.988 819.823,148.520 821.417,148.073 822.616 C 147.626 823.815,146.469 827.861,145.502 831.608 C 142.869 841.803,139.582 853.330,138.431 856.403 C 137.870 857.902,135.897 863.542,134.046 868.937 C 132.195 874.332,130.108 879.973,129.408 881.471 C 128.708 882.970,126.776 887.359,125.114 891.224 C 122.286 897.803,119.880 902.241,112.231 914.986 C 100.107 935.189,94.580 954.372,93.184 981.092 C 92.931 985.946,92.208 993.106,91.578 997.003 C 90.948 1000.899,89.832 1008.256,89.098 1013.351 C 86.756 1029.611,83.414 1051.953,82.901 1054.768 C 82.629 1056.267,81.630 1062.275,80.683 1068.120 C 76.455 1094.198,72.982 1114.532,72.027 1118.801 C 71.456 1121.349,70.967 1123.801,70.938 1124.251 C 70.910 1124.700,70.612 1126.417,70.275 1128.065 C 67.910 1139.659,67.030 1144.596,67.283 1144.849 C 67.444 1145.009,67.575 1144.814,67.575 1144.414 C 67.575 1144.015,67.717 1143.830,67.892 1144.004 C 68.066 1144.178,67.953 1144.798,67.640 1145.382 C 67.328 1145.965,66.937 1147.887,66.772 1149.652 L 66.471 1152.861 68.304 1149.319 C 70.793 1144.511,72.475 1141.821,72.478 1142.645 C 72.479 1143.020,71.621 1148.160,70.572 1154.066 C 68.645 1164.914,68.122 1169.463,69.550 1162.943 C 69.977 1160.995,72.170 1149.374,74.423 1137.119 C 76.677 1124.865,78.875 1113.152,79.308 1111.092 C 79.742 1109.031,81.580 1099.194,83.394 1089.231 C 85.208 1079.269,87.636 1066.213,88.789 1060.218 C 89.943 1054.223,91.047 1046.621,91.244 1043.324 C 94.769 984.115,106.210 937.149,123.279 911.809 C 126.666 906.782,128.243 903.258,133.059 889.956 C 142.614 863.569,148.986 841.806,153.653 819.619 C 154.883 813.774,156.372 806.896,156.964 804.333 C 158.626 797.127,158.217 796.324,155.609 801.674 M153.305 800.206 C 153.464 800.619,153.306 801.263,152.955 801.637 C 152.460 802.163,152.500 802.260,153.134 802.069 C 154.111 801.774,154.577 799.455,153.658 799.455 C 153.305 799.455,153.147 799.793,153.305 800.206 M211.098 967.030 C 211.100 970.027,211.191 971.184,211.302 969.600 C 211.412 968.017,211.411 965.564,211.299 964.151 C 211.187 962.737,211.097 964.033,211.098 967.030 M224.038 1021.390 C 223.663 1023.113,223.128 1024.523,222.850 1024.523 C 222.571 1024.523,222.343 1024.905,222.343 1025.373 C 222.343 1025.840,222.098 1026.071,221.798 1025.886 C 221.119 1025.465,221.095 1025.185,222.113 1029.700 C 224.737 1041.350,226.914 1057.483,228.619 1077.929 C 229.939 1093.746,230.454 1096.225,231.335 1091.008 C 231.538 1089.809,231.927 1088.828,232.200 1088.828 C 232.474 1088.828,232.715 1088.399,232.736 1087.875 C 232.769 1087.054,232.844 1087.073,233.273 1088.011 C 234.096 1089.811,231.138 1060.997,229.132 1047.684 C 228.681 1044.687,227.577 1037.207,226.680 1031.063 C 225.783 1024.918,224.975 1019.523,224.884 1019.074 C 224.793 1018.624,224.412 1019.666,224.038 1021.390 M246.485 1067.575 C 246.485 1069.223,246.587 1069.898,246.712 1069.074 C 246.837 1068.249,246.837 1066.901,246.712 1066.076 C 246.587 1065.252,246.485 1065.926,246.485 1067.575 M247.030 1074.114 C 247.030 1075.763,247.132 1076.437,247.257 1075.613 C 247.382 1074.789,247.382 1073.440,247.257 1072.616 C 247.132 1071.792,247.030 1072.466,247.030 1074.114 M247.567 1080.926 C 247.571 1082.425,247.677 1082.973,247.802 1082.145 C 247.928 1081.317,247.924 1080.091,247.795 1079.420 C 247.666 1078.750,247.563 1079.428,247.567 1080.926 M248.105 1088.828 C 248.105 1090.177,248.211 1090.729,248.341 1090.054 C 248.471 1089.380,248.471 1088.277,248.341 1087.602 C 248.211 1086.928,248.105 1087.480,248.105 1088.828 M233.925 1092.916 C 233.931 1094.114,234.043 1094.541,234.173 1093.863 C 234.303 1093.185,234.298 1092.204,234.162 1091.683 C 234.025 1091.162,233.919 1091.717,233.925 1092.916 M248.657 1097.275 C 248.661 1098.774,248.767 1099.322,248.892 1098.494 C 249.018 1097.665,249.014 1096.439,248.885 1095.769 C 248.756 1095.099,248.653 1095.777,248.657 1097.275 M234.488 1098.910 C 234.492 1100.409,234.598 1100.957,234.723 1100.129 C 234.849 1099.300,234.845 1098.074,234.716 1097.404 C 234.587 1096.734,234.484 1097.411,234.488 1098.910 M235.033 1105.450 C 235.037 1106.948,235.143 1107.497,235.268 1106.668 C 235.394 1105.840,235.390 1104.614,235.261 1103.943 C 235.132 1103.273,235.029 1103.951,235.033 1105.450 M249.202 1106.540 C 249.206 1108.038,249.312 1108.587,249.437 1107.758 C 249.563 1106.930,249.559 1105.704,249.430 1105.033 C 249.301 1104.363,249.198 1105.041,249.202 1106.540 M235.591 1111.989 C 235.594 1113.787,235.696 1114.457,235.817 1113.478 C 235.939 1112.498,235.936 1111.027,235.812 1110.208 C 235.687 1109.389,235.588 1110.191,235.591 1111.989 M249.760 1117.439 C 249.763 1119.237,249.865 1119.907,249.986 1118.928 C 250.108 1117.948,250.105 1116.477,249.981 1115.658 C 249.856 1114.839,249.757 1115.640,249.760 1117.439 M236.365 1124.251 C 236.519 1128.597,236.738 1132.255,236.851 1132.380 C 237.182 1132.745,236.952 1124.887,236.500 1120.436 C 236.227 1117.737,236.181 1119.033,236.365 1124.251 M250.285 1130.245 C 250.285 1131.594,250.391 1132.146,250.521 1131.471 C 250.651 1130.797,250.651 1129.693,250.521 1129.019 C 250.391 1128.345,250.285 1128.896,250.285 1130.245 M237.265 1141.417 C 237.266 1145.014,237.355 1146.414,237.461 1144.529 C 237.568 1142.644,237.567 1139.701,237.459 1137.990 C 237.352 1136.278,237.264 1137.820,237.265 1141.417 M86.701 1155.092 C 85.729 1160.365,85.045 1164.791,85.181 1164.927 C 85.404 1165.149,87.708 1153.648,88.609 1147.820 C 89.562 1141.660,88.264 1146.604,86.701 1155.092 M250.883 1154.223 C 250.883 1157.371,250.973 1158.658,251.083 1157.084 C 251.193 1155.511,251.193 1152.936,251.083 1151.362 C 250.973 1149.789,250.883 1151.076,250.883 1154.223 M237.817 1162.670 C 237.818 1166.866,237.904 1168.511,238.007 1166.325 C 238.111 1164.139,238.110 1160.706,238.006 1158.696 C 237.901 1156.685,237.816 1158.474,237.817 1162.670 M237.259 1182.561 C 237.259 1185.708,237.349 1186.996,237.459 1185.422 C 237.569 1183.849,237.569 1181.274,237.459 1179.700 C 237.349 1178.127,237.259 1179.414,237.259 1182.561 M250.883 1185.286 C 250.883 1188.433,250.973 1189.721,251.083 1188.147 C 251.193 1186.574,251.193 1183.999,251.083 1182.425 C 250.973 1180.851,250.883 1182.139,250.883 1185.286 M236.687 1194.005 C 236.687 1195.954,236.786 1196.751,236.906 1195.777 C 237.027 1194.802,237.027 1193.208,236.906 1192.234 C 236.786 1191.260,236.687 1192.057,236.687 1194.005 M63.759 1191.962 C 63.760 1192.187,67.500 1192.325,72.071 1192.270 C 80.495 1192.168,79.501 1191.959,69.345 1191.697 C 66.272 1191.618,63.758 1191.737,63.759 1191.962 M236.049 1200.409 C 235.964 1202.256,236.647 1202.641,238.147 1201.591 C 238.793 1201.139,238.715 1201.088,237.777 1201.351 C 236.790 1201.628,236.551 1201.426,236.360 1200.161 C 236.142 1198.713,236.127 1198.725,236.049 1200.409 M58.174 1199.840 C 58.849 1199.970,59.952 1199.970,60.627 1199.840 C 61.301 1199.710,60.749 1199.603,59.401 1199.603 C 58.052 1199.603,57.500 1199.710,58.174 1199.840 M68.535 1199.840 C 69.213 1199.971,70.194 1199.966,70.715 1199.829 C 71.236 1199.693,70.681 1199.586,69.482 1199.592 C 68.283 1199.599,67.857 1199.710,68.535 1199.840 M265.366 1202.044 L 263.488 1204.087 265.531 1202.209 C 267.433 1200.461,267.825 1200.000,267.409 1200.000 C 267.318 1200.000,266.399 1200.920,265.366 1202.044 M128.610 1217.083 C 128.610 1217.222,130.199 1218.265,132.140 1219.400 L 135.669 1221.465 135.832 1230.487 L 135.996 1239.510 136.118 1230.421 L 136.240 1221.332 132.834 1219.298 C 128.600 1216.770,128.610 1216.775,128.610 1217.083 " stroke="none" fill="#293333" fill-rule="evenodd"></path><path id="path6" d="M220.856 39.373 C 220.564 39.748,218.905 42.629,217.170 45.777 C 215.435 48.924,212.673 53.915,211.032 56.867 C 208.304 61.779,208.107 62.359,208.723 63.679 C 209.093 64.473,211.041 69.434,213.052 74.704 L 216.707 84.285 214.037 91.325 C 210.626 100.320,211.023 103.871,216.064 109.452 C 218.020 111.616,220.704 124.661,220.708 132.016 L 220.708 133.515 213.760 133.523 C 209.073 133.529,207.078 133.704,207.629 134.060 C 208.309 134.499,223.980 134.891,223.977 134.469 C 223.977 134.394,223.619 132.371,223.182 129.973 C 222.746 127.575,221.770 122.220,221.014 118.073 C 220.046 112.761,219.133 109.501,217.923 107.044 C 214.521 100.134,215.745 93.607,221.542 87.731 L 224.507 84.726 222.713 81.736 C 221.726 80.092,219.463 75.970,217.683 72.577 L 214.446 66.408 216.273 63.040 C 222.393 51.759,226.501 44.725,226.975 44.715 C 227.744 44.698,259.048 52.778,272.752 56.531 C 282.383 59.168,284.822 59.647,288.147 59.557 L 292.098 59.450 292.161 77.273 C 292.196 87.075,292.333 94.686,292.465 94.186 C 293.206 91.387,319.346 82.009,319.346 84.542 C 319.346 84.811,318.948 86.463,318.460 88.215 L 317.575 91.401 312.875 91.721 C 307.600 92.079,301.579 93.503,296.155 95.673 C 293.853 96.593,292.387 96.924,292.169 96.572 C 291.980 96.266,291.826 104.228,291.826 114.267 L 291.826 132.520 286.649 134.264 C 278.721 136.936,278.409 137.293,283.992 137.313 C 286.577 137.322,289.458 137.483,290.395 137.670 L 292.098 138.011 292.098 145.300 L 292.098 152.589 286.498 152.589 C 278.926 152.589,266.165 150.834,260.313 148.988 C 259.488 148.728,259.349 148.935,259.496 150.202 C 259.782 152.671,271.008 155.156,284.332 155.701 L 292.098 156.018 292.098 159.150 L 292.098 162.282 283.065 162.680 C 278.097 162.899,274.235 163.260,274.482 163.483 C 274.729 163.705,277.526 165.264,280.696 166.948 L 286.459 170.011 288.325 168.617 C 292.433 165.549,292.098 164.486,292.098 180.597 L 292.098 195.020 288.856 196.556 C 284.729 198.512,284.716 199.138,288.809 198.767 C 291.650 198.509,292.099 198.600,292.381 199.489 C 292.757 200.674,293.628 200.577,300.689 198.561 C 303.167 197.854,305.301 197.275,305.433 197.275 C 305.565 197.275,305.824 196.356,306.009 195.232 C 306.194 194.108,306.566 192.698,306.837 192.098 C 307.107 191.499,309.180 181.689,311.444 170.300 C 313.708 158.910,315.904 148.365,316.324 146.866 C 316.745 145.368,317.466 142.793,317.927 141.144 C 321.605 127.987,321.920 114.039,318.768 103.835 L 317.689 100.343 319.398 93.905 C 322.140 83.574,322.167 83.391,321.773 77.548 C 321.424 72.362,320.617 67.197,320.492 69.346 C 320.283 72.916,319.177 70.055,317.173 60.763 C 316.526 57.766,315.511 53.799,314.916 51.947 L 313.834 48.581 310.732 49.649 C 306.498 51.105,298.386 52.698,291.830 53.359 L 286.385 53.908 271.667 50.412 C 263.571 48.489,254.619 46.402,251.771 45.774 C 248.924 45.146,241.034 43.296,234.239 41.662 C 220.050 38.251,221.533 38.505,220.856 39.373 M266.926 96.007 C 267.543 96.796,267.470 96.951,266.381 97.159 C 265.263 97.372,265.290 97.408,266.621 97.473 C 268.338 97.558,268.549 96.928,267.166 95.843 C 266.311 95.173,266.287 95.190,266.926 96.007 M245.913 96.316 C 247.636 96.424,250.456 96.424,252.180 96.316 C 253.903 96.207,252.493 96.119,249.046 96.119 C 245.599 96.119,244.189 96.207,245.913 96.316 M259.271 96.843 C 259.949 96.974,260.929 96.969,261.450 96.832 C 261.972 96.696,261.417 96.589,260.218 96.595 C 259.019 96.601,258.593 96.713,259.271 96.843 M312.738 100.068 C 316.730 100.867,314.993 102.997,310.350 102.997 L 306.258 102.997 305.361 105.240 C 303.575 109.703,298.698 109.910,297.215 105.585 C 296.278 102.853,299.095 101.377,307.357 100.272 C 309.005 100.051,310.507 99.838,310.695 99.799 C 310.882 99.760,311.802 99.881,312.738 100.068 M255.253 104.865 C 255.089 105.293,255.063 106.212,255.196 106.909 C 255.382 107.883,255.454 107.771,255.512 106.422 L 255.586 104.670 261.172 104.494 L 266.757 104.317 261.155 104.202 C 256.726 104.111,255.489 104.250,255.253 104.865 M279.564 201.628 C 277.616 201.833,273.753 201.882,270.981 201.738 L 265.940 201.475 265.808 254.007 L 265.676 306.540 265.395 253.951 L 265.114 201.362 264.982 253.561 C 264.852 304.979,264.834 305.752,263.796 305.196 C 263.216 304.886,262.542 304.635,262.297 304.639 C 261.583 304.651,274.186 311.384,280.567 314.400 C 287.912 317.872,287.317 317.980,289.979 312.685 C 296.942 298.837,300.116 279.605,299.409 255.555 L 299.132 246.157 297.348 245.201 C 296.367 244.675,293.987 243.257,292.060 242.050 C 290.133 240.842,287.820 239.404,286.921 238.854 L 285.286 237.853 285.143 219.471 C 285.009 202.400,284.932 201.096,284.053 201.173 C 283.532 201.219,281.512 201.424,279.564 201.628 M101.226 443.626 C 101.642 444.074,101.907 445.910,101.907 448.338 C 101.907 450.627,102.139 452.316,102.452 452.316 C 103.135 452.316,103.175 453.796,102.498 454.042 C 102.223 454.142,101.917 458.209,101.817 463.080 C 101.699 468.828,101.826 471.867,102.180 471.739 C 102.480 471.631,102.664 471.003,102.589 470.344 C 102.515 469.685,102.646 469.265,102.880 469.410 C 103.115 469.555,103.837 468.282,104.485 466.581 C 107.337 459.095,111.172 448.459,111.172 448.033 C 111.172 447.649,104.315 444.263,101.362 443.189 C 100.701 442.948,100.675 443.031,101.226 443.626 M379.360 476.567 C 379.310 478.032,379.247 691.315,379.291 706.775 C 379.294 708.028,383.764 701.408,386.292 696.404 L 389.493 690.069 386.630 670.511 C 385.056 659.755,383.361 648.134,382.865 644.687 C 382.369 641.240,381.707 637.901,381.393 637.268 C 380.722 635.914,380.994 632.232,382.458 622.888 C 385.989 600.344,387.690 564.905,386.420 540.327 C 385.442 521.406,382.760 496.666,381.389 493.928 C 381.068 493.286,380.496 488.627,380.119 483.574 C 379.742 478.521,379.400 475.368,379.360 476.567 M101.635 538.692 C 101.635 575.687,101.975 578.267,104.366 559.401 C 106.530 542.323,105.429 512.406,102.596 511.319 C 101.975 511.081,101.959 510.931,102.518 510.586 C 103.059 510.252,103.079 509.865,102.603 508.891 C 102.264 508.197,101.908 507.323,101.811 506.948 C 101.714 506.573,101.635 520.858,101.635 538.692 M99.978 605.995 C 99.978 619.033,100.049 624.366,100.136 617.847 C 100.223 611.328,100.223 600.661,100.136 594.142 C 100.049 587.623,99.978 592.956,99.978 605.995 M100.817 630.506 C 101.532 630.958,101.653 637.144,101.780 679.817 C 101.884 715.098,102.092 728.610,102.529 728.610 C 102.907 728.610,103.014 729.209,102.814 730.207 C 102.639 731.085,102.685 731.882,102.918 731.978 C 103.151 732.074,104.524 733.624,105.970 735.422 C 107.415 737.221,110.158 740.348,112.065 742.372 C 113.971 744.397,115.534 746.236,115.537 746.460 C 115.540 746.683,117.072 748.483,118.943 750.458 C 120.813 752.433,123.785 755.805,125.548 757.951 C 129.318 762.541,129.768 762.643,131.846 759.367 C 135.871 753.020,135.311 744.266,130.527 738.744 C 129.773 737.873,129.155 736.953,129.155 736.701 C 129.155 736.283,128.019 733.638,122.985 722.343 C 122.050 720.245,121.147 718.406,120.978 718.256 C 120.809 718.106,119.760 715.940,118.646 713.442 L 116.621 708.900 116.670 697.366 C 116.706 688.999,116.862 686.355,117.240 687.738 C 118.432 692.112,120.021 696.747,120.416 697.002 C 120.648 697.152,121.504 698.595,122.318 700.209 C 123.937 703.419,128.322 708.447,129.502 708.447 C 129.911 708.447,130.245 708.686,130.245 708.978 C 130.245 709.753,133.482 711.301,134.382 710.956 C 135.029 710.707,135.150 706.093,135.150 681.531 L 135.150 652.401 132.705 650.860 C 126.128 646.715,111.096 636.858,108.367 634.903 C 106.675 633.690,105.126 632.698,104.925 632.698 C 104.724 632.698,103.756 632.084,102.773 631.335 C 101.791 630.586,100.765 629.977,100.494 629.981 C 100.222 629.986,100.368 630.222,100.817 630.506 M63.787 701.515 L 63.851 710.386 65.415 711.284 L 66.980 712.182 67.141 703.173 L 67.302 694.163 65.831 693.403 C 65.022 692.985,64.216 692.643,64.041 692.643 C 63.865 692.643,63.751 696.635,63.787 701.515 M76.229 709.060 C 76.101 714.321,76.230 717.758,76.567 718.056 C 81.603 722.505,81.618 721.938,76.964 702.725 C 76.534 700.950,76.397 702.128,76.229 709.060 M93.217 721.617 C 93.198 723.990,92.952 725.345,92.507 725.525 C 92.005 725.727,92.023 725.811,92.576 725.843 C 93.560 725.899,99.747 729.034,100.900 730.060 C 102.655 731.623,102.517 729.742,100.733 727.781 C 99.039 725.920,96.136 722.180,94.170 719.327 C 93.258 718.002,93.245 718.032,93.217 721.617 " stroke="none" fill="#a6643c" fill-rule="evenodd"></path><path id="path7" d="M255.041 5.453 C 236.206 7.403,220.545 12.918,208.311 21.910 C 204.937 24.389,204.495 25.170,207.645 23.086 C 209.778 21.674,209.863 21.662,210.612 22.669 C 211.771 24.227,212.747 26.133,212.489 26.338 C 212.364 26.438,209.623 28.317,206.397 30.513 C 203.172 32.710,200.229 34.876,199.858 35.326 C 199.486 35.776,201.144 34.737,203.542 33.017 C 210.159 28.271,213.370 26.461,219.509 24.019 C 241.451 15.289,268.812 10.886,291.826 12.382 C 302.076 13.049,301.275 13.290,298.941 10.234 C 297.100 7.823,296.951 7.748,292.805 7.157 C 279.720 5.292,263.616 4.565,255.041 5.453 M198.237 29.715 C 197.117 30.756,196.352 31.608,196.536 31.608 C 196.720 31.608,197.821 30.749,198.982 29.700 C 200.143 28.651,200.908 27.800,200.683 27.808 C 200.457 27.816,199.356 28.674,198.237 29.715 M190.994 43.188 L 187.193 47.139 191.144 43.339 C 194.814 39.809,195.344 39.237,194.945 39.237 C 194.862 39.237,193.084 41.015,190.994 43.188 M207.902 263.760 C 210.286 266.158,212.359 268.120,212.508 268.120 C 212.658 268.120,210.831 266.158,208.447 263.760 C 206.063 261.362,203.990 259.401,203.840 259.401 C 203.690 259.401,205.518 261.362,207.902 263.760 M106.760 445.546 C 108.980 446.579,110.886 447.334,110.996 447.224 C 111.226 446.994,103.742 443.578,103.129 443.632 C 102.907 443.652,104.541 444.513,106.760 445.546 M369.064 600.545 C 369.064 601.594,369.176 602.023,369.313 601.499 C 369.450 600.974,369.450 600.116,369.313 599.591 C 369.176 599.067,369.064 599.496,369.064 600.545 M369.694 625.341 C 369.695 629.237,369.782 630.760,369.887 628.724 C 369.992 626.688,369.991 623.500,369.885 621.639 C 369.779 619.779,369.693 621.444,369.694 625.341 M69.346 1200.390 C 70.170 1200.515,71.519 1200.515,72.343 1200.390 C 73.168 1200.265,72.493 1200.163,70.845 1200.163 C 69.196 1200.163,68.522 1200.265,69.346 1200.390 M265.642 1202.316 L 263.488 1204.632 265.804 1202.478 C 267.078 1201.293,268.120 1200.251,268.120 1200.162 C 268.120 1199.750,267.645 1200.162,265.642 1202.316 M125.929 1216.336 C 125.905 1216.779,124.110 1218.986,121.939 1221.241 L 117.993 1225.341 122.279 1221.182 C 124.867 1218.670,126.447 1216.728,126.268 1216.277 C 126.031 1215.681,125.963 1215.693,125.929 1216.336 M254.223 1216.894 C 254.823 1217.151,255.681 1217.362,256.131 1217.362 C 256.646 1217.362,256.545 1217.189,255.858 1216.894 C 255.259 1216.636,254.401 1216.425,253.951 1216.425 C 253.436 1216.425,253.536 1216.599,254.223 1216.894 M262.653 1219.407 C 265.791 1220.429,268.584 1221.189,268.861 1221.097 C 269.414 1220.913,258.322 1217.404,257.473 1217.494 C 257.184 1217.525,259.515 1218.386,262.653 1219.407 M271.390 1222.071 C 272.439 1222.475,273.665 1222.805,274.114 1222.805 C 274.564 1222.805,274.074 1222.475,273.025 1222.071 C 271.975 1221.667,270.749 1221.336,270.300 1221.336 C 269.850 1221.336,270.341 1221.667,271.390 1222.071 M114.154 1229.564 L 110.354 1233.515 114.305 1229.715 C 117.975 1226.185,118.505 1225.613,118.105 1225.613 C 118.022 1225.613,116.244 1227.391,114.154 1229.564 M294.005 1228.936 C 300.268 1230.968,301.857 1231.376,301.281 1230.800 C 300.929 1230.448,288.496 1226.688,287.919 1226.758 C 287.670 1226.789,290.409 1227.769,294.005 1228.936 M302.725 1231.608 C 303.324 1231.865,304.183 1232.076,304.632 1232.076 C 305.147 1232.076,305.047 1231.903,304.360 1231.608 C 303.760 1231.350,302.902 1231.139,302.452 1231.139 C 301.937 1231.139,302.038 1231.312,302.725 1231.608 M105.201 1238.877 L 101.139 1243.324 104.832 1239.782 C 107.844 1236.893,110.178 1234.145,109.420 1234.381 C 109.334 1234.407,107.436 1236.430,105.201 1238.877 M315.671 1236.224 C 317.539 1237.308,327.062 1240.967,327.327 1240.702 C 327.433 1240.596,324.884 1239.461,321.662 1238.182 C 314.612 1235.381,313.710 1235.087,315.671 1236.224 M95.628 1249.183 L 91.281 1253.678 95.777 1249.332 C 99.952 1245.294,100.521 1244.687,100.123 1244.687 C 100.041 1244.687,98.018 1246.710,95.628 1249.183 M342.004 1245.214 C 344.061 1246.046,353.884 1247.900,357.766 1248.189 C 361.425 1248.462,361.380 1248.442,356.676 1247.708 C 353.978 1247.288,349.453 1246.436,346.620 1245.815 C 341.100 1244.606,340.218 1244.491,342.004 1245.214 M395.640 1246.049 C 394.292 1246.440,393.678 1246.765,394.278 1246.771 C 394.877 1246.777,396.349 1246.459,397.548 1246.064 C 400.370 1245.134,398.840 1245.122,395.640 1246.049 M384.066 1248.342 C 384.744 1248.472,385.725 1248.467,386.246 1248.331 C 386.767 1248.194,386.213 1248.088,385.014 1248.094 C 383.815 1248.100,383.388 1248.211,384.066 1248.342 M364.730 1248.903 C 366.163 1249.015,368.370 1249.014,369.635 1248.900 C 370.900 1248.785,369.728 1248.693,367.030 1248.695 C 364.332 1248.696,363.298 1248.790,364.730 1248.903 M378.065 1248.886 C 378.740 1249.016,379.843 1249.016,380.518 1248.886 C 381.192 1248.756,380.640 1248.650,379.292 1248.650 C 377.943 1248.650,377.391 1248.756,378.065 1248.886 M89.069 1256.267 C 85.150 1260.459,83.715 1262.125,84.027 1262.125 C 84.197 1262.125,85.981 1260.286,87.993 1258.038 C 91.909 1253.663,92.660 1252.427,89.069 1256.267 M79.674 1266.561 C 78.085 1268.088,76.874 1269.426,76.981 1269.533 C 77.088 1269.640,78.502 1268.385,80.122 1266.744 C 83.832 1262.987,83.521 1262.861,79.674 1266.561 M73.278 1272.110 C 71.769 1273.362,69.685 1275.075,68.646 1275.916 L 66.757 1277.445 69.210 1275.843 C 71.535 1274.325,76.876 1269.781,76.294 1269.816 C 76.144 1269.825,74.787 1270.857,73.278 1272.110 M15.420 1281.801 C 16.679 1282.534,23.987 1285.024,24.755 1284.982 C 25.290 1284.952,15.341 1281.239,14.714 1281.234 C 14.564 1281.233,14.882 1281.488,15.420 1281.801 M58.046 1281.859 C 57.451 1282.204,54.876 1283.168,52.324 1284.002 C 49.772 1284.835,48.070 1285.526,48.542 1285.538 C 49.014 1285.549,51.123 1284.973,53.229 1284.257 C 57.056 1282.955,60.701 1281.247,59.673 1281.237 C 59.373 1281.234,58.641 1281.514,58.046 1281.859 M32.568 1286.489 C 33.246 1286.619,34.226 1286.614,34.747 1286.478 C 35.269 1286.342,34.714 1286.235,33.515 1286.241 C 32.316 1286.247,31.890 1286.359,32.568 1286.489 M41.287 1286.489 C 41.965 1286.619,42.946 1286.614,43.467 1286.478 C 43.988 1286.342,43.433 1286.235,42.234 1286.241 C 41.035 1286.247,40.609 1286.359,41.287 1286.489 " stroke="none" fill="#6c817f" fill-rule="evenodd"></path><path id="path8" d="M144.527 247.230 C 135.747 251.600,128.670 255.282,128.800 255.412 C 128.930 255.542,136.168 252.082,144.883 247.722 L 160.730 239.795 163.747 243.876 C 165.407 246.120,166.909 247.956,167.085 247.956 C 167.367 247.956,165.707 245.501,162.205 240.736 C 160.815 238.845,162.943 238.064,144.527 247.230 M169.582 251.854 C 171.408 254.486,171.932 255.643,171.498 256.077 C 171.063 256.512,171.069 256.676,171.521 256.676 C 173.352 256.676,170.807 251.207,167.899 248.890 C 167.442 248.527,168.199 249.860,169.582 251.854 M167.302 258.038 C 166.553 258.466,166.185 258.817,166.485 258.817 C 166.785 258.817,167.643 258.466,168.392 258.038 C 169.142 257.610,169.510 257.259,169.210 257.259 C 168.910 257.259,168.052 257.610,167.302 258.038 M116.617 261.082 C 112.974 262.906,110.109 264.514,110.252 264.657 C 110.539 264.944,123.706 258.462,123.706 258.034 C 123.706 257.559,123.345 257.714,116.617 261.082 M159.946 261.110 C 157.248 262.314,153.961 263.773,152.641 264.353 C 151.320 264.934,150.366 265.534,150.520 265.688 C 150.779 265.947,162.372 260.957,164.852 259.519 C 167.110 258.211,164.672 259.001,159.946 261.110 M147.684 266.757 C 146.935 267.186,146.567 267.536,146.866 267.536 C 147.166 267.536,148.025 267.186,148.774 266.757 C 149.523 266.329,149.891 265.979,149.591 265.979 C 149.292 265.979,148.433 266.329,147.684 266.757 M89.258 274.796 L 73.842 282.561 72.358 285.286 C 70.272 289.117,64.738 301.432,64.990 301.684 C 65.105 301.799,67.151 297.666,69.536 292.500 L 73.873 283.106 89.234 275.450 C 103.412 268.383,105.948 267.030,105.017 267.030 C 104.828 267.030,97.737 270.525,89.258 274.796 M140.327 269.831 C 132.222 273.399,126.957 275.913,127.161 276.117 C 127.368 276.324,141.980 269.980,144.687 268.508 C 147.563 266.944,145.385 267.605,140.327 269.831 M119.619 279.095 C 111.590 282.630,106.248 285.176,106.447 285.375 C 106.648 285.576,121.287 279.224,123.978 277.767 C 126.871 276.202,124.663 276.875,119.619 279.095 M94.129 290.431 C 87.497 293.422,85.559 294.565,85.559 295.485 C 85.559 295.835,85.865 295.716,86.240 295.221 C 86.614 294.726,89.619 293.133,92.916 291.681 C 99.239 288.897,101.445 287.768,100.545 287.777 C 100.245 287.780,97.358 288.974,94.129 290.431 M80.216 308.884 C 78.446 313.519,75.186 323.787,75.232 324.584 C 75.248 324.850,76.836 320.546,78.762 315.020 C 82.320 304.811,83.218 301.022,80.216 308.884 M61.900 308.577 C 59.654 314.124,56.659 322.839,56.826 323.340 C 56.927 323.641,57.567 322.313,58.250 320.390 C 58.933 318.467,60.330 314.585,61.356 311.764 C 63.242 306.572,63.630 304.305,61.900 308.577 M71.429 337.308 C 69.903 342.961,67.469 354.723,67.689 355.382 C 67.782 355.661,69.015 350.808,70.428 344.599 C 73.055 333.062,73.552 329.439,71.429 337.308 M51.600 340.453 C 49.432 348.569,46.258 365.287,47.019 364.578 C 47.180 364.428,47.963 360.872,48.758 356.676 C 49.553 352.480,50.927 346.004,51.811 342.286 C 53.738 334.182,53.598 332.971,51.600 340.453 M45.358 375.477 C 45.358 376.526,45.470 376.955,45.607 376.431 C 45.744 375.906,45.744 375.048,45.607 374.523 C 45.470 373.999,45.358 374.428,45.358 375.477 M44.843 381.199 C 44.847 382.698,44.952 383.246,45.078 382.418 C 45.203 381.589,45.200 380.363,45.070 379.693 C 44.941 379.023,44.838 379.700,44.843 381.199 M63.887 380.381 C 63.887 381.431,63.999 381.860,64.136 381.335 C 64.273 380.811,64.273 379.952,64.136 379.428 C 63.999 378.903,63.887 379.332,63.887 380.381 M62.972 386.462 C 62.436 390.365,61.583 403.264,61.582 407.493 L 61.580 411.444 52.876 411.444 L 44.172 411.444 43.997 403.678 L 43.821 395.913 43.845 404.087 L 43.869 412.262 52.861 412.262 L 61.853 412.262 62.245 405.722 C 62.461 402.125,62.888 395.891,63.195 391.867 C 63.741 384.713,63.619 381.755,62.972 386.462 M44.325 389.101 C 44.325 391.349,44.421 392.268,44.539 391.144 C 44.656 390.020,44.656 388.181,44.539 387.057 C 44.421 385.933,44.325 386.853,44.325 389.101 M146.149 397.956 L 146.249 402.452 146.558 398.196 L 146.866 393.939 154.496 402.254 C 158.692 406.826,163.751 412.298,165.738 414.412 C 167.725 416.526,176.921 426.461,186.174 436.490 C 195.427 446.519,204.298 456.130,205.887 457.847 C 208.388 460.551,209.037 461.748,210.714 466.757 C 211.780 469.939,212.746 472.449,212.861 472.334 C 212.977 472.219,212.223 469.608,211.187 466.532 C 209.154 460.494,209.525 461.015,199.720 450.409 C 196.673 447.112,187.956 437.670,180.350 429.428 C 153.247 400.058,147.047 393.460,146.551 393.460 C 146.275 393.460,146.094 395.484,146.149 397.956 M148.229 408.382 C 148.229 409.901,154.502 419.781,156.788 421.862 C 157.732 422.721,157.447 422.130,155.946 420.113 C 154.698 418.437,152.451 415.026,150.953 412.533 C 149.455 410.040,148.229 408.172,148.229 408.382 M166.613 431.744 C 171.330 436.315,178.994 443.708,183.644 448.174 C 188.294 452.640,192.772 456.996,193.597 457.856 C 194.421 458.715,195.095 459.221,195.095 458.980 C 195.095 458.594,186.202 449.886,165.032 429.543 C 161.535 426.183,158.530 423.433,158.355 423.433 C 158.180 423.433,161.896 427.173,166.613 431.744 M196.331 463.760 C 197.987 469.217,201.332 478.959,201.494 478.797 C 201.793 478.497,197.383 464.743,196.673 463.760 C 196.148 463.034,196.110 463.034,196.331 463.760 M201.711 480.109 C 201.711 480.559,201.922 481.417,202.180 482.016 C 202.475 482.703,202.648 482.804,202.648 482.289 C 202.648 481.839,202.437 480.981,202.180 480.381 C 201.885 479.694,201.711 479.594,201.711 480.109 M215.880 482.834 C 215.880 483.283,216.091 484.142,216.349 484.741 C 216.644 485.428,216.817 485.529,216.817 485.014 C 216.817 484.564,216.606 483.706,216.349 483.106 C 216.054 482.419,215.880 482.319,215.880 482.834 M216.928 486.291 C 216.881 486.916,222.380 508.116,222.663 508.401 C 223.100 508.842,222.865 507.749,220.473 498.199 C 218.239 489.280,217.013 485.161,216.928 486.291 M205.481 493.460 C 205.479 494.420,210.798 514.743,210.850 513.971 C 210.919 512.928,206.509 494.729,205.945 493.733 C 205.691 493.283,205.482 493.161,205.481 493.460 M226.376 526.158 C 226.573 528.007,230.134 551.129,230.992 556.131 L 231.553 559.401 231.281 555.858 C 230.870 550.492,228.959 537.822,227.501 530.790 C 226.786 527.343,226.280 525.259,226.376 526.158 M214.902 536.686 C 215.270 538.617,217.470 554.028,218.728 563.488 C 219.147 566.635,219.519 568.543,219.554 567.728 C 219.711 564.130,215.691 535.909,214.922 535.209 C 214.721 535.027,214.712 535.691,214.902 536.686 M219.703 572.752 C 219.645 574.101,218.382 578.869,216.898 583.348 C 215.413 587.827,214.288 591.582,214.399 591.693 C 215.039 592.332,220.212 574.806,220.019 572.652 L 219.809 570.300 219.703 572.752 M231.143 580.560 C 229.006 589.049,225.874 604.294,226.375 603.769 C 226.739 603.389,232.192 578.604,231.962 578.374 C 231.844 578.256,231.476 579.240,231.143 580.560 M207.645 611.188 C 206.407 614.995,205.512 618.228,205.657 618.373 C 205.802 618.517,206.920 615.508,208.142 611.685 C 209.365 607.861,210.259 604.628,210.131 604.500 C 210.002 604.371,208.884 607.381,207.645 611.188 M221.578 623.005 C 221.090 625.200,220.437 627.914,220.127 629.036 L 219.564 631.076 217.002 629.651 C 215.090 628.586,214.786 628.509,215.804 629.347 C 217.730 630.933,219.557 631.851,219.968 631.440 C 220.436 630.972,222.996 619.544,222.699 619.247 C 222.571 619.119,222.066 620.810,221.578 623.005 M204.423 621.575 C 204.385 622.256,204.852 622.954,205.586 623.312 C 206.260 623.642,207.854 624.554,209.128 625.338 C 210.402 626.123,211.444 626.643,211.444 626.495 C 211.444 626.346,209.986 625.325,208.203 624.224 C 206.420 623.124,204.855 621.821,204.724 621.330 C 204.551 620.680,204.469 620.747,204.423 621.575 " stroke="none" fill="#2493bb" fill-rule="evenodd"></path></g></svg>